<?xml version="1.0" encoding="UTF-8" standalone="no"?>
<!-- Created with Inkscape (http://www.inkscape.org/) -->

<svg
   xmlns:dc="http://purl.org/dc/elements/1.1/"
   xmlns:cc="http://creativecommons.org/ns#"
   xmlns:rdf="http://www.w3.org/1999/02/22-rdf-syntax-ns#"
   xmlns:svg="http://www.w3.org/2000/svg"
   xmlns="http://www.w3.org/2000/svg"
   xmlns:sodipodi="http://sodipodi.sourceforge.net/DTD/sodipodi-0.dtd"
   xmlns:inkscape="http://www.inkscape.org/namespaces/inkscape"
   width="210mm"
   height="210mm"
   viewBox="0 0 744.09449 744.09448"
   id="svg2"
   version="1.1"
   inkscape:version="0.91 r13725"
   sodipodi:docname="logo.svg">
  <defs
     id="defs4">
    <inkscape:perspective
       sodipodi:type="inkscape:persp3d"
       inkscape:vp_x="-152.85715 : 539.09471 : 1"
       inkscape:vp_y="0 : 999.99996 : 0"
       inkscape:vp_z="591.23733 : 539.09471 : 1"
       inkscape:persp3d-origin="219.19009 : 363.70102 : 1"
       id="perspective4215" />
    <inkscape:perspective
       sodipodi:type="inkscape:persp3d"
       inkscape:vp_x="-3.5714286 : 659.80899 : 1"
       inkscape:vp_y="0 : 999.99996 : 0"
       inkscape:vp_z="740.52304 : 659.80899 : 1"
       inkscape:persp3d-origin="368.4758 : 484.41529 : 1"
       id="perspective4213" />
    <inkscape:perspective
       sodipodi:type="inkscape:persp3d"
       inkscape:vp_x="-65.71428 : 810.52323 : 1"
       inkscape:vp_y="0 : 999.99998 : 0"
       inkscape:vp_z="678.38021 : 810.52323 : 1"
       inkscape:persp3d-origin="306.33296 : 635.12959 : 1"
       id="perspective4136" />
  </defs>
  <sodipodi:namedview
     id="base"
     pagecolor="#ffffff"
     bordercolor="#666666"
     borderopacity="1.0"
     inkscape:pageopacity="0.0"
     inkscape:pageshadow="2"
     inkscape:zoom="0.24748737"
     inkscape:cx="-139.78561"
     inkscape:cy="83.740691"
     inkscape:document-units="px"
     inkscape:current-layer="layer1"
     showgrid="false"
     inkscape:window-width="1366"
     inkscape:window-height="709"
     inkscape:window-x="-4"
     inkscape:window-y="0"
     inkscape:window-maximized="1" />
  <metadata
     id="metadata7">
    <rdf:RDF>
      <cc:Work
         rdf:about="">
        <dc:format>image/svg+xml</dc:format>
        <dc:type
           rdf:resource="http://purl.org/dc/dcmitype/StillImage" />
        <dc:title></dc:title>
      </cc:Work>
    </rdf:RDF>
  </metadata>
  <g
     inkscape:label="Calque 1"
     inkscape:groupmode="layer"
     id="layer1"
     transform="translate(0,-308.26772)">
    <g
       sodipodi:type="inkscape:box3d"
       id="g4199"
       style="opacity:1;fill:#000000;fill-opacity:1;stroke:none;stroke-width:15.19999981;stroke-linecap:round;stroke-linejoin:bevel;stroke-miterlimit:4;stroke-dasharray:none;stroke-dashoffset:0;stroke-opacity:1"
       inkscape:perspectiveID="#perspective4213"
       inkscape:corner0="0.68846346 : 0.22544579 : 0 : 1"
       inkscape:corner7="0.25208205 : -0.26071337 : -0.18853683 : 1">
      <path
         sodipodi:type="inkscape:box3dside"
         id="path4209"
         style="fill:#afafde;fill-rule:evenodd;stroke:none;stroke-width:1px;stroke-linecap:butt;stroke-linejoin:round;stroke-opacity:1"
         inkscape:box3dsidetype="13"
         d="m 216.7752,650.83956 76.79622,90.01915 -79.23203,61.74482 -63.39792,-119.29806 z"
         points="293.57142,740.85871 214.33939,802.60353 150.94147,683.30547 216.7752,650.83956 " />
      <path
         sodipodi:type="inkscape:box3dside"
         id="path4201"
         style="fill:#353564;fill-rule:evenodd;stroke:none;stroke-width:1px;stroke-linecap:butt;stroke-linejoin:round;stroke-opacity:1"
         inkscape:box3dsidetype="6"
         d="m 216.7752,362.90964 0,287.92992 -65.83373,32.46591 0,-324.12195 z"
         points="216.7752,650.83956 150.94147,683.30547 150.94147,359.18352 216.7752,362.90964 " />
      <path
         sodipodi:type="inkscape:box3dside"
         id="path4205"
         style="fill:#8686bf;fill-rule:evenodd;stroke:none;stroke-width:1px;stroke-linecap:butt;stroke-linejoin:round;stroke-opacity:1"
         inkscape:box3dsidetype="3"
         d="m 216.7752,362.90964 76.79622,-10.33151 0,388.28058 -76.79622,-90.01915 z"
         points="293.57142,352.57813 293.57142,740.85871 216.7752,650.83956 216.7752,362.90964 " />
      <path
         sodipodi:type="inkscape:box3dside"
         id="path4203"
         style="fill:#4d4d9f;fill-rule:evenodd;stroke:none;stroke-width:1px;stroke-linecap:butt;stroke-linejoin:round;stroke-opacity:1"
         inkscape:box3dsidetype="5"
         d="m 216.7752,362.90964 76.79622,-10.33151 -79.23203,-7.08646 -63.39792,13.69185 z"
         points="293.57142,352.57813 214.33939,345.49167 150.94147,359.18352 216.7752,362.90964 " />
      <path
         sodipodi:type="inkscape:box3dside"
         id="path4207"
         style="fill:#d7d7ff;fill-rule:evenodd;stroke:none;stroke-width:1px;stroke-linecap:butt;stroke-linejoin:round;stroke-opacity:1"
         inkscape:box3dsidetype="14"
         d="m 293.57142,352.57813 0,388.28058 -79.23203,61.74482 0,-457.11186 z"
         points="293.57142,740.85871 214.33939,802.60353 214.33939,345.49167 293.57142,352.57813 " />
      <path
         sodipodi:type="inkscape:box3dside"
         id="path4211"
         style="fill:#e9e9ff;fill-rule:evenodd;stroke:none;stroke-width:1px;stroke-linecap:butt;stroke-linejoin:round;stroke-opacity:1"
         inkscape:box3dsidetype="11"
         d="m 150.94147,359.18352 63.39792,-13.69185 0,457.11186 -63.39792,-119.29806 z"
         points="214.33939,345.49167 214.33939,802.60353 150.94147,683.30547 150.94147,359.18352 " />
    </g>
    <g
       sodipodi:type="inkscape:box3d"
       id="g4138"
       style="opacity:1;fill:#000000;fill-opacity:1;stroke:none;stroke-width:15.19999981;stroke-linecap:round;stroke-linejoin:bevel;stroke-miterlimit:4;stroke-dasharray:none;stroke-dashoffset:0;stroke-opacity:1"
       inkscape:perspectiveID="#perspective4215"
       inkscape:corner0="-0.47047984 : 0.074486981 : 0 : 1"
       inkscape:corner7="-0.15306318 : 0.03321631 : -0.26026089 : 1">
      <path
         sodipodi:type="inkscape:box3dside"
         id="path4148"
         style="fill:#afafde;fill-rule:evenodd;stroke:none;stroke-width:1px;stroke-linecap:butt;stroke-linejoin:round;stroke-opacity:1"
         inkscape:box3dsidetype="13"
         d="M 549.75488,781.76979 286.42855,681.13997 151.20944,755.61147 509.65875,1041.299 Z"
         points="286.42855,681.13997 151.20944,755.61147 509.65875,1041.299 549.75488,781.76979 " />
      <path
         sodipodi:type="inkscape:box3dside"
         id="path4146"
         style="fill:#d7d7ff;fill-rule:evenodd;stroke:none;stroke-width:1px;stroke-linecap:butt;stroke-linejoin:round;stroke-opacity:1"
         inkscape:box3dsidetype="14"
         d="m 286.42855,632.41063 0,48.72934 -135.21911,74.4715 0,-70.34662 z"
         points="286.42855,681.13997 151.20944,755.61147 151.20944,685.26485 286.42855,632.41063 " />
      <path
         sodipodi:type="inkscape:box3dside"
         id="path4144"
         style="fill:#8686bf;fill-rule:evenodd;stroke:none;stroke-width:1px;stroke-linecap:butt;stroke-linejoin:round;stroke-opacity:1"
         inkscape:box3dsidetype="3"
         d="m 549.75488,703.83004 -263.32633,-71.41941 0,48.72934 263.32633,100.62982 z"
         points="286.42855,632.41063 286.42855,681.13997 549.75488,781.76979 549.75488,703.83004 " />
      <path
         sodipodi:type="inkscape:box3dside"
         id="path4142"
         style="fill:#4d4d9f;fill-rule:evenodd;stroke:none;stroke-width:1px;stroke-linecap:butt;stroke-linejoin:round;stroke-opacity:1"
         inkscape:box3dsidetype="5"
         d="M 549.75488,703.83004 286.42855,632.41063 151.20944,685.26485 509.65875,888.02418 Z"
         points="286.42855,632.41063 151.20944,685.26485 509.65875,888.02418 549.75488,703.83004 " />
      <path
         sodipodi:type="inkscape:box3dside"
         id="path4140"
         style="fill:#353564;fill-rule:evenodd;stroke:none;stroke-width:1px;stroke-linecap:butt;stroke-linejoin:round;stroke-opacity:1"
         inkscape:box3dsidetype="6"
         d="m 549.75488,703.83004 0,77.93975 -40.09613,259.52921 0,-153.27482 z"
         points="549.75488,781.76979 509.65875,1041.299 509.65875,888.02418 549.75488,703.83004 " />
      <path
         sodipodi:type="inkscape:box3dside"
         id="path4150"
         style="fill:#e9e9ff;fill-rule:evenodd;stroke:none;stroke-width:1px;stroke-linecap:butt;stroke-linejoin:round;stroke-opacity:1"
         inkscape:box3dsidetype="11"
         d="m 509.65875,888.02418 -358.44931,-202.75933 0,70.34662 358.44931,285.68753 z"
         points="151.20944,685.26485 151.20944,755.61147 509.65875,1041.299 509.65875,888.02418 " />
    </g>
    <g
       sodipodi:type="inkscape:box3d"
       id="g4259"
       style="opacity:1;fill:#000000;fill-opacity:1;stroke:none;stroke-width:15.19999981;stroke-linecap:round;stroke-linejoin:bevel;stroke-miterlimit:4;stroke-dasharray:none;stroke-dashoffset:0;stroke-opacity:1"
       inkscape:perspectiveID="#perspective4213"
       inkscape:corner0="0.32535908 : 0.11419962 : 0 : 1"
       inkscape:corner7="-0.24182515 : -0.14749332 : 0.25 : 1">
      <path
         sodipodi:type="inkscape:box3dside"
         id="path4269"
         style="fill:#afafde;fill-rule:evenodd;stroke:none;stroke-width:1px;stroke-linecap:butt;stroke-linejoin:round;stroke-opacity:1"
         inkscape:box3dsidetype="13"
         d="M 277.14286,636.1755 487.14285,818.42729 549.97426,712.82208 350.6785,597.51411 Z"
         points="487.14285,818.42729 549.97426,712.82208 350.6785,597.51411 277.14286,636.1755 " />
      <path
         sodipodi:type="inkscape:box3dside"
         id="path4261"
         style="fill:#353564;fill-rule:evenodd;stroke:none;stroke-width:1px;stroke-linecap:butt;stroke-linejoin:round;stroke-opacity:1"
         inkscape:box3dsidetype="6"
         d="m 277.14286,438.72491 0,197.45059 73.53564,-38.66139 0,-166.11637 z"
         points="277.14286,636.1755 350.6785,597.51411 350.6785,431.39774 277.14286,438.72491 " />
      <path
         sodipodi:type="inkscape:box3dside"
         id="path4271"
         style="fill:#e9e9ff;fill-rule:evenodd;stroke:none;stroke-width:1px;stroke-linecap:butt;stroke-linejoin:round;stroke-opacity:1"
         inkscape:box3dsidetype="11"
         d="m 350.6785,431.39774 199.29576,21.85336 0,259.57098 L 350.6785,597.51411 Z"
         points="549.97426,453.2511 549.97426,712.82208 350.6785,597.51411 350.6785,431.39774 " />
      <path
         sodipodi:type="inkscape:box3dside"
         id="path4263"
         style="fill:#4d4d9f;fill-rule:evenodd;stroke:none;stroke-width:1px;stroke-linecap:butt;stroke-linejoin:round;stroke-opacity:1"
         inkscape:box3dsidetype="5"
         d="M 277.14286,438.72491 487.14285,473.26557 549.97426,453.2511 350.6785,431.39774 Z"
         points="487.14285,473.26557 549.97426,453.2511 350.6785,431.39774 277.14286,438.72491 " />
      <path
         sodipodi:type="inkscape:box3dside"
         id="path4267"
         style="fill:#d7d7ff;fill-rule:evenodd;stroke:none;stroke-width:1px;stroke-linecap:butt;stroke-linejoin:round;stroke-opacity:1"
         inkscape:box3dsidetype="14"
         d="m 487.14285,473.26557 0,345.16172 62.83141,-105.60521 0,-259.57098 z"
         points="487.14285,818.42729 549.97426,712.82208 549.97426,453.2511 487.14285,473.26557 " />
      <path
         sodipodi:type="inkscape:box3dside"
         id="path4265"
         style="fill:#8686bf;fill-rule:evenodd;stroke:none;stroke-width:1px;stroke-linecap:butt;stroke-linejoin:round;stroke-opacity:1"
         inkscape:box3dsidetype="3"
         d="m 277.14286,438.72491 209.99999,34.54066 0,345.16172 L 277.14286,636.1755 Z"
         points="487.14285,473.26557 487.14285,818.42729 277.14286,636.1755 277.14286,438.72491 " />
    </g>
    <g
       sodipodi:type="inkscape:box3d"
       id="g4185"
       style="opacity:1;fill:#000000;fill-opacity:1;stroke:none;stroke-width:15.19999981;stroke-linecap:round;stroke-linejoin:bevel;stroke-miterlimit:4;stroke-dasharray:none;stroke-dashoffset:0;stroke-opacity:1"
       inkscape:perspectiveID="#perspective4136"
       inkscape:corner0="0.25087319 : 0.080029855 : 0 : 1"
       inkscape:corner7="-0.39492457 : 0.033299318 : -0.19219085 : 1">
      <path
         sodipodi:type="inkscape:box3dside"
         id="path4195"
         style="fill:#afafde;fill-rule:evenodd;stroke:none;stroke-width:1px;stroke-linecap:butt;stroke-linejoin:round;stroke-opacity:1"
         inkscape:box3dsidetype="13"
         d="M 231.71574,355.43508 549.16317,476.67634 489.01481,585.9892 150.62926,376.05706 Z"
         points="549.16317,476.67634 489.01481,585.9892 150.62926,376.05706 231.71574,355.43508 " />
      <path
         sodipodi:type="inkscape:box3dside"
         id="path4187"
         style="fill:#353564;fill-rule:evenodd;stroke:none;stroke-width:1px;stroke-linecap:butt;stroke-linejoin:round;stroke-opacity:1"
         inkscape:box3dsidetype="6"
         d="m 231.71574,318.07674 0,37.35834 -81.08648,20.62198 0,-44.14028 z"
         points="231.71574,355.43508 150.62926,376.05706 150.62926,331.91678 231.71574,318.07674 " />
      <path
         sodipodi:type="inkscape:box3dside"
         id="path4191"
         style="fill:#8686bf;fill-rule:evenodd;stroke:none;stroke-width:1px;stroke-linecap:butt;stroke-linejoin:round;stroke-opacity:1"
         inkscape:box3dsidetype="3"
         d="m 231.71574,318.07674 317.44743,81.36867 0,77.23093 -317.44743,-121.24126 z"
         points="549.16317,399.44541 549.16317,476.67634 231.71574,355.43508 231.71574,318.07674 " />
      <path
         sodipodi:type="inkscape:box3dside"
         id="path4189"
         style="fill:#4d4d9f;fill-rule:evenodd;stroke:none;stroke-width:1px;stroke-linecap:butt;stroke-linejoin:round;stroke-opacity:1"
         inkscape:box3dsidetype="5"
         d="M 231.71574,318.07674 549.16317,399.44541 489.01481,472.80857 150.62926,331.91678 Z"
         points="549.16317,399.44541 489.01481,472.80857 150.62926,331.91678 231.71574,318.07674 " />
      <path
         sodipodi:type="inkscape:box3dside"
         id="path4193"
         style="fill:#d7d7ff;fill-rule:evenodd;stroke:none;stroke-width:1px;stroke-linecap:butt;stroke-linejoin:round;stroke-opacity:1"
         inkscape:box3dsidetype="14"
         d="m 549.16317,399.44541 0,77.23093 -60.14836,109.31286 0,-113.18063 z"
         points="549.16317,476.67634 489.01481,585.9892 489.01481,472.80857 549.16317,399.44541 " />
      <path
         sodipodi:type="inkscape:box3dside"
         id="path4197"
         style="fill:#e9e9ff;fill-rule:evenodd;stroke:none;stroke-width:1px;stroke-linecap:butt;stroke-linejoin:round;stroke-opacity:1"
         inkscape:box3dsidetype="11"
         d="m 150.62926,331.91678 338.38555,140.89179 0,113.18063 -338.38555,-209.93214 z"
         points="489.01481,472.80857 489.01481,585.9892 150.62926,376.05706 150.62926,331.91678 " />
    </g>
  </g>
</svg>
