<?xml version="1.0" encoding="UTF-8" standalone="no"?>
<!-- Created with Inkscape (http://www.inkscape.org/) -->

<svg
   xmlns:dc="http://purl.org/dc/elements/1.1/"
   xmlns:cc="http://creativecommons.org/ns#"
   xmlns:rdf="http://www.w3.org/1999/02/22-rdf-syntax-ns#"
   xmlns:svg="http://www.w3.org/2000/svg"
   xmlns="http://www.w3.org/2000/svg"
   xmlns:sodipodi="http://sodipodi.sourceforge.net/DTD/sodipodi-0.dtd"
   xmlns:inkscape="http://www.inkscape.org/namespaces/inkscape"
   width="210mm"
   height="210mm"
   viewBox="0 0 744.09449 744.09448"
   id="svg2"
   version="1.1"
   inkscape:version="0.91 r13725"
   sodipodi:docname="logo.svg">
  <defs
     id="defs4">
    <inkscape:perspective
       sodipodi:type="inkscape:persp3d"
       inkscape:vp_x="-152.85715 : 543.09471 : 1"
       inkscape:vp_y="0 : 999.99996 : 0"
       inkscape:vp_z="591.23733 : 543.09471 : 1"
       inkscape:persp3d-origin="219.19009 : 367.70102 : 1"
       id="perspective4215" />
    <inkscape:perspective
       sodipodi:type="inkscape:persp3d"
       inkscape:vp_x="-3.5714286 : 663.80899 : 1"
       inkscape:vp_y="0 : 999.99996 : 0"
       inkscape:vp_z="740.52304 : 663.80899 : 1"
       inkscape:persp3d-origin="368.4758 : 488.41529 : 1"
       id="perspective4213" />
    <inkscape:perspective
       sodipodi:type="inkscape:persp3d"
       inkscape:vp_x="-65.71428 : 814.52323 : 1"
       inkscape:vp_y="0 : 999.99998 : 0"
       inkscape:vp_z="678.38021 : 814.52323 : 1"
       inkscape:persp3d-origin="306.33296 : 639.12959 : 1"
       id="perspective4136" />
  </defs>
  <sodipodi:namedview
     id="base"
     pagecolor="#ffffff"
     bordercolor="#666666"
     borderopacity="1.0"
     inkscape:pageopacity="0.0"
     inkscape:pageshadow="2"
     inkscape:zoom="0.24748737"
     inkscape:cx="-139.78561"
     inkscape:cy="83.740691"
     inkscape:document-units="px"
     inkscape:current-layer="layer1"
     showgrid="false"
     inkscape:window-width="1366"
     inkscape:window-height="709"
     inkscape:window-x="-4"
     inkscape:window-y="0"
     inkscape:window-maximized="1" />
  <metadata
     id="metadata7">
    <rdf:RDF>
      <cc:Work
         rdf:about="">
        <dc:format>image/svg+xml</dc:format>
        <dc:type
           rdf:resource="http://purl.org/dc/dcmitype/StillImage" />
        <dc:title />
      </cc:Work>
    </rdf:RDF>
  </metadata>
  <g
     inkscape:label="Calque 1"
     inkscape:groupmode="layer"
     id="layer1"
     transform="translate(0,-308.26772)">
    <g
       sodipodi:type="inkscape:box3d"
       id="g4199"
       style="opacity:1;fill:#000000;fill-opacity:1;stroke:none;stroke-width:15.19999981;stroke-linecap:round;stroke-linejoin:bevel;stroke-miterlimit:4;stroke-dasharray:none;stroke-dashoffset:0;stroke-opacity:1"
       inkscape:perspectiveID="#perspective4213"
       inkscape:corner0="0.68846346 : 0.22544579 : 0 : 1"
       inkscape:corner7="0.25208205 : -0.26071337 : -0.18853683 : 1">
      <path
         sodipodi:type="inkscape:box3dside"
         id="path4209"
         style="fill:#afafde;fill-rule:evenodd;stroke:none;stroke-width:1px;stroke-linecap:butt;stroke-linejoin:round;stroke-opacity:1"
         inkscape:box3dsidetype="13"
         d="m 216.7752,646.83956 76.79622,90.01915 -79.23203,61.74483 -63.39792,-119.29806 z"
         points="293.57142,736.85871 214.33939,798.60354 150.94147,679.30548 216.7752,646.83956 " />
      <path
         sodipodi:type="inkscape:box3dside"
         id="path4201"
         style="fill:#353564;fill-rule:evenodd;stroke:none;stroke-width:1px;stroke-linecap:butt;stroke-linejoin:round;stroke-opacity:1"
         inkscape:box3dsidetype="6"
         d="m 216.7752,358.90965 0,287.92991 -65.83373,32.46592 0,-324.12195 z"
         points="216.7752,646.83956 150.94147,679.30548 150.94147,355.18353 216.7752,358.90965 " />
      <path
         sodipodi:type="inkscape:box3dside"
         id="path4205"
         style="fill:#8686bf;fill-rule:evenodd;stroke:none;stroke-width:1px;stroke-linecap:butt;stroke-linejoin:round;stroke-opacity:1"
         inkscape:box3dsidetype="3"
         d="m 216.7752,358.90965 76.79622,-10.33151 0,388.28057 -76.79622,-90.01915 z"
         points="293.57142,348.57814 293.57142,736.85871 216.7752,646.83956 216.7752,358.90965 " />
      <path
         sodipodi:type="inkscape:box3dside"
         id="path4203"
         style="fill:#4d4d9f;fill-rule:evenodd;stroke:none;stroke-width:1px;stroke-linecap:butt;stroke-linejoin:round;stroke-opacity:1"
         inkscape:box3dsidetype="5"
         d="m 216.7752,358.90965 76.79622,-10.33151 -79.23203,-7.08647 -63.39792,13.69186 z"
         points="293.57142,348.57814 214.33939,341.49167 150.94147,355.18353 216.7752,358.90965 " />
      <path
         sodipodi:type="inkscape:box3dside"
         id="path4207"
         style="fill:#d7d7ff;fill-rule:evenodd;stroke:none;stroke-width:1px;stroke-linecap:butt;stroke-linejoin:round;stroke-opacity:1"
         inkscape:box3dsidetype="14"
         d="m 293.57142,348.57814 0,388.28057 -79.23203,61.74483 0,-457.11187 z"
         points="293.57142,736.85871 214.33939,798.60354 214.33939,341.49167 293.57142,348.57814 " />
      <path
         sodipodi:type="inkscape:box3dside"
         id="path4211"
         style="fill:#e9e9ff;fill-rule:evenodd;stroke:none;stroke-width:1px;stroke-linecap:butt;stroke-linejoin:round;stroke-opacity:1"
         inkscape:box3dsidetype="11"
         d="m 150.94147,355.18353 63.39792,-13.69186 0,457.11187 -63.39792,-119.29806 z"
         points="214.33939,341.49167 214.33939,798.60354 150.94147,679.30548 150.94147,355.18353 " />
    </g>
    <g
       sodipodi:type="inkscape:box3d"
       id="g4138"
       style="opacity:1;fill:#000000;fill-opacity:1;stroke:none;stroke-width:15.19999981;stroke-linecap:round;stroke-linejoin:bevel;stroke-miterlimit:4;stroke-dasharray:none;stroke-dashoffset:0;stroke-opacity:1"
       inkscape:perspectiveID="#perspective4215"
       inkscape:corner0="-0.47047984 : 0.074486981 : 0 : 1"
       inkscape:corner7="-0.15306318 : 0.03321631 : -0.26026089 : 1">
      <path
         sodipodi:type="inkscape:box3dside"
         id="path4148"
         style="fill:#afafde;fill-rule:evenodd;stroke:none;stroke-width:1px;stroke-linecap:butt;stroke-linejoin:round;stroke-opacity:1"
         inkscape:box3dsidetype="13"
         d="M 549.75488,777.7698 286.42855,677.13997 151.20944,751.61148 509.65875,1037.299 Z"
         points="286.42855,677.13997 151.20944,751.61148 509.65875,1037.299 549.75488,777.7698 " />
      <path
         sodipodi:type="inkscape:box3dside"
         id="path4146"
         style="fill:#d7d7ff;fill-rule:evenodd;stroke:none;stroke-width:1px;stroke-linecap:butt;stroke-linejoin:round;stroke-opacity:1"
         inkscape:box3dsidetype="14"
         d="m 286.42855,628.41064 0,48.72933 -135.21911,74.47151 0,-70.34662 z"
         points="286.42855,677.13997 151.20944,751.61148 151.20944,681.26486 286.42855,628.41064 " />
      <path
         sodipodi:type="inkscape:box3dside"
         id="path4144"
         style="fill:#8686bf;fill-rule:evenodd;stroke:none;stroke-width:1px;stroke-linecap:butt;stroke-linejoin:round;stroke-opacity:1"
         inkscape:box3dsidetype="3"
         d="m 549.75488,699.83005 -263.32633,-71.41941 0,48.72933 263.32633,100.62983 z"
         points="286.42855,628.41064 286.42855,677.13997 549.75488,777.7698 549.75488,699.83005 " />
      <path
         sodipodi:type="inkscape:box3dside"
         id="path4142"
         style="fill:#4d4d9f;fill-rule:evenodd;stroke:none;stroke-width:1px;stroke-linecap:butt;stroke-linejoin:round;stroke-opacity:1"
         inkscape:box3dsidetype="5"
         d="M 549.75488,699.83005 286.42855,628.41064 151.20944,681.26486 509.65875,884.02418 Z"
         points="286.42855,628.41064 151.20944,681.26486 509.65875,884.02418 549.75488,699.83005 " />
      <path
         sodipodi:type="inkscape:box3dside"
         id="path4140"
         style="fill:#353564;fill-rule:evenodd;stroke:none;stroke-width:1px;stroke-linecap:butt;stroke-linejoin:round;stroke-opacity:1"
         inkscape:box3dsidetype="6"
         d="m 549.75488,699.83005 0,77.93975 -40.09613,259.5292 0,-153.27482 z"
         points="549.75488,777.7698 509.65875,1037.299 509.65875,884.02418 549.75488,699.83005 " />
      <path
         sodipodi:type="inkscape:box3dside"
         id="path4150"
         style="fill:#e9e9ff;fill-rule:evenodd;stroke:none;stroke-width:1px;stroke-linecap:butt;stroke-linejoin:round;stroke-opacity:1"
         inkscape:box3dsidetype="11"
         d="m 509.65875,884.02418 -358.44931,-202.75932 0,70.34662 358.44931,285.68752 z"
         points="151.20944,681.26486 151.20944,751.61148 509.65875,1037.299 509.65875,884.02418 " />
    </g>
    <g
       sodipodi:type="inkscape:box3d"
       id="g4259"
       style="opacity:1;fill:#000000;fill-opacity:1;stroke:none;stroke-width:15.19999981;stroke-linecap:round;stroke-linejoin:bevel;stroke-miterlimit:4;stroke-dasharray:none;stroke-dashoffset:0;stroke-opacity:1"
       inkscape:perspectiveID="#perspective4213"
       inkscape:corner0="0.32535908 : 0.11419962 : 0 : 1"
       inkscape:corner7="-0.24182515 : -0.14749332 : 0.25 : 1">
      <path
         sodipodi:type="inkscape:box3dside"
         id="path4269"
         style="fill:#afafde;fill-rule:evenodd;stroke:none;stroke-width:1px;stroke-linecap:butt;stroke-linejoin:round;stroke-opacity:1"
         inkscape:box3dsidetype="13"
         d="M 277.14286,632.17551 487.14285,814.42729 549.97426,708.82208 350.6785,593.51412 Z"
         points="487.14285,814.42729 549.97426,708.82208 350.6785,593.51412 277.14286,632.17551 " />
      <path
         sodipodi:type="inkscape:box3dside"
         id="path4261"
         style="fill:#353564;fill-rule:evenodd;stroke:none;stroke-width:1px;stroke-linecap:butt;stroke-linejoin:round;stroke-opacity:1"
         inkscape:box3dsidetype="6"
         d="m 277.14286,434.72492 0,197.45059 73.53564,-38.66139 0,-166.11637 z"
         points="277.14286,632.17551 350.6785,593.51412 350.6785,427.39775 277.14286,434.72492 " />
      <path
         sodipodi:type="inkscape:box3dside"
         id="path4271"
         style="fill:#e9e9ff;fill-rule:evenodd;stroke:none;stroke-width:1px;stroke-linecap:butt;stroke-linejoin:round;stroke-opacity:1"
         inkscape:box3dsidetype="11"
         d="m 350.6785,427.39775 199.29576,21.85335 0,259.57098 L 350.6785,593.51412 Z"
         points="549.97426,449.2511 549.97426,708.82208 350.6785,593.51412 350.6785,427.39775 " />
      <path
         sodipodi:type="inkscape:box3dside"
         id="path4263"
         style="fill:#4d4d9f;fill-rule:evenodd;stroke:none;stroke-width:1px;stroke-linecap:butt;stroke-linejoin:round;stroke-opacity:1"
         inkscape:box3dsidetype="5"
         d="M 277.14286,434.72492 487.14285,469.26558 549.97426,449.2511 350.6785,427.39775 Z"
         points="487.14285,469.26558 549.97426,449.2511 350.6785,427.39775 277.14286,434.72492 " />
      <path
         sodipodi:type="inkscape:box3dside"
         id="path4267"
         style="fill:#d7d7ff;fill-rule:evenodd;stroke:none;stroke-width:1px;stroke-linecap:butt;stroke-linejoin:round;stroke-opacity:1"
         inkscape:box3dsidetype="14"
         d="m 487.14285,469.26558 0,345.16171 62.83141,-105.60521 0,-259.57098 z"
         points="487.14285,814.42729 549.97426,708.82208 549.97426,449.2511 487.14285,469.26558 " />
      <path
         sodipodi:type="inkscape:box3dside"
         id="path4265"
         style="fill:#8686bf;fill-rule:evenodd;stroke:none;stroke-width:1px;stroke-linecap:butt;stroke-linejoin:round;stroke-opacity:1"
         inkscape:box3dsidetype="3"
         d="m 277.14286,434.72492 209.99999,34.54066 0,345.16171 -209.99999,-182.25178 z"
         points="487.14285,469.26558 487.14285,814.42729 277.14286,632.17551 277.14286,434.72492 " />
    </g>
    <g
       sodipodi:type="inkscape:box3d"
       id="g4185"
       style="opacity:1;fill:#000000;fill-opacity:1;stroke:none;stroke-width:15.19999981;stroke-linecap:round;stroke-linejoin:bevel;stroke-miterlimit:4;stroke-dasharray:none;stroke-dashoffset:0;stroke-opacity:1"
       inkscape:perspectiveID="#perspective4136"
       inkscape:corner0="0.25087319 : 0.080029855 : 0 : 1"
       inkscape:corner7="-0.39492457 : 0.033299318 : -0.19219085 : 1">
      <path
         sodipodi:type="inkscape:box3dside"
         id="path4195"
         style="fill:#afafde;fill-rule:evenodd;stroke:none;stroke-width:1px;stroke-linecap:butt;stroke-linejoin:round;stroke-opacity:1"
         inkscape:box3dsidetype="13"
         d="M 231.71574,351.43508 549.16317,472.67635 489.01481,581.98921 150.62926,372.05707 Z"
         points="549.16317,472.67635 489.01481,581.98921 150.62926,372.05707 231.71574,351.43508 " />
      <path
         sodipodi:type="inkscape:box3dside"
         id="path4187"
         style="fill:#353564;fill-rule:evenodd;stroke:none;stroke-width:1px;stroke-linecap:butt;stroke-linejoin:round;stroke-opacity:1"
         inkscape:box3dsidetype="6"
         d="m 231.71574,314.07675 0,37.35833 -81.08648,20.62199 0,-44.14028 z"
         points="231.71574,351.43508 150.62926,372.05707 150.62926,327.91679 231.71574,314.07675 " />
      <path
         sodipodi:type="inkscape:box3dside"
         id="path4191"
         style="fill:#8686bf;fill-rule:evenodd;stroke:none;stroke-width:1px;stroke-linecap:butt;stroke-linejoin:round;stroke-opacity:1"
         inkscape:box3dsidetype="3"
         d="m 231.71574,314.07675 317.44743,81.36867 0,77.23093 -317.44743,-121.24127 z"
         points="549.16317,395.44542 549.16317,472.67635 231.71574,351.43508 231.71574,314.07675 " />
      <path
         sodipodi:type="inkscape:box3dside"
         id="path4189"
         style="fill:#4d4d9f;fill-rule:evenodd;stroke:none;stroke-width:1px;stroke-linecap:butt;stroke-linejoin:round;stroke-opacity:1"
         inkscape:box3dsidetype="5"
         d="M 231.71574,314.07675 549.16317,395.44542 489.01481,468.80858 150.62926,327.91679 Z"
         points="549.16317,395.44542 489.01481,468.80858 150.62926,327.91679 231.71574,314.07675 " />
      <path
         sodipodi:type="inkscape:box3dside"
         id="path4193"
         style="fill:#d7d7ff;fill-rule:evenodd;stroke:none;stroke-width:1px;stroke-linecap:butt;stroke-linejoin:round;stroke-opacity:1"
         inkscape:box3dsidetype="14"
         d="m 549.16317,395.44542 0,77.23093 -60.14836,109.31286 0,-113.18063 z"
         points="549.16317,472.67635 489.01481,581.98921 489.01481,468.80858 549.16317,395.44542 " />
      <path
         sodipodi:type="inkscape:box3dside"
         id="path4197"
         style="fill:#e9e9ff;fill-rule:evenodd;stroke:none;stroke-width:1px;stroke-linecap:butt;stroke-linejoin:round;stroke-opacity:1"
         inkscape:box3dsidetype="11"
         d="m 150.62926,327.91679 338.38555,140.89179 0,113.18063 -338.38555,-209.93214 z"
         points="489.01481,468.80858 489.01481,581.98921 150.62926,372.05707 150.62926,327.91679 " />
    </g>
  </g>
</svg>
