<?xml version="1.0" encoding="UTF-8" standalone="no"?>
<svg
   xmlns:dc="http://purl.org/dc/elements/1.1/"
   xmlns:cc="http://creativecommons.org/ns#"
   xmlns:rdf="http://www.w3.org/1999/02/22-rdf-syntax-ns#"
   xmlns:svg="http://www.w3.org/2000/svg"
   xmlns="http://www.w3.org/2000/svg"
   xmlns:sodipodi="http://sodipodi.sourceforge.net/DTD/sodipodi-0.dtd"
   xmlns:inkscape="http://www.inkscape.org/namespaces/inkscape"
   version="1.1"
   x="0px"
   y="0px"
   viewBox="0 0 100 125"
   style="enable-background:new 0 0 100 100;"
   xml:space="preserve"
   id="svg2"
   inkscape:version="0.91 r13725"
   sodipodi:docname="noun_178785_cc.svg"><metadata
     id="metadata28"><rdf:RDF><cc:Work
         rdf:about=""><dc:format>image/svg+xml</dc:format><dc:type
           rdf:resource="http://purl.org/dc/dcmitype/StillImage" /></cc:Work></rdf:RDF></metadata><defs
     id="defs26" /><sodipodi:namedview
     pagecolor="#ffffff"
     bordercolor="#666666"
     borderopacity="1"
     objecttolerance="10"
     gridtolerance="10"
     guidetolerance="10"
     inkscape:pageopacity="0"
     inkscape:pageshadow="2"
     inkscape:window-width="743"
     inkscape:window-height="480"
     id="namedview24"
     showgrid="false"
     inkscape:zoom="1.888"
     inkscape:cx="58.142293"
     inkscape:cy="62.5"
     inkscape:window-x="0"
     inkscape:window-y="0"
     inkscape:window-maximized="0"
     inkscape:current-layer="svg2" /><path
     d="m 47.7,96 c 4.6,0 8.6,-1.4 11.5,-4.3 l 9.3,-9.3 c 3,-3 4.5,-7.4 4.3,-12.6 -0.1,-1.1 -1,-1.9 -2.1,-1.9 -1.1,0.1 -2,1 -1.9,2.1 0.2,4 -0.9,7.3 -3.1,9.6 -6.7,6.7 -22.4,2.1 -34.4,-9.9 -12,-12 -16.5,-27.8 -9.9,-34.4 5.6,-5.6 17.8,-3.5 29,5.1 0.9,0.7 2.1,0.5 2.8,-0.4 0.7,-0.9 0.5,-2.1 -0.4,-2.8 -13,-10 -27.1,-11.9 -34.3,-4.8 L 9.2,41.7 C 0.7,50.2 5.1,67.8 19.1,81.8 28.3,90.9 39.1,96 47.7,96 Z M 12.2,65.3 18.5,59 c 0.7,1.4 1.6,2.9 2.5,4.3 l -6.4,6.4 c -0.9,-1.5 -1.7,-2.9 -2.4,-4.4 z m -2.8,-8.5 5.9,-5.9 c 0.4,1.4 0.8,2.8 1.4,4.2 l -6.2,6.2 C 10,59.8 9.7,58.3 9.4,56.8 Z m 14,9.8 c 1.1,1.5 2.4,2.9 3.7,4.4 l -6.5,6.5 C 19.3,76.1 18,74.6 16.9,73.1 l 6.5,-6.5 z m 10.8,10.8 -6.5,6.5 c -1.5,-1.1 -2.9,-2.3 -4.3,-3.6 l 6.5,-6.5 c 1.5,1.3 2.9,2.5 4.3,3.6 z m 7.6,5 -6.4,6.4 C 33.9,88.1 32.5,87.3 31,86.3 l 6.4,-6.4 c 1.6,0.9 3,1.7 4.4,2.5 z m -2.3,8 6.2,-6.2 c 1.4,0.6 2.8,1 4.2,1.4 l -6,6 C 43.2,91.5 42.5,91.3 41.8,91.1 41,90.9 40.2,90.6 39.5,90.4 Z m 19.2,-3.9 -2.3,2.3 c -1.8,1.8 -4.2,2.8 -7.2,3.1 l 5.4,-5.4 c 0.8,0.1 1.7,0.1 2.5,0.1 0.5,0 1.1,0 1.6,-0.1 z M 14.4,46.1 9.1,51.4 c 0.3,-2.8 1.2,-5.2 3,-6.9 l 2.3,-2.3 c -0.1,1.3 -0.1,2.6 0,3.9 z"
     id="path4"
     inkscape:connector-curvature="0" /><path
     d="M 98.4,52.7 79.7,33.8 c -0.8,-0.8 -2,-0.8 -2.8,0 -0.4,0.4 -0.6,1 -0.6,1.6 0,0.1 0,0.1 0,0.2 l 0,9.6 -6.4,0 c -1.1,0 -2,0.9 -2,2 0,1.1 0.9,2 2,2 l 8.4,0 c 1.1,0 2,-0.9 2,-2 l 0,-7.1 13.9,14 -13.9,14 0,-6.7 c 0,-1.1 -0.9,-2 -2,-2 l -8.4,0 c -1.1,0 -2,0.9 -2,2 0,1.1 0.9,2 2,2 l 6.4,0 0,9.6 c 0,0 0,0 0,0 0,0.1 0,0.3 0,0.4 0,0.1 0,0.1 0.1,0.2 0,0.1 0,0.1 0.1,0.2 0,0.1 0.1,0.1 0.1,0.2 0,0 0,0.1 0.1,0.1 0.1,0.1 0.2,0.2 0.3,0.3 l 0,0 c 0,0 0,0 0,0 0.1,0.1 0.2,0.2 0.3,0.2 0,0 0.1,0.1 0.1,0.1 0.1,0 0.1,0.1 0.2,0.1 0.1,0 0.1,0 0.2,0.1 0.1,0 0.1,0 0.2,0.1 0.1,0 0.3,0 0.4,0 0.1,0 0.3,0 0.4,0 0.1,0 0.1,0 0.2,-0.1 0.1,0 0.1,0 0.2,-0.1 0.1,0 0.1,-0.1 0.2,-0.1 0.1,0 0.1,0 0.2,-0.1 0.1,-0.1 0.2,-0.2 0.3,-0.3 l 0,0 18.7,-18.8 c 0.6,-0.8 0.6,-2.1 -0.2,-2.8 z"
     id="path6"
     inkscape:connector-curvature="0" /><path
     d="m 63.1,59.3 -4.2,0 c -1.1,0 -2,0.9 -2,2 0,1.1 0.9,2 2,2 l 4.2,0 c 1.1,0 2,-0.9 2,-2 0,-1.1 -0.9,-2 -2,-2 z"
     id="path8"
     inkscape:connector-curvature="0" /><path
     d="m 63.1,45.2 -4.2,0 c -1.1,0 -2,0.9 -2,2 0,1.1 0.9,2 2,2 l 4.2,0 c 1.1,0 2,-0.9 2,-2 0,-1.1 -0.9,-2 -2,-2 z"
     id="path10"
     inkscape:connector-curvature="0" /><path
     d="m 49.5,59.3 -1.8,0 c -1.1,0 -2,0.9 -2,2 0,1.1 0.9,2 2,2 l 1.8,0 c 1.1,0 2,-0.9 2,-2 0,-1.1 -0.9,-2 -2,-2 z"
     id="path12"
     inkscape:connector-curvature="0" /><path
     d="m 49.5,45.2 -1.8,0 c -1.1,0 -2,0.9 -2,2 0,1.1 0.9,2 2,2 l 1.8,0 c 1.1,0 2,-0.9 2,-2 0,-1.1 -0.9,-2 -2,-2 z"
     id="path14"
     inkscape:connector-curvature="0" /><path
     d="m 36.7,59.3 -0.2,0 c -1.1,0 -2,0.9 -2,2 0,1.1 0.9,2 2,2 l 0.2,0 c 1.1,0 2,-0.9 2,-2 0,-1.1 -0.9,-2 -2,-2 z"
     id="path16"
     inkscape:connector-curvature="0" /><path
     d="m 36.7,45.2 -0.2,0 c -1.1,0 -2,0.9 -2,2 0,1.1 0.9,2 2,2 l 0.2,0 c 1.1,0 2,-0.9 2,-2 0,-1.1 -0.9,-2 -2,-2 z"
     id="path18"
     inkscape:connector-curvature="0" /></svg>