<?xml version="1.0" encoding="UTF-8" standalone="no"?>
<svg
   xmlns:dc="http://purl.org/dc/elements/1.1/"
   xmlns:cc="http://creativecommons.org/ns#"
   xmlns:rdf="http://www.w3.org/1999/02/22-rdf-syntax-ns#"
   xmlns:svg="http://www.w3.org/2000/svg"
   xmlns="http://www.w3.org/2000/svg"
   xmlns:sodipodi="http://sodipodi.sourceforge.net/DTD/sodipodi-0.dtd"
   xmlns:inkscape="http://www.inkscape.org/namespaces/inkscape"
   version="1.1"
   x="0px"
   y="0px"
   viewBox="0 0 100 125"
   enable-background="new 0 0 100 100"
   xml:space="preserve"
   id="svg2"
   inkscape:version="0.91 r13725"
   sodipodi:docname="noun_87601_cc.svg"><metadata
     id="metadata16"><rdf:RDF><cc:Work
         rdf:about=""><dc:format>image/svg+xml</dc:format><dc:type
           rdf:resource="http://purl.org/dc/dcmitype/StillImage" /></cc:Work></rdf:RDF></metadata><defs
     id="defs14" /><sodipodi:namedview
     pagecolor="#ffffff"
     bordercolor="#666666"
     borderopacity="1"
     objecttolerance="10"
     gridtolerance="10"
     guidetolerance="10"
     inkscape:pageopacity="0"
     inkscape:pageshadow="2"
     inkscape:window-width="1366"
     inkscape:window-height="712"
     id="namedview12"
     showgrid="false"
     inkscape:zoom="1.888"
     inkscape:cx="50"
     inkscape:cy="62.5"
     inkscape:window-x="0"
     inkscape:window-y="0"
     inkscape:window-maximized="1"
     inkscape:current-layer="svg2" /><path
     d="m 0.83531061,26.711164 c 0,4.97582 1.74826129,9.682677 5.11030139,13.448161 l 0,15.599867 c 0,5.513746 4.572376,10.086122 10.086122,10.086122 l 6.993044,0 c 1.479297,13.179198 12.775753,23.534282 26.492877,23.534282 13.717126,0 25.01358,-10.355084 26.62736,-23.534282 l 6.993044,0 c 1.882743,0 3.36204,1.479297 3.36204,3.36204 l 0,15.465385 c -3.227559,3.765486 -5.110301,8.472342 -5.110301,13.448166 l 0,24.879095 16.810202,0 0,-24.74462 c 0,-4.975817 -1.748261,-9.682673 -5.110301,-13.448158 l 0,-15.599868 c 0,-5.513746 -4.572375,-10.086121 -10.086121,-10.086121 l -6.993045,0 C 74.531235,45.942035 63.234781,35.58695 49.517655,35.58695 c -13.717124,0 -25.01358,10.355085 -26.62736,23.534283 l -6.993044,0 c -1.882742,0 -3.36204,-1.479297 -3.36204,-3.362041 l 0,-15.465385 c 3.227559,-3.765485 5.110302,-8.472342 5.110302,-13.448162 l 0,-24.8790979 -16.81020239,0 0,24.7446169 z M 88.248361,98.25538 c 0,-2.420666 0.537926,-4.572372 1.748261,-6.589597 1.075853,2.017225 1.74826,4.303412 1.74826,6.589597 l 0,7.93442 -3.36204,0 0,-7.93442 z m 0,14.6585 3.36204,0 0,3.36204 -3.36204,0 0,-3.36204 z M 49.517655,42.311031 c 11.161975,0 20.172242,9.010268 20.172242,20.172243 0,11.161973 -9.010267,20.172242 -20.172242,20.172242 -11.161973,0 -20.172242,-9.010269 -20.172242,-20.172242 0,-11.161975 9.010269,-20.172243 20.172242,-20.172243 z M 7.5593909,8.6906274 l 3.3620411,0 0,3.3620406 -3.3620411,0 0,-3.3620406 z m 0,10.0861206 3.3620411,0 0,7.934416 c 0,2.420669 -0.537927,4.572375 -1.748261,6.589599 C 8.097318,31.283539 7.4249098,28.997351 7.4249098,26.711164 l 0,-7.934416 z"
     id="path4"
     inkscape:connector-curvature="0"
     style="fill:#d40000" /><polygon
     points="46.5,50 41.2,55.3 44.7,58.8 50,53.5 55.3,58.8 58.8,55.3 53.5,50 58.8,44.7 55.3,41.2 50,46.5 44.7,41.2 41.2,44.7 "
     id="polygon6"
     transform="matrix(1.3448162,0,0,1.3448162,-17.723152,-4.7575344)"
     style="fill:#d40000" /></svg>