<?xml version="1.0" encoding="UTF-8" standalone="no"?>
<svg
   xmlns:dc="http://purl.org/dc/elements/1.1/"
   xmlns:cc="http://creativecommons.org/ns#"
   xmlns:rdf="http://www.w3.org/1999/02/22-rdf-syntax-ns#"
   xmlns:svg="http://www.w3.org/2000/svg"
   xmlns="http://www.w3.org/2000/svg"
   xmlns:sodipodi="http://sodipodi.sourceforge.net/DTD/sodipodi-0.dtd"
   xmlns:inkscape="http://www.inkscape.org/namespaces/inkscape"
   version="1.0"
   id="Layer_1"
   x="0px"
   y="0px"
   width="100px"
   height="100px"
   viewBox="5.0 -10.0 100.0 135.0"
   enable-background="new 0 0 100 100"
   xml:space="preserve"
   inkscape:version="0.48.5 r10040"
   sodipodi:docname="noun_22441_cc.svg"><metadata
     id="metadata190"><rdf:RDF><cc:Work
         rdf:about=""><dc:format>image/svg+xml</dc:format><dc:type
           rdf:resource="http://purl.org/dc/dcmitype/StillImage" /></cc:Work></rdf:RDF></metadata><defs
     id="defs188" /><sodipodi:namedview
     pagecolor="#ffffff"
     bordercolor="#666666"
     borderopacity="1"
     objecttolerance="10"
     gridtolerance="10"
     guidetolerance="10"
     inkscape:pageopacity="0"
     inkscape:pageshadow="2"
     inkscape:window-width="640"
     inkscape:window-height="480"
     id="namedview186"
     showgrid="false"
     inkscape:zoom="1.668772"
     inkscape:cx="56.66954"
     inkscape:cy="70.869906"
     inkscape:window-x="0"
     inkscape:window-y="27"
     inkscape:window-maximized="0"
     inkscape:current-layer="Layer_1" /><g
     id="g102"
     transform="translate(4.8538692,7.2808029)"><g
       id="g104"><path
         d="M 49.946,17.395"
         id="path106"
         inkscape:connector-curvature="0" /><path
         d="m 49.944,6.356 c -1.424,0 -2.576,-1.147 -2.576,-2.574 -0.001,-1.42 1.152,-2.578 2.576,-2.578 1.424,0 2.577,1.158 2.577,2.578 0,1.427 -1.153,2.574 -2.577,2.574 z"
         id="path108"
         inkscape:connector-curvature="0" /><polygon
         points="47.791,7.39 41.771,1.164 40.751,1.602 47.114,11.026 47.067,17.411 45.201,32.946 46.95,32.946 50.001,20.032 53.053,32.946 54.801,32.946 52.935,17.411 52.887,11.026 59.251,1.602 58.23,1.164 52.212,7.39 50.004,7.39 49.998,7.39 "
         id="polygon110" /></g></g><g
     id="g112"
     transform="translate(4.8538692,7.2808029)"><g
       id="g114"><path
         d="M 50.058,82.604"
         id="path116"
         inkscape:connector-curvature="0" /><path
         d="m 50.058,93.644 c 1.421,0 2.576,1.147 2.576,2.573 0,1.42 -1.153,2.58 -2.576,2.58 -1.427,0 -2.579,-1.16 -2.579,-2.58 0,-1.426 1.152,-2.573 2.579,-2.573 z"
         id="path118"
         inkscape:connector-curvature="0" /><polygon
         points="52.212,92.61 58.23,98.837 59.251,98.396 52.887,88.973 52.935,82.588 54.801,67.053 53.053,67.053 50.001,79.969 46.95,67.053 45.201,67.053 47.067,82.588 47.114,88.973 40.751,98.396 41.771,98.837 47.791,92.61 49.998,92.61 50.004,92.61 "
         id="polygon120" /></g></g><g
     id="g122"
     transform="translate(4.8538692,7.2808029)"><g
       id="g124"><path
         d="M 26.906,26.984"
         id="path126"
         inkscape:connector-curvature="0" /><path
         d="m 19.101,19.181 c -1.006,1.005 -2.634,1.009 -3.643,0 -1.005,-1.004 -1.008,-2.638 -0.002,-3.645 1.009,-1.009 2.644,-1.005 3.647,0 1.008,1.009 1.005,2.636 -0.002,3.645 z"
         id="path128"
         inkscape:connector-curvature="0" /><polygon
         points="18.308,21.432 9.649,21.286 9.236,22.317 20.4,24.482 24.883,29.031 34.548,41.337 35.784,40.1 28.811,28.809 40.1,35.783 41.337,34.547 29.032,24.882 24.483,20.399 22.318,9.236 21.287,9.648 21.433,18.307 19.872,19.868 19.868,19.871 "
         id="polygon130" /></g></g><g
     id="g132"
     transform="translate(4.8538692,7.2808029)"><g
       id="g134"><path
         d="M 73.095,73.017"
         id="path136"
         inkscape:connector-curvature="0" /><path
         d="m 80.898,80.819 c 1.008,-1.005 2.636,-1.01 3.645,-0.002 1.005,1.006 1.007,2.641 0.002,3.647 -1.009,1.006 -2.643,1.003 -3.648,-0.002 -1.009,-1.006 -1.005,-2.634 10e-4,-3.643 z"
         id="path138"
         inkscape:connector-curvature="0" /><polygon
         points="81.693,78.567 90.354,78.714 90.762,77.683 79.6,75.518 75.116,70.968 65.452,58.665 64.215,59.901 71.19,71.189 59.9,64.216 58.665,65.453 70.968,75.117 75.517,79.6 77.682,90.763 78.715,90.352 78.568,81.693 80.128,80.133 80.132,80.129 "
         id="polygon140" /></g></g><g
     id="g142"
     transform="translate(4.8538692,7.2808029)"><g
       id="g144"><path
         d="M 17.395,50.056"
         id="path146"
         inkscape:connector-curvature="0" /><path
         d="m 6.357,50.058 c 0,1.422 -1.148,2.575 -2.574,2.575 -1.421,10e-4 -2.579,-1.153 -2.578,-2.575 0,-1.427 1.157,-2.58 2.578,-2.58 1.426,0 2.574,1.153 2.574,2.58 z"
         id="path148"
         inkscape:connector-curvature="0" /><polygon
         points="7.39,52.21 1.164,58.229 1.603,59.249 11.026,52.888 17.411,52.934 32.947,54.8 32.947,53.05 20.032,49.999 32.947,46.949 32.947,45.201 17.412,47.066 11.026,47.113 1.603,40.75 1.164,41.771 7.39,47.789 7.39,49.998 7.39,50.003 "
         id="polygon150" /></g></g><g
     id="g152"
     transform="translate(4.8538692,7.2808029)"><g
       id="g154"><path
         d="M 82.604,49.945"
         id="path156"
         inkscape:connector-curvature="0" /><path
         d="m 93.641,49.943 c 0.002,-1.423 1.149,-2.577 2.575,-2.576 1.421,-10e-4 2.581,1.152 2.581,2.576 0,1.425 -1.16,2.578 -2.581,2.578 -1.426,0 -2.573,-1.153 -2.575,-2.578 z"
         id="path158"
         inkscape:connector-curvature="0" /><polygon
         points="92.611,47.79 98.837,41.771 98.398,40.75 88.974,47.113 82.587,47.066 67.052,45.201 67.052,46.949 79.968,49.999 67.052,53.05 67.052,54.8 82.587,52.934 88.974,52.888 98.398,59.249 98.837,58.229 92.611,52.21 92.611,50.003 92.611,49.998 "
         id="polygon160" /></g></g><g
     id="g162"
     transform="translate(4.8538692,7.2808029)"><g
       id="g164"><path
         d="M 26.984,73.096"
         id="path166"
         inkscape:connector-curvature="0" /><path
         d="m 19.181,80.899 c 1.005,1.007 1.01,2.636 10e-4,3.644 -1.004,1.004 -2.639,1.008 -3.646,10e-4 -1.008,-1.008 -1.005,-2.642 0,-3.647 1.009,-1.009 2.636,-1.004 3.645,0.002 z"
         id="path168"
         inkscape:connector-curvature="0" /><polygon
         points="21.432,81.692 21.287,90.352 22.318,90.763 24.482,79.6 29.031,75.117 41.337,65.453 40.1,64.216 28.809,71.191 35.784,59.901 34.548,58.665 24.882,70.968 20.399,75.518 9.236,77.683 9.649,78.714 18.307,78.567 19.868,80.129 19.872,80.133 "
         id="polygon170" /></g></g><g
     id="g172"
     transform="translate(4.8538692,7.2808029)"><g
       id="g174"><path
         d="M 73.017,26.905"
         id="path176"
         inkscape:connector-curvature="0" /><path
         d="m 80.818,19.1 c -1.005,-1.005 -1.009,-2.634 0,-3.642 1.004,-1.006 2.64,-1.009 3.646,-0.002 1.007,1.009 1.003,2.644 0,3.647 -1.008,1.008 -2.636,1.004 -3.646,-0.003 z"
         id="path178"
         inkscape:connector-curvature="0" /><polygon
         points="78.568,18.307 78.715,9.648 77.682,9.236 75.517,20.399 70.968,24.883 58.665,34.548 59.9,35.783 71.19,28.811 64.215,40.1 65.452,41.337 75.116,29.031 79.6,24.482 90.762,22.318 90.352,21.286 81.693,21.433 80.132,19.871 80.128,19.868 "
         id="polygon180" /></g></g></svg>