<?xml version="1.0" encoding="UTF-8" standalone="no"?>
<svg
   xmlns:dc="http://purl.org/dc/elements/1.1/"
   xmlns:cc="http://creativecommons.org/ns#"
   xmlns:rdf="http://www.w3.org/1999/02/22-rdf-syntax-ns#"
   xmlns:svg="http://www.w3.org/2000/svg"
   xmlns="http://www.w3.org/2000/svg"
   xmlns:sodipodi="http://sodipodi.sourceforge.net/DTD/sodipodi-0.dtd"
   xmlns:inkscape="http://www.inkscape.org/namespaces/inkscape"
   version="1.1"
   id="Layer_1"
   x="0px"
   y="0px"
   width="100px"
   height="100px"
   viewBox="5.0 -10.0 100.0 135.0"
   enable-background="new 0 0 100 100"
   xml:space="preserve"
   inkscape:version="0.48.5 r10040"
   sodipodi:docname="noun_63271_cc.svg"><metadata
     id="metadata23"><rdf:RDF><cc:Work
         rdf:about=""><dc:format>image/svg+xml</dc:format><dc:type
           rdf:resource="http://purl.org/dc/dcmitype/StillImage" /></cc:Work></rdf:RDF></metadata><defs
     id="defs21" /><sodipodi:namedview
     pagecolor="#ffffff"
     bordercolor="#666666"
     borderopacity="1"
     objecttolerance="10"
     gridtolerance="10"
     guidetolerance="10"
     inkscape:pageopacity="0"
     inkscape:pageshadow="2"
     inkscape:window-width="640"
     inkscape:window-height="480"
     id="namedview19"
     showgrid="false"
     inkscape:zoom="2.36"
     inkscape:cx="50"
     inkscape:cy="55.110775"
     inkscape:window-x="0"
     inkscape:window-y="27"
     inkscape:window-maximized="0"
     inkscape:current-layer="Layer_1" /><g
     id="g3"
     transform="matrix(1.216319,0,0,1.216319,-4.5137983,-2.5214573)"><polygon
       points="59.878,16.945 83.293,40.361 59.876,63.777 71.584,63.777 94.998,40.361 95,40.361 71.584,16.947 "
       id="polygon5" /><polygon
       points="41.901,44.5 41.899,44.502 50.178,36.224 83.293,36.224 83.293,40.361 83.293,44.501 "
       id="polygon7" /></g><g
     id="g9"
     transform="matrix(1.216319,0,0,1.216319,-4.5137983,-2.5214573)"><polygon
       points="40.123,83.055 16.709,59.639 40.125,36.224 28.416,36.224 5.002,59.639 5,59.639 28.416,83.053 "
       id="polygon11" /><polygon
       points="58.099,55.5 58.101,55.498 49.822,63.777 16.707,63.777 16.707,59.639 16.707,55.498 "
       id="polygon13" /></g></svg>