<?xml version="1.0" encoding="UTF-8" standalone="no"?>
<svg
   xmlns:dc="http://purl.org/dc/elements/1.1/"
   xmlns:cc="http://creativecommons.org/ns#"
   xmlns:rdf="http://www.w3.org/1999/02/22-rdf-syntax-ns#"
   xmlns:svg="http://www.w3.org/2000/svg"
   xmlns="http://www.w3.org/2000/svg"
   xmlns:sodipodi="http://sodipodi.sourceforge.net/DTD/sodipodi-0.dtd"
   xmlns:inkscape="http://www.inkscape.org/namespaces/inkscape"
   version="1.1"
   id="Layer_1"
   x="0px"
   y="0px"
   width="100px"
   height="100px"
   viewBox="5.0 -10.0 100.0 135.0"
   enable-background="new 0 0 100 100"
   xml:space="preserve"
   inkscape:version="0.48.5 r10040"
   sodipodi:docname="noun_18704_cc.svg"><metadata
     id="metadata31"><rdf:RDF><cc:Work
         rdf:about=""><dc:format>image/svg+xml</dc:format><dc:type
           rdf:resource="http://purl.org/dc/dcmitype/StillImage" /></cc:Work></rdf:RDF></metadata><defs
     id="defs29" /><sodipodi:namedview
     pagecolor="#ffffff"
     bordercolor="#666666"
     borderopacity="1"
     objecttolerance="10"
     gridtolerance="10"
     guidetolerance="10"
     inkscape:pageopacity="0"
     inkscape:pageshadow="2"
     inkscape:window-width="640"
     inkscape:window-height="480"
     id="namedview27"
     showgrid="false"
     inkscape:zoom="2.36"
     inkscape:cx="50"
     inkscape:cy="50"
     inkscape:window-x="0"
     inkscape:window-y="27"
     inkscape:window-maximized="0"
     inkscape:current-layer="Layer_1" /><g
     id="g3"
     transform="matrix(1.2341921,0,0,1.2341921,-7.7559354,-7.7122004)"><g
       id="g5"><path
         d="m 58.065,32.624 h -16.13 c -2.584,0 -4.684,2.093 -4.684,4.68 v 21.95 c 0,2.585 2.1,4.682 4.684,4.682 h 0.024 v 15.551 c 0,2.586 2.034,4.682 4.554,4.682 h 6.975 c 2.515,0 4.555,-2.095 4.555,-4.682 V 63.936 h 0.023 c 2.586,0 4.685,-2.095 4.685,-4.682 v -21.95 c -0.004,-2.587 -2.1,-4.68 -4.686,-4.68 z"
         id="path7"
         inkscape:connector-curvature="0"
         style="fill:#000000" /><circle
         cx="50"
         cy="23.473"
         r="7.6399999"
         id="circle9"
         d="m 57.64,23.473 c 0,4.219455 -3.420545,7.639999 -7.64,7.639999 -4.219455,0 -7.64,-3.420544 -7.64,-7.639999 0,-4.219456 3.420545,-7.64 7.64,-7.64 4.219455,0 7.64,3.420544 7.64,7.64 z"
         sodipodi:cx="50"
         sodipodi:cy="23.473"
         sodipodi:rx="7.6399999"
         sodipodi:ry="7.6399999"
         style="fill:#000000" /></g><g
       id="g11"><path
         d="m 85.989,34.448 h -13.82 c -2.221,0 -4.016,1.797 -4.016,4.012 v 18.812 c 0,2.218 1.795,4.012 4.016,4.012 h 0.021 v 13.324 c 0,2.216 1.744,4.01 3.896,4.01 h 5.981 c 2.154,0 3.897,-1.794 3.897,-4.01 V 61.283 h 0.021 c 2.218,0 4.014,-1.797 4.014,-4.014 V 38.458 c 0.002,-2.213 -1.794,-4.01 -4.01,-4.01 z"
         id="path13"
         inkscape:connector-curvature="0"
         style="fill:#000000" /><path
         d="m 79.08,20.062 c 3.612,0 6.546,2.931 6.546,6.545 0,3.617 -2.934,6.549 -6.546,6.549 -3.617,0 -6.548,-2.932 -6.548,-6.549 0,-3.614 2.931,-6.545 6.548,-6.545 z"
         id="path15"
         inkscape:connector-curvature="0"
         style="fill:#000000" /></g><g
       id="g17"><path
         d="m 27.833,34.448 h -13.82 c -2.217,0 -4.012,1.797 -4.012,4.01 V 57.27 c 0,2.217 1.795,4.014 4.012,4.014 h 0.021 v 13.322 c 0,2.218 1.746,4.012 3.9,4.012 h 5.979 c 2.152,0 3.896,-1.794 3.896,-4.012 V 61.283 h 0.021 c 2.216,0 4.012,-1.797 4.012,-4.014 V 38.458 c 0,-2.213 -1.793,-4.01 -4.009,-4.01 z"
         id="path19"
         inkscape:connector-curvature="0"
         style="fill:#000000" /><circle
         cx="20.922001"
         cy="26.608999"
         r="6.546"
         id="circle21"
         d="m 27.468001,26.608999 c 0,3.615256 -2.930744,6.546 -6.546,6.546 -3.615256,0 -6.546,-2.930744 -6.546,-6.546 0,-3.615256 2.930744,-6.546 6.546,-6.546 3.615256,0 6.546,2.930744 6.546,6.546 z"
         sodipodi:cx="20.922001"
         sodipodi:cy="26.608999"
         sodipodi:rx="6.546"
         sodipodi:ry="6.546"
         style="fill:#000000" /></g></g></svg>