<svg xmlns="http://www.w3.org/2000/svg" xmlns:xlink="http://www.w3.org/1999/xlink" version="1.1" x="0px" y="0px" viewBox="0 0 100 125" enable-background="new 0 0 100 100" xml:space="preserve"><g><path d="M56.49,47.086c-0.022-0.023-0.04-0.045-0.06-0.066L33.688,24.334c-1.549-1.546-4.052-1.545-5.588-0.001   c-1.537,1.544-1.527,4.052,0.021,5.596l16.344,16.304H3.936C1.754,46.231-0.008,48.003,0,50.188   c0.009,2.185,1.785,3.957,3.967,3.956l40.548,0.001L27.927,70.822c-1.538,1.544-1.527,4.051,0.022,5.595   c1.548,1.546,4.05,1.546,5.587,0l22.567-22.686c0.116-0.119,0.222-0.241,0.32-0.369c0.964-0.722,1.591-1.872,1.585-3.172   C58.006,48.931,57.409,47.81,56.49,47.086z"/><path d="M51.486,63.151l-7.861,7.903v17.939c0,3.433,2.918,6.214,6.519,6.214l7.724-0.002v-7.861l-6.382,0.002V63.151z"/><path d="M51.486,13.406l6.382,0V5.543l-7.724,0c-3.601,0-6.519,2.781-6.519,6.212v17.731l7.861,7.842V13.406z"/><path d="M97.492,8.293L65.182,0.071c-2.04-0.506-3.736,1.751-3.736,5.094v89.679c0,3.326,1.696,5.614,3.736,5.079l32.311-8.22   c1.396-0.352,2.508-2.825,2.508-5.502V13.788C100,11.097,98.888,8.65,97.492,8.293z M74.087,54.922   c-2.72,0-4.924-2.204-4.924-4.922c0-2.72,2.204-4.925,4.924-4.925c2.718,0,4.924,2.205,4.924,4.925   C79.011,52.718,76.805,54.922,74.087,54.922z"/></g><text x="0" y="115" fill="#000000" font-size="5px" font-weight="bold" font-family="'Helvetica Neue', Helvetica, Arial-Unicode, Arial, Sans-serif">Created by Stefan Parnarov</text><text x="0" y="120" fill="#000000" font-size="5px" font-weight="bold" font-family="'Helvetica Neue', Helvetica, Arial-Unicode, Arial, Sans-serif">from the Noun Project</text></svg>