<?xml version="1.0" encoding="UTF-8" standalone="no"?>
<svg
   xmlns:dc="http://purl.org/dc/elements/1.1/"
   xmlns:cc="http://creativecommons.org/ns#"
   xmlns:rdf="http://www.w3.org/1999/02/22-rdf-syntax-ns#"
   xmlns:svg="http://www.w3.org/2000/svg"
   xmlns="http://www.w3.org/2000/svg"
   xmlns:sodipodi="http://sodipodi.sourceforge.net/DTD/sodipodi-0.dtd"
   xmlns:inkscape="http://www.inkscape.org/namespaces/inkscape"
   version="1.1"
   x="0px"
   y="0px"
   viewBox="0 0 100 125"
   enable-background="new 0 0 100 100"
   xml:space="preserve"
   id="svg2"
   inkscape:version="0.91 r13725"
   sodipodi:docname="noun_41979_cc.svg"><metadata
     id="metadata16"><rdf:RDF><cc:Work
         rdf:about=""><dc:format>image/svg+xml</dc:format><dc:type
           rdf:resource="http://purl.org/dc/dcmitype/StillImage" /></cc:Work></rdf:RDF></metadata><defs
     id="defs14" /><sodipodi:namedview
     pagecolor="#ffffff"
     bordercolor="#666666"
     borderopacity="1"
     objecttolerance="10"
     gridtolerance="10"
     guidetolerance="10"
     inkscape:pageopacity="0"
     inkscape:pageshadow="2"
     inkscape:window-width="743"
     inkscape:window-height="480"
     id="namedview12"
     showgrid="false"
     inkscape:zoom="1.888"
     inkscape:cx="50"
     inkscape:cy="62.5"
     inkscape:window-x="0"
     inkscape:window-y="0"
     inkscape:window-maximized="0"
     inkscape:current-layer="svg2" /><rect
     width="100"
     height="100"
     id="rect4"
     x="0"
     y="12"
     style="fill:none" /><path
     d="m 29.241,43.591 c 4.499,0 8.16,-3.663 8.16,-8.167 0,-4.494 -3.661,-8.152 -8.16,-8.152 -4.505,0 -8.167,3.659 -8.167,8.152 10e-4,4.504 3.662,8.167 8.167,8.167 z m 0,-13.687 c 3.049,0 5.53,2.477 5.53,5.521 0,3.054 -2.481,5.535 -5.53,5.535 -3.056,0 -5.537,-2.481 -5.537,-5.535 0,-3.044 2.482,-5.521 5.537,-5.521 z m -11.911,32.23 23.821,0 c 0.725,0 1.316,-0.591 1.316,-1.318 l 0,-7.533 c 0,-0.061 -0.007,-0.126 -0.019,-0.188 -0.204,-4.484 -3.98,-8.105 -8.493,-8.105 l -9.445,0 c -4.545,0 -8.361,3.701 -8.495,8.255 0,0.014 0,0.361 0,0.375 l 0,7.195 c 10e-4,0.727 0.588,1.319 1.315,1.319 z m 1.315,-8.809 c 0.094,-3.147 2.728,-5.708 5.866,-5.708 l 9.445,0 c 3.154,0 5.788,2.561 5.87,5.704 0.005,0.099 0.019,0.197 0.042,0.291 l -0.033,5.892 -21.19,0 0,-5.884 -1.315,0 1.315,-0.295 z m 32.038,-19.49 c 0,-0.727 0.584,-1.318 1.315,-1.318 l 23.995,0 c 0.723,0 1.313,0.591 1.313,1.318 0,0.722 -0.591,1.313 -1.313,1.313 l -23.995,0 c -0.731,0 -1.315,-0.591 -1.315,-1.313 z m -4.274,8.86 c 0,-0.727 0.586,-1.313 1.313,-1.313 l 32.542,0 c 0.725,0 1.313,0.586 1.313,1.313 0,0.727 -0.588,1.318 -1.313,1.318 l -32.541,0 c -0.727,0.001 -1.314,-0.591 -1.314,-1.318 z M 16.016,70.638 c 0,-0.727 0.586,-1.318 1.313,-1.318 l 32.542,0 c 0.722,0 1.313,0.592 1.313,1.318 0,0.728 -0.591,1.313 -1.313,1.313 l -32.541,0 c -0.727,0 -1.314,-0.586 -1.314,-1.313 z M 92.294,17 7.707,17 c -1.45,0 -2.63,1.177 -2.63,2.627 l 0,64.68 c 0,1.454 1.18,2.631 2.629,2.631 l 44.487,0 c -2.013,4.265 -3.831,8.617 -5.393,13.073 -0.18,0.517 -0.023,1.089 0.394,1.44 0.422,0.352 1.013,0.412 1.489,0.141 3.021,-1.688 6.098,-3.251 9.164,-4.653 1.205,3.157 2.547,6.281 3.994,9.315 0.223,0.46 0.683,0.746 1.187,0.746 0.021,0 0.047,0 0.072,-0.005 0.528,-0.023 0.99,-0.37 1.171,-0.877 1.536,-4.386 3.368,-8.664 5.398,-12.843 2.018,4.175 3.835,8.452 5.371,12.843 0.176,0.502 0.638,0.849 1.166,0.877 0.026,0.005 0.053,0.005 0.073,0.005 0.505,0 0.964,-0.286 1.187,-0.746 1.431,-2.974 2.768,-6.103 3.99,-9.315 3.077,1.402 6.149,2.965 9.163,4.653 0.476,0.268 1.067,0.216 1.489,-0.136 0.417,-0.353 0.574,-0.929 0.394,-1.445 -1.557,-4.451 -3.36,-8.809 -5.37,-13.073 l 5.162,0 c 1.454,0 2.629,-1.177 2.629,-2.631 l 0,-64.68 C 94.923,18.177 93.748,17 92.294,17 Z m -29.408,85.239 c -1.103,-2.473 -2.13,-4.996 -3.062,-7.529 -0.126,-0.337 -0.389,-0.614 -0.722,-0.755 -0.167,-0.07 -0.341,-0.104 -0.517,-0.104 -0.178,0 -0.358,0.038 -0.527,0.113 -2.533,1.116 -5.075,2.35 -7.592,3.673 2.477,-6.549 5.507,-12.871 8.962,-18.955 1.078,1.243 2.373,2.274 3.837,3.063 1.756,2.801 3.405,5.667 4.925,8.603 -1.962,3.875 -3.764,7.829 -5.304,11.891 z M 61.313,69.817 c 0,-4.602 3.743,-8.345 8.343,-8.345 4.6,0 8.34,3.744 8.34,8.345 0,4.597 -3.74,8.34 -8.34,8.34 -4.6,0 -8.343,-3.743 -8.343,-8.34 z m 19.931,24.148 c -0.325,-0.146 -0.708,-0.15 -1.041,-0.01 -0.335,0.141 -0.598,0.418 -0.72,0.76 -0.945,2.57 -1.973,5.095 -3.054,7.529 -2.512,-6.628 -5.636,-12.994 -9.231,-19.077 0.795,0.146 1.613,0.248 2.458,0.248 4.102,0 7.737,-1.862 10.235,-4.742 3.45,6.089 6.473,12.416 8.949,18.96 -2.516,-1.319 -5.058,-2.552 -7.596,-3.668 z m 8.42,-12.285 -5.178,0 c -0.945,-1.811 -1.938,-3.593 -2.958,-5.361 1.063,-1.942 1.727,-4.138 1.727,-6.501 0,-7.501 -6.103,-13.604 -13.599,-13.604 -7.5,0 -13.603,6.103 -13.603,13.604 0,2.368 0.663,4.563 1.735,6.511 -1.021,1.764 -2.008,3.546 -2.953,5.352 l -44.497,0 0,-59.423 79.326,0 0,59.422 z"
     id="path6"
     inkscape:connector-curvature="0" /></svg>