<?xml version="1.0" encoding="UTF-8" standalone="no"?>
<svg
   xmlns:dc="http://purl.org/dc/elements/1.1/"
   xmlns:cc="http://creativecommons.org/ns#"
   xmlns:rdf="http://www.w3.org/1999/02/22-rdf-syntax-ns#"
   xmlns:svg="http://www.w3.org/2000/svg"
   xmlns="http://www.w3.org/2000/svg"
   xmlns:sodipodi="http://sodipodi.sourceforge.net/DTD/sodipodi-0.dtd"
   xmlns:inkscape="http://www.inkscape.org/namespaces/inkscape"
   version="1.1"
   x="0px"
   y="0px"
   viewBox="0 0 50 62.5"
   enable-background="new 0 0 50 50"
   xml:space="preserve"
   id="svg2"
   inkscape:version="0.91 r13725"
   sodipodi:docname="noun_38960_cc.svg"><metadata
     id="metadata44"><rdf:RDF><cc:Work
         rdf:about=""><dc:format>image/svg+xml</dc:format><dc:type
           rdf:resource="http://purl.org/dc/dcmitype/StillImage" /></cc:Work></rdf:RDF></metadata><defs
     id="defs42" /><sodipodi:namedview
     pagecolor="#ffffff"
     bordercolor="#666666"
     borderopacity="1"
     objecttolerance="10"
     gridtolerance="10"
     guidetolerance="10"
     inkscape:pageopacity="0"
     inkscape:pageshadow="2"
     inkscape:window-width="1366"
     inkscape:window-height="709"
     id="namedview40"
     showgrid="false"
     inkscape:zoom="3.776"
     inkscape:cx="25"
     inkscape:cy="31.25"
     inkscape:window-x="-2"
     inkscape:window-y="0"
     inkscape:window-maximized="1"
     inkscape:current-layer="svg2" /><path
     d="M30.711,14.454H8.617c-1.107,0-2.008,0.9-2.008,2.008V29.6c0,1.107,0.901,2.009,2.008,2.009h22.095  c1.107,0,2.008-0.901,2.008-2.009V16.462C32.72,15.354,31.82,14.454,30.711,14.454z M8.617,15.792h22.095  c0.37,0,0.67,0.299,0.67,0.67v2.265H7.948v-2.265C7.948,16.091,8.25,15.792,8.617,15.792z M7.948,29.599v-9.533h6.242v10.203H8.617  C8.25,30.269,7.948,29.968,7.948,29.599z M30.711,30.269H15.529V20.065h15.852v9.533C31.381,29.968,31.082,30.269,30.711,30.269z"
     id="path4" /><circle
     cx="9.789"
     cy="17.293"
     r="0.717"
     id="circle6" /><circle
     cx="11.797"
     cy="17.293"
     r="0.717"
     id="circle8" /><circle
     cx="13.806"
     cy="17.293"
     r="0.717"
     id="circle10" /><rect
     x="9.07"
     y="21.319"
     width="3.935"
     height="1.338"
     id="rect12" /><rect
     x="9.07"
     y="23.368"
     width="3.935"
     height="1.339"
     id="rect14" /><rect
     x="9.07"
     y="25.503"
     width="3.935"
     height="1.339"
     id="rect16" /><rect
     x="9.07"
     y="27.68"
     width="3.935"
     height="1.34"
     id="rect18" /><path
     d="M20.425,21.477h-3.683v2.972h3.683V21.477z M19.086,23.108h-1.004v-0.292h1.004V23.108z"
     id="path20" /><rect
     x="16.743"
     y="25.503"
     width="13.308"
     height="1.339"
     id="rect22" /><rect
     x="16.743"
     y="27.68"
     width="13.308"
     height="1.34"
     id="rect24" /><path
     d="M25.238,21.477h-3.683v2.972h3.683V21.477z M23.899,23.108h-1.004v-0.292h1.004V23.108z"
     id="path26" /><path
     d="M26.367,24.448h3.684v-2.972h-3.684V24.448z M27.706,22.815h1.004v0.292h-1.004V22.815z"
     id="path28" /><g
     id="g30"><path
       d="M44.773,44.332H5.196c-2.079,0-3.769-1.69-3.769-3.769V13.065c0-2.079,1.69-3.769,3.769-3.769h39.577   c2.078,0,3.768,1.69,3.768,3.769v27.498C48.541,42.642,46.852,44.332,44.773,44.332z M5.196,10.427   c-1.455,0-2.639,1.184-2.639,2.639v27.498c0,1.455,1.184,2.639,2.639,2.639h39.577c1.455,0,2.638-1.184,2.638-2.639V13.065   c0-1.455-1.183-2.639-2.638-2.639H5.196z"
       id="path32" /></g><path
     d="M43.834,34.272l-2.076-2.076l2.197-1.099c0.186-0.093,0.292-0.29,0.27-0.495c-0.022-0.206-0.171-0.376-0.37-0.425  l-7.254-1.814c-0.168-0.042-0.346,0.008-0.469,0.131s-0.172,0.3-0.129,0.468l1.813,7.254c0.05,0.199,0.22,0.347,0.425,0.37  c0.018,0.003,0.036,0.004,0.054,0.004c0.187,0,0.357-0.104,0.442-0.274l1.099-2.196l2.076,2.076  c0.266,0.267,0.613,0.398,0.962,0.398c0.347,0,0.696-0.132,0.961-0.398C44.365,35.665,44.365,34.804,43.834,34.272z M43.136,35.498  c-0.094,0.095-0.205,0.109-0.263,0.109s-0.168-0.015-0.264-0.111l-3.045-3.043l-1.114,2.228l-1.291-5.159l5.16,1.29l-2.229,1.114  l3.047,3.045c0.095,0.095,0.108,0.206,0.108,0.264S43.231,35.403,43.136,35.498z"
     id="path34" /></svg>