<?xml version="1.0" encoding="UTF-8" standalone="no"?>
<svg
   xmlns:dc="http://purl.org/dc/elements/1.1/"
   xmlns:cc="http://creativecommons.org/ns#"
   xmlns:rdf="http://www.w3.org/1999/02/22-rdf-syntax-ns#"
   xmlns:svg="http://www.w3.org/2000/svg"
   xmlns="http://www.w3.org/2000/svg"
   xmlns:sodipodi="http://sodipodi.sourceforge.net/DTD/sodipodi-0.dtd"
   xmlns:inkscape="http://www.inkscape.org/namespaces/inkscape"
   version="1.1"
   x="0px"
   y="0px"
   viewBox="0 0 100 125"
   enable-background="new 0 0 100 100"
   xml:space="preserve"
   id="svg2"
   inkscape:version="0.91 r13725"
   sodipodi:docname="noun_101791_cc.svg"><metadata
     id="metadata14"><rdf:RDF><cc:Work
         rdf:about=""><dc:format>image/svg+xml</dc:format><dc:type
           rdf:resource="http://purl.org/dc/dcmitype/StillImage" /></cc:Work></rdf:RDF></metadata><defs
     id="defs12" /><sodipodi:namedview
     pagecolor="#ffffff"
     bordercolor="#666666"
     borderopacity="1"
     objecttolerance="10"
     gridtolerance="10"
     guidetolerance="10"
     inkscape:pageopacity="0"
     inkscape:pageshadow="2"
     inkscape:window-width="777"
     inkscape:window-height="480"
     id="namedview10"
     showgrid="false"
     inkscape:zoom="1.888"
     inkscape:cx="50"
     inkscape:cy="62.5"
     inkscape:window-x="0"
     inkscape:window-y="0"
     inkscape:window-maximized="0"
     inkscape:current-layer="svg2" /><path
     d="M 77.891855,62.286039 C 83.30181,41.246432 70.585007,19.72692 49.546735,14.316965 28.504455,8.9056726 6.9862794,21.622477 1.5749866,42.662085 -3.8349685,63.703028 8.8804994,85.219867 29.921443,90.632496 50.959714,96.042452 72.480563,83.326984 77.891855,62.286039 Z M 32.585649,80.269764 C 17.258111,76.328931 7.9968867,60.651155 11.937719,45.324953 15.879889,29.998751 31.554991,20.736191 46.879857,24.677023 62.207396,28.617856 71.469956,44.294295 67.527786,59.620497 63.585617,74.946699 47.913188,84.210597 32.585649,80.269764 Z m 64.940859,27.323826 c 0.0021,-0.001 0.0043,-0.002 0.0054,-0.002 -0.01741,0.0241 -0.04009,0.0494 -0.0588,0.0722 -0.01602,0.0227 -0.03074,0.0414 -0.04676,0.0642 -0.0022,0.001 -0.0043,0.001 -0.0064,0.004 -0.201856,0.24597 -0.458522,0.54942 -0.660378,0.75528 l -0.815433,0.83148 c -2.364767,2.41156 -5.464764,3.2056 -6.927202,1.77257 L 65.622872,88.163459 c 1.263259,-1.046699 2.932899,-2.573304 3.693528,-3.272441 l -0.0027,-0.0013 c 2.116125,-1.914271 2.855365,-3.03182 3.265757,-3.420823 0.818111,-0.772661 2.018541,-2.439628 2.418239,-2.870071 l 23.393699,22.925756 c 1.285982,1.26326 0.864889,3.82855 -0.8649,6.069 z M 30.801046,36.40862 c -5.951352,4.030396 -10.322628,11.609948 -8.509952,18.799161 0.661707,2.618755 -3.222981,3.823195 -3.883351,1.209787 -2.344715,-9.29598 2.997065,-18.605328 10.394814,-23.616923 2.211037,-1.497195 4.201505,2.116126 1.998489,3.607975 z"
     id="path4"
     inkscape:connector-curvature="0" /></svg>