<?xml version="1.0" encoding="UTF-8" standalone="no"?>
<svg
   xmlns:dc="http://purl.org/dc/elements/1.1/"
   xmlns:cc="http://creativecommons.org/ns#"
   xmlns:rdf="http://www.w3.org/1999/02/22-rdf-syntax-ns#"
   xmlns:svg="http://www.w3.org/2000/svg"
   xmlns="http://www.w3.org/2000/svg"
   xmlns:sodipodi="http://sodipodi.sourceforge.net/DTD/sodipodi-0.dtd"
   xmlns:inkscape="http://www.inkscape.org/namespaces/inkscape"
   version="1.1"
   x="0px"
   y="0px"
   viewBox="0 0 100 125"
   id="svg2"
   inkscape:version="0.91 r13725"
   sodipodi:docname="noun_213192_cc.svg">
  <metadata
     id="metadata16">
    <rdf:RDF>
      <cc:Work
         rdf:about="">
        <dc:format>image/svg+xml</dc:format>
        <dc:type
           rdf:resource="http://purl.org/dc/dcmitype/StillImage" />
      </cc:Work>
    </rdf:RDF>
  </metadata>
  <defs
     id="defs14" />
  <sodipodi:namedview
     pagecolor="#ffffff"
     bordercolor="#666666"
     borderopacity="1"
     objecttolerance="10"
     gridtolerance="10"
     guidetolerance="10"
     inkscape:pageopacity="0"
     inkscape:pageshadow="2"
     inkscape:window-width="1366"
     inkscape:window-height="712"
     id="namedview12"
     showgrid="false"
     inkscape:zoom="1.888"
     inkscape:cx="-50.900424"
     inkscape:cy="62.5"
     inkscape:window-x="0"
     inkscape:window-y="0"
     inkscape:window-maximized="1"
     inkscape:current-layer="svg2" />
  <g
     transform="matrix(1.1000428,0,0,1.1000428,-4.4991194,48.745336)"
     id="g4"
     style="fill:#aa0000">
    <path
       d="M 37.84375,11.46875 C 29.634879,11.46875 23,19.647734 23,29.75 c 0,10.108496 6.634879,18.3125 14.84375,18.3125 8.208869,0 14.875,-8.204004 14.875,-18.3125 0,-10.102266 -6.666131,-18.28125 -14.875,-18.28125 z M 62.1875,47.125 c -0.211762,0 -0.400565,0.08807 -0.5625,0.25 l -7.78125,7.75 c -0.32387,0.32387 -0.32387,0.838607 0,1.15625 L 65.375,67.84375 53.84375,79.375 c -0.32387,0.323871 -0.32387,0.83238 0,1.15625 l 7.78125,7.75 c 0.32387,0.323871 0.83238,0.323871 1.15625,0 L 74.3125,76.75 85.84375,88.28125 c 0.317641,0.323871 0.832379,0.323871 1.15625,0 l 7.75,-7.75 c 0.32387,-0.32387 0.32387,-0.832379 0,-1.15625 L 83.21875,67.84375 94.75,56.28125 c 0.32387,-0.317643 0.32387,-0.83238 0,-1.15625 L 87,47.375 c -0.323871,-0.323871 -0.838609,-0.323871 -1.15625,0 L 74.3125,58.90625 62.78125,47.375 c -0.161935,-0.161936 -0.381989,-0.25 -0.59375,-0.25 z m -39.28125,3.46875 c -1.930766,-0.0062 -4.000722,0.705714 -6,2.34375 -5.512025,4.509274 -9.3009835,10.460417 -11.375,17.03125 -1.9369944,6.15354 1.5493878,7.752389 6.75,8.4375 4.26637,0.560544 7.131153,1.922726 10.6875,3.0625 6.676713,2.130071 10.720738,2.1875 14.875,2.1875 3.936271,0 7.771178,-0.05634 13.84375,-1.875 -0.498263,-0.803446 -0.736565,-1.715998 -0.46875,-2.71875 2.958433,-4.241456 7.074882,-7.494239 10.625,-11.21875 C 59.564201,65.557972 57.27955,63.285776 55,61 53.59241,59.349505 51.156033,58.110192 51.09375,55.65625 51.486131,53.600919 53.11153,52.188947 54.625,50.8125 52.806345,50.388976 51.050842,50.596357 49.5,51.34375 c -4.079521,1.968136 -7.701294,3 -11.65625,3 -3.954957,0 -7.576728,-1.031864 -11.65625,-3 -1.015209,-0.498261 -2.122791,-0.75 -3.28125,-0.75 z"
       transform="translate(0,-36)"
       style="fill:#aa0000;fill-opacity:1;fill-rule:nonzero;stroke:none"
       id="path6"
       inkscape:connector-curvature="0" />
  </g>
</svg>
