<?xml version="1.0" encoding="UTF-8" standalone="no"?>
<svg
   xmlns:dc="http://purl.org/dc/elements/1.1/"
   xmlns:cc="http://creativecommons.org/ns#"
   xmlns:rdf="http://www.w3.org/1999/02/22-rdf-syntax-ns#"
   xmlns:svg="http://www.w3.org/2000/svg"
   xmlns="http://www.w3.org/2000/svg"
   xmlns:sodipodi="http://sodipodi.sourceforge.net/DTD/sodipodi-0.dtd"
   xmlns:inkscape="http://www.inkscape.org/namespaces/inkscape"
   version="1.1"
   id="Calque_1_-_copie"
   x="0px"
   y="0px"
   width="100px"
   height="100px"
   viewBox="5.0 -10.0 100.0 135.0"
   enable-background="new 0 0 100 100"
   xml:space="preserve"
   inkscape:version="0.91 r13725"
   sodipodi:docname="noun_58197_cc.svg"><metadata
     id="metadata61"><rdf:RDF><cc:Work
         rdf:about=""><dc:format>image/svg+xml</dc:format><dc:type
           rdf:resource="http://purl.org/dc/dcmitype/StillImage" /></cc:Work></rdf:RDF></metadata><defs
     id="defs59" /><sodipodi:namedview
     pagecolor="#ffffff"
     bordercolor="#666666"
     borderopacity="1"
     objecttolerance="10"
     gridtolerance="10"
     guidetolerance="10"
     inkscape:pageopacity="0"
     inkscape:pageshadow="2"
     inkscape:window-width="640"
     inkscape:window-height="480"
     id="namedview57"
     showgrid="false"
     inkscape:zoom="2.36"
     inkscape:cx="50"
     inkscape:cy="50"
     inkscape:window-x="0"
     inkscape:window-y="27"
     inkscape:window-maximized="0"
     inkscape:current-layer="Calque_1_-_copie" /><path
     d="m 9.9272951,56.015738 c -1.0681429,0.763892 -2.3739419,1.215699 -3.7842044,1.215699 -1.4285433,0 -2.750012,-0.462253 -3.8272952,-1.244427 l -0.047012,0 c -5.3237405,1.018523 -5.4712958,6.587754 -5.4712958,6.587754 0,0 2.5737285,5.095226 9.1066388,5.356386 6.5329105,0.265077 9.1066395,-5.35508 9.1066395,-5.35508 -0.208927,-4.975093 -4.29216,-6.330512 -5.0834736,-6.560332 z"
     id="path3"
     inkscape:connector-curvature="0" /><circle
     cx="6.1430912"
     cy="50.711578"
     r="5.1709623"
     id="circle5" /><path
     d="m 108.79062,56.015738 c -1.06684,0.763892 -2.37395,1.215699 -3.78421,1.215699 -1.42855,0 -2.74871,-0.462253 -3.82599,-1.244427 l -0.047,0 c -5.323742,1.018523 -5.471298,6.587754 -5.471298,6.587754 0,0 2.575039,5.095226 9.106638,5.356386 6.53423,0.265077 9.10666,-5.35508 9.10666,-5.35508 -0.21024,-4.975093 -4.29348,-6.330512 -5.08479,-6.560332 z"
     id="path7"
     inkscape:connector-curvature="0" /><circle
     cx="105.0051"
     cy="50.711578"
     r="5.1709623"
     id="circle9" /><path
     d="m 33.31023,28.102988 c -1.068143,0.763892 -2.373942,1.215699 -3.784205,1.215699 -1.428543,0 -2.750011,-0.462253 -3.827295,-1.245733 l -0.04701,0 c -5.32374,1.018524 -5.471296,6.587755 -5.471296,6.587755 0,0 2.57373,5.095226 9.106639,5.356385 6.532911,0.265077 9.10664,-5.35508 9.10664,-5.35508 -0.208928,-4.975092 -4.29216,-6.330512 -5.083474,-6.559026 z"
     id="path11"
     inkscape:connector-curvature="0" /><circle
     cx="29.526024"
     cy="22.797529"
     r="5.1709623"
     id="circle13" /><path
     d="m 84.100572,28.102988 c -1.066836,0.763892 -2.373942,1.215699 -3.784203,1.215699 -1.42855,0 -2.748708,-0.462253 -3.825993,-1.245733 l -0.04701,0 c -5.323741,1.018524 -5.471296,6.587755 -5.471296,6.587755 0,0 2.575034,5.095226 9.106638,5.356385 6.53422,0.265077 9.10664,-5.35508 9.10664,-5.35508 -0.208928,-4.975092 -4.292163,-6.330512 -5.084778,-6.559026 z"
     id="path15"
     inkscape:connector-curvature="0" /><circle
     cx="80.316368"
     cy="22.797529"
     r="5.1709623"
     id="circle17" /><path
     d="m 33.31023,85.09326 c -1.068143,0.765198 -2.373942,1.215698 -3.784205,1.215698 -1.428543,0 -2.750011,-0.462252 -3.827295,-1.244425 l -0.04701,0 c -5.32374,1.018523 -5.471296,6.587754 -5.471296,6.587754 0,0 2.57373,5.095223 9.106639,5.357694 6.532911,0.263771 9.10664,-5.356389 9.10664,-5.356389 -0.208928,-4.973787 -4.29216,-6.330511 -5.083474,-6.560332 z"
     id="path19"
     inkscape:connector-curvature="0" /><circle
     cx="29.526024"
     cy="79.789108"
     r="5.1709623"
     id="circle21" /><path
     d="m 84.100572,85.09326 c -1.066836,0.765198 -2.373942,1.215698 -3.784203,1.215698 -1.42855,0 -2.748708,-0.462252 -3.825993,-1.244425 l -0.04701,0 c -5.323741,1.018523 -5.471296,6.587754 -5.471296,6.587754 0,0 2.575034,5.095223 9.106638,5.357694 6.53422,0.263771 9.10664,-5.356389 9.10664,-5.356389 C 88.97642,86.679805 84.893185,85.323081 84.10057,85.09326 Z"
     id="path23"
     inkscape:connector-curvature="0" /><circle
     cx="80.316368"
     cy="79.789108"
     r="5.1709623"
     id="circle25" /><circle
     cx="55.064831"
     cy="59.524414"
     r="9.3586578"
     id="circle27" /><path
     d="m 13.280586,55.204838 c -0.121439,0 -0.244184,-0.03395 -0.352566,-0.104465 -0.302945,-0.194563 -0.390434,-0.598056 -0.19587,-0.902307 l 9.3456,-14.527008 c 0.194565,-0.302946 0.599362,-0.390434 0.902307,-0.19587 0.302945,0.194564 0.390434,0.598055 0.19587,0.902306 l -9.3456,14.52701 c -0.125357,0.194563 -0.334285,0.300334 -0.549741,0.300334 z"
     id="path29"
     inkscape:connector-curvature="0" /><path
     d="m 22.627492,84.062985 c -0.215457,0 -0.424385,-0.10577 -0.549742,-0.299028 l -9.3456,-14.527008 c -0.194564,-0.302946 -0.108381,-0.707744 0.19587,-0.902307 0.302946,-0.191953 0.707743,-0.107076 0.902307,0.195869 l 9.3456,14.527009 c 0.194564,0.302946 0.108381,0.707743 -0.19587,0.902307 -0.109687,0.07051 -0.232432,0.103158 -0.352565,0.103158 z"
     id="path31"
     inkscape:connector-curvature="0" /><path
     d="m 87.123492,84.062985 c -0.121436,0 -0.244181,-0.03264 -0.353866,-0.103158 C 86.466674,83.765263 86.37788,83.360466 86.573749,83.05752 L 95.91805,68.531817 c 0.194559,-0.302945 0.598055,-0.390433 0.902308,-0.19587 0.302943,0.194564 0.391737,0.599362 0.195869,0.902307 l -9.344301,14.525703 c -0.124046,0.193258 -0.334285,0.299028 -0.548434,0.299028 z"
     id="path33"
     inkscape:connector-curvature="0" /><path
     d="m 96.467793,55.204838 c -0.214158,0 -0.424388,-0.105771 -0.549743,-0.299028 L 86.573749,40.3788 c -0.194559,-0.302945 -0.107075,-0.707742 0.195877,-0.902306 0.301634,-0.19587 0.706431,-0.108382 0.9023,0.195869 l 9.344301,14.527009 c 0.194559,0.302945 0.107074,0.707743 -0.195869,0.902307 -0.108384,0.07051 -0.231129,0.103159 -0.352565,0.103159 z"
     id="path35"
     inkscape:connector-curvature="0" /><path
     d="m 68.558955,34.702494 -27.857905,0 c -0.360401,0 -0.6529,-0.292499 -0.6529,-0.652899 0,-0.360401 0.292499,-0.652899 0.6529,-0.652899 l 27.857905,0 c 0.360401,0 0.6529,0.292498 0.6529,0.652899 0,0.3604 -0.292499,0.652899 -0.6529,0.652899 z"
     id="path37"
     inkscape:connector-curvature="0" /><path
     d="m 43.530715,61.701185 -26.557331,0 c -0.3604,0 -0.652899,-0.292499 -0.652899,-0.6529 0,-0.3604 0.292499,-0.652899 0.652899,-0.652899 l 26.557331,0 c 0.360401,0 0.652899,0.292499 0.652899,0.652899 0,0.360401 -0.292498,0.6529 -0.652899,0.6529 z"
     id="path39"
     inkscape:connector-curvature="0" /><path
     d="m 93.596339,61.701185 -26.557333,0 c -0.360401,0 -0.652899,-0.292499 -0.652899,-0.6529 0,-0.3604 0.292498,-0.652899 0.652899,-0.652899 l 26.557333,0 c 0.360396,0 0.652898,0.292499 0.652898,0.652899 0,0.360401 -0.292502,0.6529 -0.652898,0.6529 z"
     id="path41"
     inkscape:connector-curvature="0" /><path
     d="m 68.558955,91.694071 -27.857905,0 c -0.360401,0 -0.6529,-0.292498 -0.6529,-0.652899 0,-0.3604 0.292499,-0.652899 0.6529,-0.652899 l 27.857905,0 c 0.360401,0 0.6529,0.292499 0.6529,0.652899 0,0.360401 -0.292499,0.652899 -0.6529,0.652899 z"
     id="path43"
     inkscape:connector-curvature="0" /><path
     d="m 47.230042,51.364484 c -0.167142,0 -0.334284,-0.06398 -0.462253,-0.190647 L 35.766437,40.172485 c -0.254631,-0.254631 -0.254631,-0.668569 0,-0.9232 0.254631,-0.254631 0.668569,-0.254631 0.923199,0 l 11.001353,11.001352 c 0.254631,0.254631 0.254631,0.66857 0,0.9232 -0.126663,0.126662 -0.293805,0.190647 -0.460947,0.190647 z"
     id="path45"
     inkscape:connector-curvature="0" /><path
     d="m 62.910071,51.540766 c -0.173671,0 -0.346036,-0.0679 -0.474005,-0.203704 -0.246795,-0.262466 -0.23635,-0.675098 0.02611,-0.9232 L 73.759951,39.718066 c 0.262466,-0.248102 0.675098,-0.235043 0.9232,0.02612 0.246795,0.262465 0.236349,0.675098 -0.02611,0.923199 L 63.359266,51.363178 c -0.126663,0.118828 -0.288581,0.177588 -0.449195,0.177588 z"
     id="path47"
     inkscape:connector-curvature="0" /><path
     d="m 73.338178,79.295514 c -0.167142,0 -0.33559,-0.06398 -0.462253,-0.191952 L 62.378611,68.570991 c -0.253325,-0.254631 -0.253325,-0.668569 0.0026,-0.923199 0.252019,-0.252019 0.668569,-0.254631 0.9232,0.0026 l 10.497315,10.532572 c 0.253324,0.25463 0.253324,0.668569 -0.0026,0.923199 -0.126662,0.125357 -0.293805,0.189341 -0.460947,0.189341 z"
     id="path49"
     inkscape:connector-curvature="0" /><path
     d="m 37.098351,78.833262 c -0.172365,0 -0.344731,-0.0679 -0.472699,-0.202399 -0.248102,-0.261159 -0.237655,-0.675098 0.0235,-0.9232 L 47.429826,67.466286 c 0.261159,-0.246797 0.676404,-0.237655 0.923199,0.0235 0.248102,0.26116 0.237656,0.675098 -0.0235,0.9232 L 37.548851,78.654365 c -0.126662,0.118827 -0.288581,0.178894 -0.4505,0.178894 z"
     id="path51"
     inkscape:connector-curvature="0" /></svg>