<?xml version="1.0" encoding="UTF-8" standalone="no"?>
<svg
   xmlns:dc="http://purl.org/dc/elements/1.1/"
   xmlns:cc="http://creativecommons.org/ns#"
   xmlns:rdf="http://www.w3.org/1999/02/22-rdf-syntax-ns#"
   xmlns:svg="http://www.w3.org/2000/svg"
   xmlns="http://www.w3.org/2000/svg"
   xmlns:sodipodi="http://sodipodi.sourceforge.net/DTD/sodipodi-0.dtd"
   xmlns:inkscape="http://www.inkscape.org/namespaces/inkscape"
   version="1.1"
   id="Layer_1"
   x="0px"
   y="0px"
   width="100px"
   height="100px"
   viewBox="5.0 -10.0 100.0 135.0"
   enable-background="new 0 0 100 100"
   xml:space="preserve"
   inkscape:version="0.48.5 r10040"
   sodipodi:docname="noun_2651_cc.svg"><metadata
     id="metadata35"><rdf:RDF><cc:Work
         rdf:about=""><dc:format>image/svg+xml</dc:format><dc:type
           rdf:resource="http://purl.org/dc/dcmitype/StillImage" /></cc:Work></rdf:RDF></metadata><defs
     id="defs33" /><sodipodi:namedview
     pagecolor="#ffffff"
     bordercolor="#666666"
     borderopacity="1"
     objecttolerance="10"
     gridtolerance="10"
     guidetolerance="10"
     inkscape:pageopacity="0"
     inkscape:pageshadow="2"
     inkscape:window-width="640"
     inkscape:window-height="480"
     id="namedview31"
     showgrid="false"
     inkscape:zoom="2.36"
     inkscape:cx="50"
     inkscape:cy="50"
     inkscape:window-x="0"
     inkscape:window-y="27"
     inkscape:window-maximized="0"
     inkscape:current-layer="Layer_1" /><g
     id="g3"
     transform="matrix(1.1932927,0,0,1.1932927,-4.7732679,-6.796496)"><g
       id="g5"><path
         d="m 19.3,48.049 c -6.816,0 -12.362,-5.546 -12.362,-12.362 0,-6.817 5.546,-12.363 12.362,-12.363 6.816,0 12.362,5.546 12.362,12.363 0,6.816 -5.546,12.362 -12.362,12.362 z m 0,-19.725 c -4.06,0 -7.362,3.303 -7.362,7.363 0,4.06 3.303,7.362 7.362,7.362 4.059,0 7.362,-3.303 7.362,-7.362 0,-4.061 -3.303,-7.363 -7.362,-7.363 z"
         id="path7"
         inkscape:connector-curvature="0"
         style="fill:#000000" /></g><g
       id="g9"><path
         d="m 50,48.049 c -6.816,0 -12.362,-5.546 -12.362,-12.362 0,-6.817 5.546,-12.363 12.362,-12.363 6.816,0 12.362,5.546 12.362,12.363 0,6.816 -5.546,12.362 -12.362,12.362 z m 0,-19.725 c -4.06,0 -7.362,3.303 -7.362,7.363 0,4.06 3.303,7.362 7.362,7.362 4.059,0 7.362,-3.303 7.362,-7.362 0,-4.061 -3.302,-7.363 -7.362,-7.363 z"
         id="path11"
         inkscape:connector-curvature="0"
         style="fill:#000000" /></g><g
       id="g13"><path
         d="m 50,78.676 c -6.816,0 -12.362,-5.545 -12.362,-12.363 0,-6.816 5.546,-12.361 12.362,-12.361 6.816,0 12.362,5.545 12.362,12.361 0,6.818 -5.546,12.363 -12.362,12.363 z m 0,-19.725 c -4.06,0 -7.362,3.303 -7.362,7.361 0,4.061 3.303,7.363 7.362,7.363 4.059,0 7.362,-3.303 7.362,-7.363 0,-4.058 -3.302,-7.361 -7.362,-7.361 z"
         id="path15"
         inkscape:connector-curvature="0"
         style="fill:#000000" /></g><g
       id="g17"><path
         d="m 80.7,48.049 c -6.816,0 -12.362,-5.546 -12.362,-12.362 0,-6.817 5.546,-12.363 12.362,-12.363 6.816,0 12.362,5.546 12.362,12.363 0.001,6.816 -5.545,12.362 -12.362,12.362 z m 0,-19.725 c -4.06,0 -7.362,3.303 -7.362,7.363 0,4.06 3.303,7.362 7.362,7.362 4.059,0 7.362,-3.303 7.362,-7.362 0.001,-4.061 -3.302,-7.363 -7.362,-7.363 z"
         id="path19"
         inkscape:connector-curvature="0"
         style="fill:#000000" /></g><path
       d="m 78.2,45.807 v 8.645 c 0,5.238 -4.262,9.5 -9.5,9.5 h -9.283 v 5 H 68.7 c 7.995,0 14.5,-6.506 14.5,-14.5 v -8.645 h -5 z"
       id="path21"
       inkscape:connector-curvature="0"
       style="fill:#000000" /><path
       d="M 41.543,63.951 H 31.171 c -5.238,0 -9.5,-4.262 -9.5,-9.5 v -8.645 h -5 v 8.645 c 0,7.994 6.505,14.5 14.5,14.5 h 10.372 v -5 z"
       id="path23"
       inkscape:connector-curvature="0"
       style="fill:#000000" /><rect
       x="47.5"
       y="44.512001"
       width="5"
       height="11.658"
       id="rect25"
       style="fill:#000000" /></g></svg>