<?xml version="1.0" encoding="UTF-8" standalone="no"?>
<svg
   xmlns:dc="http://purl.org/dc/elements/1.1/"
   xmlns:cc="http://creativecommons.org/ns#"
   xmlns:rdf="http://www.w3.org/1999/02/22-rdf-syntax-ns#"
   xmlns:svg="http://www.w3.org/2000/svg"
   xmlns="http://www.w3.org/2000/svg"
   xmlns:sodipodi="http://sodipodi.sourceforge.net/DTD/sodipodi-0.dtd"
   xmlns:inkscape="http://www.inkscape.org/namespaces/inkscape"
   version="1.1"
   x="0px"
   y="0px"
   viewBox="-255 347 100 125"
   enable-background="new -255 347 100 100"
   xml:space="preserve"
   id="svg2"
   inkscape:version="0.91 r13725"
   sodipodi:docname="noun_152997_cc.svg"><metadata
     id="metadata14"><rdf:RDF><cc:Work
         rdf:about=""><dc:format>image/svg+xml</dc:format><dc:type
           rdf:resource="http://purl.org/dc/dcmitype/StillImage" /></cc:Work></rdf:RDF></metadata><defs
     id="defs12" /><sodipodi:namedview
     pagecolor="#ffffff"
     bordercolor="#666666"
     borderopacity="1"
     objecttolerance="10"
     gridtolerance="10"
     guidetolerance="10"
     inkscape:pageopacity="0"
     inkscape:pageshadow="2"
     inkscape:window-width="743"
     inkscape:window-height="480"
     id="namedview10"
     showgrid="false"
     inkscape:zoom="1.888"
     inkscape:cx="50"
     inkscape:cy="62.5"
     inkscape:window-x="0"
     inkscape:window-y="0"
     inkscape:window-maximized="0"
     inkscape:current-layer="svg2" /><path
     d="m -205,364 c -24.9,0 -45,20.1 -45,45 0,24.9 20.1,45 45,45 24.9,0 45,-20.1 45,-45 0,-24.9 -20.1,-45 -45,-45 z m -26,72.4 c 1.8,-0.8 3.6,-1.4 5.5,-1.9 5.2,-1.2 8.3,-2.9 9.3,-5.1 0.8,-1.7 0.3,-4 -1.2,-6.9 -9.6,-17.7 -7.9,-27.7 -4.8,-32.9 3.1,-5.3 9.1,-8.2 16.7,-8.2 7.6,0 13.5,2.9 16.6,8.1 3.1,5.2 4.8,15.2 -4.7,33 -1.6,3 -2,5.3 -1.2,7 1,2.1 4.1,3.8 9.3,5 1.8,0.4 4,1.1 6.3,2.1 -6.7,6.3 -15.8,10.1 -25.7,10.1 -10.2,0.1 -19.3,-3.9 -26.1,-10.3 z"
     id="path4"
     inkscape:connector-curvature="0" /></svg>