<?xml version="1.0" encoding="UTF-8" standalone="no"?>
<svg
   xmlns:dc="http://purl.org/dc/elements/1.1/"
   xmlns:cc="http://creativecommons.org/ns#"
   xmlns:rdf="http://www.w3.org/1999/02/22-rdf-syntax-ns#"
   xmlns:svg="http://www.w3.org/2000/svg"
   xmlns="http://www.w3.org/2000/svg"
   xmlns:sodipodi="http://sodipodi.sourceforge.net/DTD/sodipodi-0.dtd"
   xmlns:inkscape="http://www.inkscape.org/namespaces/inkscape"
   version="1.1"
   x="0px"
   y="0px"
   viewBox="0 0 99.999 125"
   enable-background="new 0 0 99.999 100"
   xml:space="preserve"
   id="svg2"
   inkscape:version="0.91 r13725"
   sodipodi:docname="noun_198591_cc.svg"><metadata
     id="metadata14"><rdf:RDF><cc:Work
         rdf:about=""><dc:format>image/svg+xml</dc:format><dc:type
           rdf:resource="http://purl.org/dc/dcmitype/StillImage" /></cc:Work></rdf:RDF></metadata><defs
     id="defs12" /><sodipodi:namedview
     pagecolor="#ffffff"
     bordercolor="#666666"
     borderopacity="1"
     objecttolerance="10"
     gridtolerance="10"
     guidetolerance="10"
     inkscape:pageopacity="0"
     inkscape:pageshadow="2"
     inkscape:window-width="1366"
     inkscape:window-height="712"
     id="namedview10"
     showgrid="false"
     inkscape:zoom="1.888"
     inkscape:cx="49.9995"
     inkscape:cy="62.5"
     inkscape:window-x="0"
     inkscape:window-y="0"
     inkscape:window-maximized="1"
     inkscape:current-layer="svg2" /><path
     d="m 86.731,35.862 8.268,-8.267 -10.59,-10.593 -8.284,8.283 C 60.558,14.231 39.493,14.253 23.946,25.353 L 15.595,17 5.001,27.59 13.369,35.959 C 2.337,51.494 2.336,72.504 13.366,88.041 l -8.367,8.367 10.594,10.59 8.351,-8.35 c 15.545,11.099 36.609,11.121 52.179,0.066 L 84.407,107 94.997,96.406 86.729,88.138 C 97.854,72.561 97.854,51.438 86.731,35.862 Z M 72.891,28.52 50.001,51.409 27.18,28.586 C 40.896,19.178 59.15,19.155 72.891,28.52 Z M 16.604,84.805 C 7.257,71.1 7.257,52.897 16.603,39.191 L 39.409,62 16.604,84.805 Z m 10.577,10.606 22.82,-22.819 22.889,22.89 c -13.742,9.367 -31.995,9.34 -45.709,-0.071 z M 83.496,84.905 60.593,62 83.498,39.096 c 9.431,13.75 9.431,32.06 -0.002,45.809 z"
     id="path4"
     inkscape:connector-curvature="0"
     style="fill:#6c5353" /></svg>