<?xml version="1.0" encoding="UTF-8" standalone="no"?>
<svg
   xmlns:dc="http://purl.org/dc/elements/1.1/"
   xmlns:cc="http://creativecommons.org/ns#"
   xmlns:rdf="http://www.w3.org/1999/02/22-rdf-syntax-ns#"
   xmlns:svg="http://www.w3.org/2000/svg"
   xmlns="http://www.w3.org/2000/svg"
   xmlns:sodipodi="http://sodipodi.sourceforge.net/DTD/sodipodi-0.dtd"
   xmlns:inkscape="http://www.inkscape.org/namespaces/inkscape"
   version="1.1"
   x="0px"
   y="0px"
   viewBox="0 0 100 125"
   enable-background="new 0 0 100 100"
   xml:space="preserve"
   id="svg2"
   inkscape:version="0.91 r13725"
   sodipodi:docname="noun_60040_cc.svg"><metadata
     id="metadata14"><rdf:RDF><cc:Work
         rdf:about=""><dc:format>image/svg+xml</dc:format><dc:type
           rdf:resource="http://purl.org/dc/dcmitype/StillImage" /></cc:Work></rdf:RDF></metadata><defs
     id="defs12" /><sodipodi:namedview
     pagecolor="#ffffff"
     bordercolor="#666666"
     borderopacity="1"
     objecttolerance="10"
     gridtolerance="10"
     guidetolerance="10"
     inkscape:pageopacity="0"
     inkscape:pageshadow="2"
     inkscape:window-width="1366"
     inkscape:window-height="712"
     id="namedview10"
     showgrid="false"
     inkscape:zoom="1.888"
     inkscape:cx="18.19375"
     inkscape:cy="62.5"
     inkscape:window-x="0"
     inkscape:window-y="0"
     inkscape:window-maximized="1"
     inkscape:current-layer="svg2" /><path
     d="M 99.87499,38.500263 C 99.87499,31.625118 94.249868,26 87.374724,26 c -4.625098,0 -8.625182,2.500053 -10.875229,6.250132 l -53.251121,0 C 21.123329,28.500053 16.998242,26 12.373145,26 5.4979998,26 -0.127119,31.625118 -0.127119,38.500263 c 0,6.875145 5.6251188,12.500263 12.500264,12.500263 4.625097,0 8.625181,-2.500052 10.875229,-6.250131 l 53.376123,0 c 2.125045,3.750079 6.250132,6.250131 10.875229,6.250131 6.750142,0 12.375264,-5.625118 12.375264,-12.500263 z m -87.501845,7.500158 c -4.125087,0 -7.5001584,-3.375071 -7.5001584,-7.500158 0,-4.125087 3.3750714,-7.500158 7.5001584,-7.500158 4.125086,0 7.500158,3.375071 7.500158,7.500158 0,4.125087 -3.375072,7.500158 -7.500159,7.500158 z m 75.001579,0 c -4.125087,0 -7.500158,-3.375071 -7.500158,-7.500158 0,-4.125087 3.375071,-7.500158 7.500158,-7.500158 4.125087,0 7.500158,3.375071 7.500158,7.500158 0,4.125087 -3.375071,7.500158 -7.500158,7.500158 z m 0,5.000105 -13.125277,22.750479 6.875145,0 0,2.250048 c 0,1.875039 -0.625013,6.250131 -6.250132,6.250131 l -51.626086,0 c -2.125045,-3.750079 -6.250132,-6.250131 -10.875229,-6.250131 -6.8751452,0 -12.500264,5.625118 -12.500264,12.500263 0,6.875145 5.6251188,12.500264 12.500264,12.500264 4.625097,0 8.625181,-2.500054 10.875229,-6.250132 l 51.626086,0 c 13.75029,0 18.750395,-11.250237 18.750395,-18.750395 l 0,-2.250048 6.875145,0 L 87.374724,51.000526 Z M 12.373145,96.001474 c -4.125087,0 -7.5001584,-3.375071 -7.5001584,-7.500158 0,-4.125087 3.3750714,-7.500158 7.5001584,-7.500158 4.125086,0 7.500158,3.375071 7.500158,7.500158 0,4.125087 -3.375072,7.500158 -7.500159,7.500158 z"
     id="path4"
     inkscape:connector-curvature="0"
     style="fill:#d45500" /></svg>