<?xml version="1.0" encoding="UTF-8" standalone="no"?>
<svg
   xmlns:ns="http://ns.adobe.com/SaveForWeb/1.0/"
   xmlns:dc="http://purl.org/dc/elements/1.1/"
   xmlns:cc="http://creativecommons.org/ns#"
   xmlns:rdf="http://www.w3.org/1999/02/22-rdf-syntax-ns#"
   xmlns:svg="http://www.w3.org/2000/svg"
   xmlns="http://www.w3.org/2000/svg"
   xmlns:sodipodi="http://sodipodi.sourceforge.net/DTD/sodipodi-0.dtd"
   xmlns:inkscape="http://www.inkscape.org/namespaces/inkscape"
   version="1.1"
   id="Layer_1"
   x="0px"
   y="0px"
   width="100px"
   height="100px"
   viewBox="5.0 -10.0 100.0 135.0"
   enable-background="new 0 0 100 100"
   xml:space="preserve"
   inkscape:version="0.91 r13725"
   sodipodi:docname="noun_7440_cc.svg"><defs
     id="defs21" /><sodipodi:namedview
     pagecolor="#ffffff"
     bordercolor="#666666"
     borderopacity="1"
     objecttolerance="10"
     gridtolerance="10"
     guidetolerance="10"
     inkscape:pageopacity="0"
     inkscape:pageshadow="2"
     inkscape:window-width="1366"
     inkscape:window-height="725"
     id="namedview19"
     showgrid="false"
     inkscape:zoom="2.36"
     inkscape:cx="50"
     inkscape:cy="50"
     inkscape:window-x="-7"
     inkscape:window-y="17"
     inkscape:window-maximized="1"
     inkscape:current-layer="Layer_1" /><metadata
     id="metadata3"><ns:sfw><ns:slices /><ns:sliceSourceBounds
         x="0.083"
         y="-99.397"
         width="99.612"
         height="99.046"
         bottomLeftOrigin="true" /></ns:sfw><rdf:RDF><cc:Work
         rdf:about=""><dc:format>image/svg+xml</dc:format><dc:type
           rdf:resource="http://purl.org/dc/dcmitype/StillImage" /></cc:Work></rdf:RDF></metadata><path
     d="m 76.049064,20.333886 c 0,15.511169 -12.573022,39.463143 -28.082885,39.463143 -15.509864,0 -28.084192,-23.951974 -28.084192,-39.463143 0,-15.5098639 12.574328,-28.0828859 28.084192,-28.0828859 15.509863,0 28.082885,12.573022 28.082885,28.0828859 z"
     id="path5"
     inkscape:connector-curvature="0"
     style="fill:#000000" /><g
     id="g7"
     transform="matrix(1.3064237,0,0,1.3064237,-8.125127,-8.2075549)"><rect
       x="84.732002"
       y="17.913"
       width="7.165"
       height="22.761"
       id="rect9"
       style="fill:#000000" /><rect
       x="76.935997"
       y="25.711"
       width="22.76"
       height="7.1659999"
       id="rect11"
       style="fill:#000000" /></g><path
     d="m 92.93328,56.840592 c 0,0 -12.412327,-2.906793 -27.440119,-4.496711 -4.89909,5.946841 -10.963509,10.038561 -17.528289,10.038561 -6.566086,0 -12.629198,-4.09172 -17.530901,-10.038561 -15.026486,1.589918 -27.4388183,4.496711 -27.4388183,4.496711 -6.0814032,0 -11.0131526,4.930444 -11.0131526,11.013153 l 0,42.781455 c 0,6.08271 4.9317494,11.01316 11.0131526,11.01316 l 89.9381273,0 c 6.0801,0 11.01316,-4.92914 11.01316,-11.01316 l 0,-42.781455 c 0,-6.082709 -4.93175,-11.013153 -11.01316,-11.013153 z"
     id="path13"
     inkscape:connector-curvature="0"
     style="fill:#000000" /></svg>