<?xml version="1.0" encoding="UTF-8" standalone="no"?>
<svg
   xmlns:dc="http://purl.org/dc/elements/1.1/"
   xmlns:cc="http://creativecommons.org/ns#"
   xmlns:rdf="http://www.w3.org/1999/02/22-rdf-syntax-ns#"
   xmlns:svg="http://www.w3.org/2000/svg"
   xmlns="http://www.w3.org/2000/svg"
   xmlns:sodipodi="http://sodipodi.sourceforge.net/DTD/sodipodi-0.dtd"
   xmlns:inkscape="http://www.inkscape.org/namespaces/inkscape"
   version="1.1"
   x="0px"
   y="0px"
   viewBox="0 0 100 125"
   enable-background="new 0 0 100 100"
   xml:space="preserve"
   id="svg2"
   inkscape:version="0.91 r13725"
   sodipodi:docname="noun_178537_cc.svg"><metadata
     id="metadata14"><rdf:RDF><cc:Work
         rdf:about=""><dc:format>image/svg+xml</dc:format><dc:type
           rdf:resource="http://purl.org/dc/dcmitype/StillImage" /></cc:Work></rdf:RDF></metadata><defs
     id="defs12" /><sodipodi:namedview
     pagecolor="#ffffff"
     bordercolor="#666666"
     borderopacity="1"
     objecttolerance="10"
     gridtolerance="10"
     guidetolerance="10"
     inkscape:pageopacity="0"
     inkscape:pageshadow="2"
     inkscape:window-width="1366"
     inkscape:window-height="712"
     id="namedview10"
     showgrid="false"
     inkscape:zoom="1.888"
     inkscape:cx="50"
     inkscape:cy="62.5"
     inkscape:window-x="0"
     inkscape:window-y="0"
     inkscape:window-maximized="1"
     inkscape:current-layer="svg2" /><path
     d="m 50,13.6 c -26.9,0 -48.8,21.8 -48.8,48.8 0,27 21.9,48.7 48.8,48.7 26.9,0 48.8,-21.8 48.8,-48.8 0,-27 -21.9,-48.7 -48.8,-48.7 z m 0.1,81.9 c -3,0 -5.5,-2.5 -5.5,-5.5 0,-3.1 2.5,-5.6 5.5,-5.6 3.1,0.1 5.6,2.5 5.6,5.6 0,3 -2.5,5.5 -5.6,5.5 z M 61.9,57.4 c -1.4,1.7 -2.8,3.1 -4.1,4.2 -3.5,3.5 -5.5,5.5 -5.5,9.6 0,1.2 -1,2.2 -2.2,2.2 -1.2,0 -2.2,-1 -2.2,-2.2 0,-5.8 3,-8.9 6.8,-12.7 1.2,-1.2 2.5,-2.5 3.9,-4.1 2.2,-2.5 3.5,-5.6 3.5,-8.8 0.1,-3.2 -1.2,-6.3 -3.5,-8.6 -4.8,-4.7 -12.5,-4.7 -17.2,0.1 -2.3,2.3 -3.6,5.3 -3.6,8.6 0,1.2 -1,2.2 -2.2,2.2 -1.2,0 -2.2,-1 -2.2,-2.2 0,-4.4 1.8,-8.6 4.9,-11.8 6.5,-6.5 17,-6.5 23.5,0 3.2,3.3 4.8,7.5 4.8,11.9 -0.1,4.2 -1.7,8.3 -4.7,11.6 z"
     id="path4"
     inkscape:connector-curvature="0" /></svg>