<?xml version="1.0" encoding="UTF-8" standalone="no"?>
<svg
   xmlns:dc="http://purl.org/dc/elements/1.1/"
   xmlns:cc="http://creativecommons.org/ns#"
   xmlns:rdf="http://www.w3.org/1999/02/22-rdf-syntax-ns#"
   xmlns:svg="http://www.w3.org/2000/svg"
   xmlns="http://www.w3.org/2000/svg"
   xmlns:sodipodi="http://sodipodi.sourceforge.net/DTD/sodipodi-0.dtd"
   xmlns:inkscape="http://www.inkscape.org/namespaces/inkscape"
   version="1.1"
   x="0px"
   y="0px"
   viewBox="0 0 100 125"
   id="svg2"
   inkscape:version="0.91 r13725"
   sodipodi:docname="noun_213188_cc.svg">
  <metadata
     id="metadata16">
    <rdf:RDF>
      <cc:Work
         rdf:about="">
        <dc:format>image/svg+xml</dc:format>
        <dc:type
           rdf:resource="http://purl.org/dc/dcmitype/StillImage" />
      </cc:Work>
    </rdf:RDF>
  </metadata>
  <defs
     id="defs14" />
  <sodipodi:namedview
     pagecolor="#ffffff"
     bordercolor="#666666"
     borderopacity="1"
     objecttolerance="10"
     gridtolerance="10"
     guidetolerance="10"
     inkscape:pageopacity="0"
     inkscape:pageshadow="2"
     inkscape:window-width="1366"
     inkscape:window-height="712"
     id="namedview12"
     showgrid="false"
     inkscape:zoom="1.888"
     inkscape:cx="50"
     inkscape:cy="62.5"
     inkscape:window-x="0"
     inkscape:window-y="0"
     inkscape:window-maximized="1"
     inkscape:current-layer="svg2" />
  <g
     transform="matrix(1.2059793,0,0,1.2059793,-9.8622,43.847222)"
     id="g4"
     style="fill:#008000">
    <path
       d="M 50,5 C 39.766783,5 31.46875,15.218727 31.46875,27.8125 c 0,12.6 8.298033,22.8125 18.53125,22.8125 10.233219,0 18.53125,-10.2125 18.53125,-22.8125 C 68.53125,15.218727 60.233219,5 50,5 Z M 31.375,53.78125 c -2.404152,-0.0062 -4.971172,0.888365 -7.46875,2.9375 -6.869896,5.624221 -11.602724,13.02221 -14.1875,21.21875 -2.416609,7.667128 1.916284,9.677963 8.40625,10.53125 5.319031,0.703805 8.871669,2.39866 13.3125,3.8125 C 39.758607,94.940767 44.824222,95 50,95 c 5.175779,0 10.241392,-0.05923 18.5625,-2.71875 4.440831,-1.41384 7.993469,-3.108695 13.3125,-3.8125 6.489965,-0.853287 10.822859,-2.864122 8.40625,-10.53125 -2.584775,-8.19654 -7.317603,-15.594529 -14.1875,-21.21875 -3.998616,-3.276125 -8.168037,-3.638063 -11.5625,-2 -5.088582,2.460207 -9.598378,3.75 -14.53125,3.75 -4.932871,0 -9.442669,-1.289793 -14.53125,-3.75 -1.270588,-0.610381 -2.648768,-0.931273 -4.09375,-0.9375 z"
       transform="translate(0,-36)"
       style="fill:#008000;fill-opacity:1;fill-rule:nonzero;stroke:none"
       id="path6"
       inkscape:connector-curvature="0" />
  </g>
</svg>
