<?xml version="1.0" encoding="UTF-8" standalone="no"?>
<svg
   xmlns:dc="http://purl.org/dc/elements/1.1/"
   xmlns:cc="http://creativecommons.org/ns#"
   xmlns:rdf="http://www.w3.org/1999/02/22-rdf-syntax-ns#"
   xmlns:svg="http://www.w3.org/2000/svg"
   xmlns="http://www.w3.org/2000/svg"
   xmlns:sodipodi="http://sodipodi.sourceforge.net/DTD/sodipodi-0.dtd"
   xmlns:inkscape="http://www.inkscape.org/namespaces/inkscape"
   version="1.1"
   id="Your_Icon"
   x="0px"
   y="0px"
   width="100px"
   height="100px"
   viewBox="5.0 -10.0 100.0 135.0"
   enable-background="new 0 0 100 100"
   xml:space="preserve"
   inkscape:version="0.91 r13725"
   sodipodi:docname="noun_21549_cc.svg"><metadata
     id="metadata13"><rdf:RDF><cc:Work
         rdf:about=""><dc:format>image/svg+xml</dc:format><dc:type
           rdf:resource="http://purl.org/dc/dcmitype/StillImage" /></cc:Work></rdf:RDF></metadata><defs
     id="defs11" /><sodipodi:namedview
     pagecolor="#ffffff"
     bordercolor="#666666"
     borderopacity="1"
     objecttolerance="10"
     gridtolerance="10"
     guidetolerance="10"
     inkscape:pageopacity="0"
     inkscape:pageshadow="2"
     inkscape:window-width="640"
     inkscape:window-height="480"
     id="namedview9"
     showgrid="false"
     inkscape:zoom="2.36"
     inkscape:cx="50"
     inkscape:cy="50"
     inkscape:window-x="0"
     inkscape:window-y="27"
     inkscape:window-maximized="0"
     inkscape:current-layer="Your_Icon" /><path
     d="m 117.76414,79.191331 c 2.64381,-9.435911 3.75789,-17.113709 3.30774,-22.823592 -0.43553,-5.526634 -2.32113,-9.293827 -5.60365,-11.194023 -3.73797,-2.164443 -9.0548,-1.693045 -15.37684,1.363733 -1.723583,0.833909 -3.493648,1.845752 -5.273006,3.010302 -0.459446,-0.331969 -0.922877,-0.658628 -1.388962,-0.978647 0.916237,-5.934293 1.511127,-10.433148 1.768735,-13.381041 0.130132,-1.497847 0.176608,-2.603971 0.142083,-3.383435 -0.02523,-0.5763 -0.09428,-2.108673 -1.430126,-2.384872 -1.318585,-0.272215 -2.013065,1.094173 -2.274657,1.60939 -0.316035,0.621446 -0.677218,1.49652 -1.106123,2.675677 -0.715726,1.969245 -1.613374,4.785677 -2.66771,8.369624 -0.257609,0.8764 -0.515217,1.767407 -0.771498,2.661069 C 85.420982,43.849821 83.710673,43.034503 81.960528,42.289563 80.534385,38.106742 78.785568,34.014218 76.808356,30.324042 74.152597,25.368396 71.221967,21.31438 68.094812,18.273536 64.534767,14.811755 60.826,12.778772 57.068101,12.231685 c -5.211927,-0.758219 -10.307,1.338503 -15.141809,6.23041 -2.553512,2.584054 -5.044613,5.971474 -7.453387,10.133048 -3.71939,1.120729 -7.258188,3.035531 -10.584526,5.735111 -5.785571,4.695381 -10.940398,11.80352 -15.3542698,21.165069 -0.1553616,-0.01595 -0.3147061,-0.02391 -0.4740528,-0.02391 -2.5269542,0 -4.5771988,2.048917 -4.5771988,4.577201 0,0.806022 0.2084765,1.562913 0.5749713,2.220214 -3.65963611,4.634302 -6.6712665,9.721408 -8.9870882,15.197583 -3.4524866,8.162474 -5.2026317,16.832197 -5.2026317,25.767499 0,0.78478 0.6360551,1.42083 1.4208311,1.42083 l 47.5819019,0 c 0.597546,1.83116 2.319806,3.15505 4.350133,3.15505 2.031655,0 3.752588,-1.32389 4.350134,-3.15505 l 73.272391,0 c 0.78477,0 1.42082,-0.63605 1.42082,-1.42083 0.001,-8.311198 -1.51245,-16.388688 -4.50018,-24.042584 z m -124.3612158,14.665101 10.5460183,0 c -0.6121523,3.287828 -0.9454501,6.03521 -1.0556648,7.953998 l -10.166244,0 c 0.059755,-2.695597 0.2881497,-5.350028 0.6758905,-7.953998 z m 2.5999878,-10.795661 8.414772,0 c 0.2841659,0.869762 0.8206288,1.623996 1.5244053,2.177723 -0.5550534,2.019704 -1.0264517,3.957079 -1.4195039,5.776274 l -10.6283457,0 C -5.5732807,88.2966 -4.866849,85.642169 -3.997088,83.060771 Z m 4.80559509,-10.796988 9.62314291,0 c -0.6825314,1.608063 -1.3119459,3.214797 -1.8895728,4.804269 -1.932064,0.09428 -3.5480936,1.386305 -4.1243932,3.149729 l -7.3816818,0 c 1.0755824,-2.750038 2.33839559,-5.405796 3.77250489,-7.953998 z M 98.36249,91.013441 c -0.06901,-0.212461 -0.154028,-0.416954 -0.252294,-0.614808 1.110112,-1.527061 1.916134,-3.301109 2.383554,-5.270354 0.15933,-0.670579 0.27885,-1.361076 0.35851,-2.068836 l 1.88692,0 c 0.71838,2.345036 1.28406,4.482922 1.72094,6.306099 0.13278,0.55771 0.26026,1.106123 0.37977,1.646571 l -6.4774,0 z m -15.674285,0 c -0.250969,-2.471184 -0.570988,-5.1535 -0.970679,-7.953998 l 8.961858,0 c 0.422266,1.852391 0.792743,3.652997 1.112763,5.3726 -0.999893,0.556382 -1.770063,1.475274 -2.129918,2.581398 l -6.974024,0 z M 8.6190939,86.211829 c 0.049132,0.0013 0.099584,0.004 0.148723,0.004 2.0316551,0 3.7525871,-1.323896 4.3501331,-3.155042 l 5.566469,0 c -0.62543,2.80581 -1.131352,5.489454 -1.531044,7.953998 l -9.7240614,0 c 0.11951,-0.540447 0.2469858,-1.090189 0.379774,-1.646571 0.2337066,-0.969352 0.5019386,-2.027671 0.8100063,-3.156369 z m 19.7468951,-35.540692 3.591913,0 c -1.726243,2.358315 -3.346256,5.012745 -4.852071,7.953998 l -5.825407,0 c 2.043606,-2.791202 4.393953,-5.501405 7.085565,-7.953998 z M 100.9678,80.217781 c -0.0319,-1.104795 -0.14873,-2.233493 -0.35322,-3.375468 0.43554,1.15127 0.83789,2.27864 1.20837,3.375468 l -0.85515,0 z m -4.897226,8.130606 c -0.459447,-0.232379 -0.96404,-0.389069 -1.497849,-0.454135 -0.289477,-1.554947 -0.617463,-3.172303 -0.987941,-4.833481 l 4.409887,0 c -0.270887,1.986507 -0.920219,3.775162 -1.924097,5.287616 z m -3.14973,-8.130606 c -0.638709,-2.601315 -1.379666,-5.275664 -2.233493,-7.953998 l 5.603651,0 c 0.452807,1.062305 0.827268,2.143199 1.112762,3.216126 0.436873,1.641258 0.678547,3.229402 0.730337,4.737872 l -5.213257,0 z m -47.948397,0 c 0.120838,-2.601315 0.280183,-5.276992 0.492644,-7.953998 l 7.98985,0 c -2.212247,2.356986 -4.12572,4.97822 -5.720504,7.845113 -0.01993,0.03585 -0.03983,0.07304 -0.05975,0.108885 l -2.702235,0 z m 1.270781,2.84299 c -0.552397,1.209698 -1.053008,2.457906 -1.504487,3.744619 0.03055,-1.216337 0.06905,-2.467198 0.115525,-3.744619 l 1.388962,0 z M 13.11795,80.217781 c -0.221756,-0.678546 -0.597546,-1.288043 -1.086206,-1.785997 1.301322,-2.121953 2.912039,-4.189459 4.780366,-6.168001 l 4.772399,0 c -0.853827,2.678334 -1.594783,5.352683 -2.233494,7.953998 l -6.233065,0 z M 28.002149,63.340435 c 1.067615,-0.650661 2.164444,-1.276093 3.289158,-1.873638 l 3.861473,0 c -0.527168,1.726243 -1.027779,3.538799 -1.50316,5.436338 -0.208477,0.835236 -0.408986,1.674455 -0.602857,2.517659 l -7.497206,0 c 0.200509,-0.556381 0.40633,-1.111435 0.618791,-1.66516 0.555054,-1.448717 1.164551,-2.929303 1.833801,-4.415199 z m 29.485562,5.185369 0,-7.057679 8.127949,0 c 0.08631,0.585595 0.169969,1.181812 0.25097,1.789981 -1.8909,0.910925 -3.818981,1.998459 -5.731128,3.302437 -0.913581,0.622775 -1.796621,1.278746 -2.647791,1.965261 z m 4.937055,-20.697657 -4.937055,0 0,-7.383008 c 1.865671,1.107451 3.521536,3.579961 4.937055,7.383008 z m 0.937483,2.84299 c 0.05046,0.173952 0.100914,0.350561 0.151379,0.528497 -1.963934,-0.124821 -3.978327,-0.135444 -6.025917,-0.0332 l 0,-0.4953 5.874538,0 z m 9.824979,7.953998 -5.140221,0 c -0.245657,-1.456684 -0.509905,-2.839007 -0.791416,-4.146968 1.626653,0.252298 3.208157,0.592234 4.737874,1.02114 0.420938,1.023795 0.817973,2.068835 1.193763,3.125828 z m 2.318478,-1.954638 c 1.44606,0.565676 2.835023,1.217665 4.160246,1.954638 l -3.464437,0 C 75.973119,57.95854 75.740741,57.306551 75.505706,56.670497 Z m -1.423487,-3.54411 c -0.370477,-0.851171 -0.75025,-1.670473 -1.13932,-2.45525 l 3.740637,0 c 1.285386,1.580177 2.467199,3.267912 3.54942,5.014073 -1.937376,-1.019811 -3.988948,-1.874965 -6.150737,-2.558823 z m -3.573323,-0.952091 c -1.288043,-0.282837 -2.609283,-0.511234 -3.962392,-0.685185 -0.07171,-0.276199 -0.144738,-0.549742 -0.2191,-0.817974 l 3.41265,0 c 0.26292,0.491315 0.5192,0.991925 0.768842,1.503159 z m -5.057892,-4.346149 c -0.772827,-2.25341 -1.634621,-4.152279 -2.588037,-5.701914 1.942688,1.395602 3.66893,3.366175 5.199975,5.701914 l -2.611938,0 z m -10.804955,-7.298025 0,7.298025 -4.798956,0 c 1.379666,-3.710094 2.989056,-6.153392 4.798956,-7.298025 z m 0,10.141015 0,0.706431 c -2.046262,0.201839 -4.115097,0.513891 -6.189246,0.932172 0.147395,-0.564349 0.297445,-1.110106 0.452807,-1.638603 l 5.736439,0 z m -6.908956,4.696709 c 2.33574,-0.524511 4.642265,-0.902957 6.907628,-1.136664 l 0,4.39528 -7.535715,0 c 0.199181,-1.136664 0.407659,-2.221542 0.628087,-3.258616 z m 9.750618,-1.357093 c 2.314494,-0.11818 4.575873,-0.081 6.769529,0.107554 0.324003,1.404897 0.624104,2.908057 0.902958,4.506824 l -7.672487,0 0,-4.614382 z m 11.002809,7.457372 1.618684,0 c -0.505922,0.184576 -1.018483,0.382429 -1.535028,0.592234 -0.02789,-0.199182 -0.05577,-0.397036 -0.08366,-0.592234 z m 5.64216,-13.639978 -2.719498,0 C 71.136983,47.356751 70.8568,46.89996 70.572634,46.459104 c -0.808679,-1.253518 -1.650554,-2.382215 -2.521642,-3.38742 2.220213,1.288042 4.242574,2.908056 6.081688,4.756463 z M 49.407564,42.126233 c -0.953416,1.549635 -1.81521,3.448504 -2.588037,5.701914 l -2.611938,0 c 1.531046,-2.335739 3.257288,-4.306312 5.199975,-5.701914 z m -3.463109,8.544904 c -0.208476,0.750252 -0.407658,1.532373 -0.600201,2.346364 -0.164657,0.04117 -0.329315,0.08366 -0.495299,0.126147 -1.375683,0.359856 -2.739416,0.763532 -4.08854,1.205715 0.552397,-1.272108 1.141976,-2.50438 1.768734,-3.679553 l 3.415306,0 z m -1.269452,5.464224 c -0.15669,0.804695 -0.308068,1.633292 -0.451478,2.489774 l -5.140223,0 c 0.09162,-0.258937 0.184576,-0.516545 0.278856,-0.772825 1.738194,-0.644023 3.51224,-1.217666 5.312845,-1.716949 z m -8.267377,11.458271 c 0.501938,-2.00377 1.074254,-4.06995 1.723587,-6.125507 l 5.648799,0 c -0.188559,1.3146 -0.365166,2.683643 -0.528496,4.107131 -0.146067,1.272107 -0.277526,2.557496 -0.397036,3.846866 l -6.889038,0 c 0.142082,-0.610824 0.289478,-1.220321 0.442184,-1.82849 z m 9.666962,-1.694374 c 0.176608,-1.54034 0.370478,-3.01827 0.578955,-4.431133 l 7.991178,0 0,7.953997 -8.936628,0 c 0.111542,-1.181812 0.233707,-2.358314 0.366495,-3.522864 z m 15.663666,3.008975 c 1.460666,-0.995909 2.970465,-1.874966 4.497526,-2.647792 0.118182,1.046369 0.22574,2.102033 0.325331,3.160353 l -5.555847,0 c 0.243002,-0.172624 0.486003,-0.343921 0.73299,-0.512561 z m 7.280762,-3.332977 c -0.02258,-0.192543 -0.04515,-0.383758 -0.06772,-0.574972 1.914803,-0.811335 3.824293,-1.464651 5.664733,-1.978541 0.456791,1.537684 0.872417,3.071385 1.246879,4.570562 0.152706,0.608168 0.300102,1.217665 0.443512,1.827161 l -6.889038,0 c -0.119509,-1.288043 -0.25097,-2.572103 -0.398364,-3.84421 z m 9.601895,1.327879 c -0.395708,-1.580176 -0.808678,-3.101927 -1.24024,-4.562594 0.973337,-0.208477 1.916131,-0.377117 2.816433,-0.508578 0.695809,1.639932 2.321133,2.791203 4.214689,2.791203 0.139428,0 0.277527,-0.0066 0.41297,-0.01993 0.455463,1.060976 0.881714,2.115311 1.278749,3.152387 0.211133,0.553725 0.416954,1.108778 0.618792,1.665159 l -7.497208,0 C 79.029898,68.578914 78.829388,67.738366 78.620911,66.90313 Z m 10.137032,-0.162002 c -0.427578,-1.116745 -0.868434,-2.204279 -1.32124,-3.262599 0.282838,-0.249642 0.535135,-0.533808 0.750251,-0.84586 2.66771,1.402242 4.963614,3.899983 6.668611,6.789448 l -5.117647,0 c -0.31338,-0.897647 -0.640039,-1.792637 -0.979975,-2.680989 z m -8.042966,-16.069996 0.719711,0 c 0.120837,0.505923 0.235034,1.010517 0.34392,1.512456 -0.338609,-0.499283 -0.693153,-1.003879 -1.063631,-1.512456 z M 44.21954,43.073011 c -0.872417,1.005206 -1.712963,2.133902 -2.521642,3.387421 -0.284166,0.440856 -0.564349,0.897645 -0.840548,1.369044 l -2.719498,0 c 1.839113,-1.849736 3.861474,-3.46975 6.081688,-4.756465 z m -4.891908,7.598126 c -0.758218,1.532373 -1.483241,3.190894 -2.173738,4.974237 -2.256067,0.881712 -4.457691,1.877621 -6.587609,2.979761 l -0.233708,0 c 1.51644,-2.789875 3.259945,-5.500076 5.254419,-7.953998 l 3.740636,0 z M 23.513917,66.741133 c -0.339937,0.88968 -0.666595,1.783342 -0.979975,2.680989 l -2.791202,0 c 1.248206,-1.112763 2.577413,-2.18569 3.978327,-3.214796 -0.06906,0.176609 -0.139428,0.354543 -0.20715,0.533807 z m 1.056992,5.52265 7.857062,0 c -0.555054,2.674349 -1.035746,5.348698 -1.447388,7.953998 l -8.706906,0 c 0.6573,-2.6053 1.418175,-5.280975 2.297232,-7.953998 z m 10.758479,0 7.283418,0 c -0.209804,2.680989 -0.367823,5.355339 -0.486003,7.953998 l -8.27269,0 c 0.41297,-2.582725 0.90163,-5.257074 1.475275,-7.953998 z m 19.316661,2.894778 0,5.05922 -3.711423,0 c 1.096828,-1.800604 2.333084,-3.488339 3.711423,-5.05922 z m 2.841662,-2.894778 9.319058,0 c 0.21246,2.677006 0.371806,5.352683 0.492642,7.953998 l -9.8117,0 0,-7.953998 z m 12.170014,0 7.283419,0 c 0.573643,2.696924 1.062303,5.369944 1.476602,7.953998 l -8.272689,0 C 70.025549,77.619122 69.86753,74.944772 69.657725,72.263783 Z m 10.186163,0 7.857063,0 c 0.877727,2.673023 1.63993,5.348698 2.295903,7.953998 l -8.706906,0 c -0.411641,-2.6053 -0.891005,-5.279649 -1.44606,-7.953998 z M 94.3762,63.985784 c -0.879056,-0.964041 -1.801932,-1.804588 -2.756677,-2.517659 l 1.33319,0 c 0.648006,0.994581 1.260157,1.991818 1.836458,2.985072 C 94.653727,64.29518 94.515628,64.13849 94.3762,63.985784 Z M 84.827419,52.905959 c -0.112869,-0.568333 -0.232379,-1.14065 -0.359855,-1.714293 0.220429,0.207149 0.4382,0.416954 0.653317,0.626759 -0.09958,0.369151 -0.197854,0.731662 -0.293462,1.087534 z m -6.314066,-5.077812 c -0.796727,-0.97068 -1.645242,-1.945343 -2.538905,-2.914695 1.578848,0.884368 3.072713,1.863015 4.486904,2.914695 l -1.947999,0 z M 35.652062,46.246643 c -0.486004,0.505923 -0.965368,1.034419 -1.438093,1.582833 l -2.404789,0 c 1.90949,-1.422159 3.966375,-2.707546 6.17995,-3.811015 -0.795399,0.691826 -1.574865,1.43411 -2.337068,2.228182 z M 25.605328,61.468125 c -1.233601,0.779465 -2.434004,1.596111 -3.595898,2.448609 -2.370265,1.739523 -4.52143,3.582618 -6.429593,5.505388 l -0.735644,0 c 0.246985,-0.508577 0.50061,-1.017156 0.760874,-1.525733 1.075583,-2.102033 2.309183,-4.271789 3.714079,-6.428264 l 6.286182,0 z m -4.01418,21.592646 8.961858,0 c -0.399691,2.800498 -0.719711,5.482814 -0.970679,7.953997 l -9.55675,0 c 0.408987,-2.467199 0.925532,-5.150844 1.565571,-7.953997 z m 11.828749,0 8.588724,0 c -0.102245,2.812449 -0.162001,5.496093 -0.195198,7.953997 l -9.369517,0 c 0.248313,-2.440641 0.568331,-5.124286 0.975991,-7.953997 z m 15.947832,0 5.27832,0 0,7.953997 -8.246131,0 c 0.752907,-2.837677 1.743505,-5.489453 2.967811,-7.953997 z m 8.119982,0 9.928554,0 c 0.103576,2.811121 0.163329,5.494764 0.196526,7.953997 l -10.12508,0 0,-7.953997 z m 12.7742,0 8.588724,0 c 0.407659,2.831039 0.727677,5.513356 0.975991,7.953997 l -9.369517,0 c -0.03453,-2.459233 -0.09295,-5.142876 -0.195198,-7.953997 z m 35.443759,0 10.42518,0 c 0.86843,2.581398 1.57619,5.237156 2.10868,7.953997 l -10.49159,0 c -0.53247,-2.464544 -1.20704,-5.148187 -2.04227,-7.953997 z m 9.39075,-2.84299 -10.27911,0 c -0.85249,-2.599988 -1.84043,-5.274336 -2.97711,-7.953998 l 9.48505,0 c 1.43412,2.548202 2.69559,5.20396 3.77117,7.953998 z M 100.57607,69.420794 c -0.43953,-0.944122 -0.898972,-1.884261 -1.377007,-2.820416 -0.914916,-1.787326 -1.873643,-3.498962 -2.874864,-5.133581 l 7.345841,0 c 2.18435,2.487118 4.1775,5.145532 5.95685,7.953997 l -9.05082,0 z m -6.087,-10.795659 c -0.824614,-1.211026 -1.673128,-2.372921 -2.548201,-3.487012 0.920221,-0.732989 1.845752,-1.427469 2.768629,-2.080787 2.22287,1.715621 4.328885,3.577308 6.304772,5.567799 l -6.5252,0 z m -3.498963,0 -2.229509,0 c -0.06507,-0.199182 -0.142082,-0.393052 -0.233706,-0.578955 0.401019,-0.363839 0.803366,-0.722367 1.208369,-1.074255 0.431562,0.547087 0.848515,1.098156 1.254846,1.65321 z m -3.925211,-3.085993 c 0.114198,-0.426248 0.232379,-0.868432 0.353216,-1.322567 0.169968,0.188559 0.337282,0.378446 0.503266,0.568332 -0.286821,0.246987 -0.572316,0.499284 -0.856482,0.754235 z M 57.244708,37.044439 c -0.081,-0.0013 -0.162001,-0.0026 -0.243001,-0.004 -0.04913,-0.0013 -0.09826,-0.0013 -0.147394,-0.0026 -0.216445,-0.0026 -0.432889,-0.0053 -0.650661,-0.0053 -0.0026,0 -0.0066,0 -0.0094,0 -0.0094,0 -0.01858,0 -0.02657,0 -0.02391,0 -0.04913,0 -0.07304,0 -0.0026,0 -0.0053,0 -0.0066,0 -0.0066,0 -0.01328,0 -0.02125,0 -0.183247,0 -0.365167,0.0013 -0.547086,0.004 -8.425396,0.06772 -16.607788,1.693046 -24.346669,4.837464 1.690391,-4.075261 3.425929,-7.701699 5.19732,-10.871347 1.99713,-0.497956 4.052688,-0.747596 6.166672,-0.747596 0.228395,0 0.458118,0.0026 0.687841,0.0094 6.283526,0.159346 13.123432,2.650448 19.749551,7.122746 -1.896213,-0.195199 -3.805702,-0.309397 -5.729801,-0.342594 z m -26.974541,8.323148 c -0.329314,0.241674 -0.655972,0.48866 -0.979974,0.742284 -0.703777,0.548415 -1.395602,1.122059 -2.078132,1.719605 l -1.856375,0 c 1.597439,-0.88968 3.237369,-1.71031 4.914481,-2.461889 z m -9.543469,5.30355 3.494979,0 c -2.290592,2.359642 -4.439102,5.015401 -6.438887,7.953998 l -5.371272,0 c -0.100925,-0.310724 -0.235035,-0.606841 -0.397035,-0.884368 2.684971,-2.602644 5.599666,-4.970252 8.712215,-7.06963 z M 8.0587281,64.623166 c 2.0316559,0 3.7525879,-1.323895 4.3501339,-3.155041 l 3.53747,0 c -0.999892,1.634619 -1.958621,3.346256 -2.874858,5.133582 -0.479365,0.934826 -0.937484,1.876292 -1.377011,2.820415 l -9.1889257,0 c 1.1379932,-1.79662 2.3636251,-3.533486 3.6729143,-5.20263 0.5749723,0.257608 1.2110264,0.403674 1.8802765,0.403674 z m -1.2163367,29.233266 9.8834066,0 c -0.459446,3.287828 -0.70776,6.03521 -0.791417,7.953998 l -10.1941296,0 c 0.1208373,-1.916132 0.4780368,-4.695384 1.10214,-7.953998 z m 12.7449866,0 9.728044,0 c -0.28151,3.24932 -0.431561,5.99139 -0.480692,7.953998 l -10.057359,0 c 0.08498,-1.91082 0.341266,-4.662186 0.810007,-7.953998 z m 12.589624,0 9.609863,0 c -0.01194,1.880276 -0.01194,3.575978 -0.0066,5.031333 -1.374354,0.455463 -2.459233,1.545655 -2.909383,2.922665 l -7.187811,0 c 0.05179,-1.73421 0.195198,-4.504169 0.493972,-7.953998 z m 12.770216,5.136236 c 0.187231,-1.768736 0.450151,-3.4817 0.786104,-5.136236 l 8.911399,0 0,7.953998 -7.073612,0 c -0.416955,-1.2814 -1.384979,-2.313167 -2.623891,-2.817762 z m 12.540493,-5.136236 10.154294,0 c 0.01993,2.969137 0.0053,5.478829 -0.0053,7.300678 -0.0013,0.2284 -0.0026,0.44484 -0.004,0.65332 l -10.144999,0 0,-7.953998 z m 12.991972,7.316618 c 0.01064,-1.827166 0.02391,-4.34217 0.0053,-7.316618 l 9.609864,0 c 0.298773,3.449829 0.442184,6.221118 0.493971,7.953998 l -10.111801,0 c 0,-0.20317 0.0013,-0.41563 0.0026,-0.63738 z m 12.475427,-7.316618 6.70579,0 c 0.503266,1.542994 1.804589,2.726135 3.417963,3.059433 0.223083,1.949327 0.357199,3.610505 0.414298,4.893235 l -10.05736,0 c -0.04913,-1.961278 -0.199182,-4.703348 -0.480691,-7.952668 z m 12.941511,2.748709 c 1.161896,-0.52584 2.064853,-1.523078 2.465869,-2.748709 l 7.06698,0 c 0.6241,3.258614 0.9813,6.037866 1.10214,7.953998 l -10.194133,0 c -0.05976,-1.35577 -0.200509,-3.124503 -0.440856,-5.205289 z m 12.424959,-2.748709 10.40792,0 c 0.38775,2.60397 0.61614,5.258401 0.6759,7.953998 l -10.02814,0 c -0.11022,-1.918788 -0.44352,-4.66617 -1.05568,-7.953998 z m -6.9926,-44.76016 c 3.78844,-1.832473 9.07075,-3.573323 12.71445,-1.463323 4.96095,2.873531 5.61028,12.51792 1.90151,27.334397 -3.25197,-6.886382 -7.63928,-13.116792 -13.06899,-18.546491 -1.79662,-1.796621 -3.680868,-3.477715 -5.647465,-5.043287 1.386306,-0.867104 2.757998,-1.631962 4.100495,-2.281296 z m -11.195355,3.849522 c -0.598873,-0.690497 -1.20837,-1.359747 -1.827161,-2.006425 0.02391,-0.08896 0.04913,-0.177936 0.07304,-0.268232 l 3.027565,0 c 0.301428,0.203165 0.600201,0.408987 0.897647,0.617464 -0.725023,0.529824 -1.450045,1.082222 -2.171084,1.657193 z M 90.2372,44.07556 c 0.701121,-2.41674 1.290699,-4.355444 1.785998,-5.910391 -0.281511,2.347691 -0.686514,5.261059 -1.209698,8.702922 -0.389069,-0.240346 -0.779465,-0.476709 -1.173846,-0.709088 0.197854,-0.695809 0.397037,-1.392945 0.597546,-2.083443 z m -3.94513,3.485685 c -0.02523,0.08896 -0.05045,0.179262 -0.07436,0.268231 l -1.157911,0 c -0.604185,-0.528496 -1.217666,-1.03973 -1.840441,-1.529718 -0.0332,-0.116852 -0.0664,-0.235034 -0.100925,-0.351888 1.074255,0.50725 2.132575,1.045041 3.173632,1.613375 z M 56.659114,15.042806 c 6.109573,0.888351 12.375837,6.792102 17.643534,16.622394 1.545651,2.884153 2.943908,6.020604 4.15095,9.24868 -3.111221,-1.119403 -6.288836,-1.998459 -9.520894,-2.635841 -7.332551,-5.97413 -16.310344,-10.620379 -25.63604,-10.856742 -1.689062,-0.04249 -3.35024,0.06108 -4.980876,0.308068 C 44.179704,18.472719 50.39418,14.13188 56.659114,15.042806 Z M 32.431955,32.339762 c -1.710308,3.330322 -3.37547,7.060336 -4.990171,11.1834 -5.237157,2.51102 -10.087899,5.683324 -14.493803,9.473092 C 18.50914,42.454219 25.025043,35.549247 32.431955,32.339762 Z"
     id="path3"
     inkscape:connector-curvature="0"
     style="fill:#000000" /></svg>