<?xml version="1.0" encoding="UTF-8" standalone="no"?>
<svg
   xmlns:dc="http://purl.org/dc/elements/1.1/"
   xmlns:cc="http://creativecommons.org/ns#"
   xmlns:rdf="http://www.w3.org/1999/02/22-rdf-syntax-ns#"
   xmlns:svg="http://www.w3.org/2000/svg"
   xmlns="http://www.w3.org/2000/svg"
   xmlns:sodipodi="http://sodipodi.sourceforge.net/DTD/sodipodi-0.dtd"
   xmlns:inkscape="http://www.inkscape.org/namespaces/inkscape"
   version="1.1"
   x="0px"
   y="0px"
   viewBox="0 0 100 125"
   id="svg2"
   inkscape:version="0.91 r13725"
   sodipodi:docname="noun_213886_cc.svg">
  <metadata
     id="metadata16">
    <rdf:RDF>
      <cc:Work
         rdf:about="">
        <dc:format>image/svg+xml</dc:format>
        <dc:type
           rdf:resource="http://purl.org/dc/dcmitype/StillImage" />
      </cc:Work>
    </rdf:RDF>
  </metadata>
  <defs
     id="defs14" />
  <sodipodi:namedview
     pagecolor="#ffffff"
     bordercolor="#666666"
     borderopacity="1"
     objecttolerance="10"
     gridtolerance="10"
     guidetolerance="10"
     inkscape:pageopacity="0"
     inkscape:pageshadow="2"
     inkscape:window-width="1366"
     inkscape:window-height="712"
     id="namedview12"
     showgrid="false"
     inkscape:zoom="1.888"
     inkscape:cx="50"
     inkscape:cy="62.5"
     inkscape:window-x="0"
     inkscape:window-y="0"
     inkscape:window-maximized="1"
     inkscape:current-layer="svg2" />
  <g
     transform="matrix(1.0756045,0,0,1.0756045,-4.3771943,50.028402)"
     id="g4"
     style="fill:#d45500">
    <path
       d="M 37.84375,11.46875 C 29.634795,11.46875 23,19.672651 23,29.78125 c 0,10.10237 6.634795,18.28125 14.84375,18.28125 8.208953,0 14.875,-8.17888 14.875,-18.28125 0,-10.108599 -6.666047,-18.3125 -14.875,-18.3125 z M 71.28125,47.125 c -0.429757,0 -0.844508,0.257528 -1.0625,0.625 L 47.75,86.6875 c -0.217992,0.367472 -0.211765,0.845049 0,1.21875 0.211763,0.367472 0.632745,0.625 1.0625,0.625 l 44.96875,0 c 0.429756,0 0.850737,-0.257528 1.0625,-0.625 0.217992,-0.373701 0.217965,-0.851278 0,-1.21875 l -22.5,-38.9375 c -0.211765,-0.367472 -0.638974,-0.625 -1.0625,-0.625 z m -48.375,3.46875 c -1.930786,-0.0062 -4.000702,0.705696 -6,2.34375 -5.512083,4.515547 -9.3009621,10.460349 -11.375,17.03125 -1.9370144,6.147373 1.5493347,7.752384 6.75,8.4375 4.266414,0.560551 7.131117,1.922712 10.6875,3.0625 6.676783,2.130092 10.720696,2.1875 14.875,2.1875 2.846352,0 5.650126,-0.02118 9.28125,-0.71875 C 52.032933,73.981145 57.280324,65.206788 62.40625,56.375 61.297605,55.166703 60.076745,54.002546 58.78125,52.9375 55.573654,50.315369 52.221787,50.060819 49.5,51.375 c -4.079563,1.968156 -7.701253,2.96875 -11.65625,2.96875 -3.954997,0 -7.545436,-1.000594 -11.625,-2.96875 -1.015219,-0.492041 -2.154029,-0.775022 -3.3125,-0.78125 z m 48.375,6.1875 c 0.566779,0 1.107615,0.320354 1.5,0.78125 0.392385,0.460898 0.682137,1.090012 0.9375,1.8125 0.523179,1.438747 0.84375,3.313528 0.84375,5.40625 0,2.192376 -0.677317,5.026916 -1.34375,7.375 -0.666432,2.348085 -1.34375,4.1875 -1.34375,4.1875 -0.09342,0.26159 -0.344617,0.4375 -0.59375,0.4375 -0.242905,0 -0.469074,-0.17591 -0.5625,-0.4375 0,0 -0.683546,-1.839415 -1.34375,-4.1875 -0.666433,-2.348084 -1.34375,-5.182624 -1.34375,-7.375 0,-2.092722 0.295548,-3.967503 0.8125,-5.40625 0.26159,-0.722488 0.576365,-1.351602 0.96875,-1.8125 0.392385,-0.460896 0.901971,-0.78125 1.46875,-0.78125 z m 0,21.4375 c 1.575769,0 2.875,1.261751 2.875,2.84375 0,1.581999 -1.299231,2.875 -2.875,2.875 -1.575771,0 -2.84375,-1.293001 -2.84375,-2.875 0,-1.57577 1.267979,-2.84375 2.84375,-2.84375 z"
       transform="translate(0,-36)"
       style="fill:#d45500;fill-opacity:1;fill-rule:nonzero;stroke:none"
       id="path6"
       inkscape:connector-curvature="0" />
  </g>
</svg>
