<?xml version="1.0" encoding="UTF-8" standalone="no"?>
<svg
   xmlns:dc="http://purl.org/dc/elements/1.1/"
   xmlns:cc="http://creativecommons.org/ns#"
   xmlns:rdf="http://www.w3.org/1999/02/22-rdf-syntax-ns#"
   xmlns:svg="http://www.w3.org/2000/svg"
   xmlns="http://www.w3.org/2000/svg"
   xmlns:sodipodi="http://sodipodi.sourceforge.net/DTD/sodipodi-0.dtd"
   xmlns:inkscape="http://www.inkscape.org/namespaces/inkscape"
   version="1.1"
   x="0px"
   y="0px"
   viewBox="0 0 100 125"
   enable-background="new 0 0 100 100"
   xml:space="preserve"
   id="svg2"
   inkscape:version="0.91 r13725"
   sodipodi:docname="noun_42425_cc.svg"><metadata
     id="metadata18"><rdf:RDF><cc:Work
         rdf:about=""><dc:format>image/svg+xml</dc:format><dc:type
           rdf:resource="http://purl.org/dc/dcmitype/StillImage" /></cc:Work></rdf:RDF></metadata><defs
     id="defs16" /><sodipodi:namedview
     pagecolor="#ffffff"
     bordercolor="#666666"
     borderopacity="1"
     objecttolerance="10"
     gridtolerance="10"
     guidetolerance="10"
     inkscape:pageopacity="0"
     inkscape:pageshadow="2"
     inkscape:window-width="1366"
     inkscape:window-height="709"
     id="namedview14"
     showgrid="false"
     inkscape:zoom="1.888"
     inkscape:cx="50"
     inkscape:cy="62.5"
     inkscape:window-x="-2"
     inkscape:window-y="0"
     inkscape:window-maximized="1"
     inkscape:current-layer="svg2" /><g
     id="g4"
     transform="translate(0,12)"><path
       d="M 99,57.669 99,41.331 87.822,38.01 C 87.084,35.6 86.217,33.29 85.052,31.102 L 90.793,20.71 79.266,9.158 68.886,14.851 C 66.698,13.687 64.394,12.915 61.985,12.178 L 58.669,1 42.331,1 39.01,12.178 c -2.41,0.737 -4.72,1.605 -6.908,2.769 L 21.71,9.206 10.158,20.734 15.851,31.113 c -1.164,2.188 -2.436,4.493 -3.173,6.902 L 1,41.331 1,57.669 12.678,60.99 c 0.737,2.41 1.855,4.721 3.019,6.908 l -5.616,10.391 11.591,11.553 10.411,-5.693 c 2.188,1.164 4.508,2.437 6.917,3.174 L 42.331,99 58.669,99 61.99,87.322 c 2.41,-0.737 4.721,-1.855 6.908,-3.02 l 10.391,5.616 11.553,-11.591 -5.693,-10.41 c 1.164,-2.188 1.937,-4.509 2.674,-6.918 L 99,57.669 Z M 50.5,79.873 c -16.774,0 -30.373,-13.599 -30.373,-30.373 0,-16.774 13.598,-30.372 30.373,-30.372 16.775,0 30.373,13.598 30.373,30.372 0,16.774 -13.598,30.373 -30.373,30.373 z"
       id="path6"
       inkscape:connector-curvature="0" /><path
       d="m 53.125,50.135 4.353,-4.354 c 1.64,-1.64 0.89,-4.44 -1.35,-5.04 L 40.15,36.461 c -2.24,-0.6 -4.289,1.449 -3.689,3.689 l 4.281,15.977 c 0.6,2.24 3.4,2.99 5.04,1.35 l 4.354,-4.353 9.907,9.907 c 0.817,0.817 2.142,0.817 2.959,0 l 0.03,-0.03 c 0.817,-0.817 0.817,-2.142 0,-2.959 l -9.907,-9.907 z"
       id="path8"
       inkscape:connector-curvature="0" /></g></svg>