<?xml version="1.0" encoding="UTF-8" standalone="no"?>
<svg
   xmlns:dc="http://purl.org/dc/elements/1.1/"
   xmlns:cc="http://creativecommons.org/ns#"
   xmlns:rdf="http://www.w3.org/1999/02/22-rdf-syntax-ns#"
   xmlns:svg="http://www.w3.org/2000/svg"
   xmlns="http://www.w3.org/2000/svg"
   xmlns:sodipodi="http://sodipodi.sourceforge.net/DTD/sodipodi-0.dtd"
   xmlns:inkscape="http://www.inkscape.org/namespaces/inkscape"
   viewBox="0 0 100 125"
   version="1.1"
   x="0px"
   y="0px"
   id="svg2"
   inkscape:version="0.91 r13725"
   sodipodi:docname="noun_155540_cc.svg">
  <metadata
     id="metadata16">
    <rdf:RDF>
      <cc:Work
         rdf:about="">
        <dc:format>image/svg+xml</dc:format>
        <dc:type
           rdf:resource="http://purl.org/dc/dcmitype/StillImage" />
      </cc:Work>
    </rdf:RDF>
  </metadata>
  <defs
     id="defs14" />
  <sodipodi:namedview
     pagecolor="#ffffff"
     bordercolor="#666666"
     borderopacity="1"
     objecttolerance="10"
     gridtolerance="10"
     guidetolerance="10"
     inkscape:pageopacity="0"
     inkscape:pageshadow="2"
     inkscape:window-width="743"
     inkscape:window-height="480"
     id="namedview12"
     showgrid="false"
     inkscape:zoom="1.888"
     inkscape:cx="61.00568"
     inkscape:cy="62.5"
     inkscape:window-x="0"
     inkscape:window-y="0"
     inkscape:window-maximized="0"
     inkscape:current-layer="svg2" />
  <g
     transform="matrix(1.3383945,0,0,1.3383945,-16.919727,-1280.9706)"
     id="g4">
    <path
       style="color:#000000;font-style:normal;font-variant:normal;font-weight:normal;font-stretch:normal;font-size:medium;line-height:normal;font-family:sans-serif;text-indent:0;text-align:start;text-decoration:none;text-decoration-line:none;text-decoration-style:solid;text-decoration-color:#000000;letter-spacing:normal;word-spacing:normal;text-transform:none;direction:ltr;block-progression:tb;writing-mode:lr-tb;baseline-shift:baseline;text-anchor:start;white-space:normal;clip-rule:nonzero;display:inline;overflow:visible;visibility:visible;opacity:1;isolation:auto;mix-blend-mode:normal;color-interpolation:sRGB;color-interpolation-filters:linearRGB;solid-color:#000000;solid-opacity:1;fill:#000000;fill-opacity:1;fill-rule:nonzero;stroke:none;stroke-width:1.5;stroke-linecap:round;stroke-linejoin:round;stroke-miterlimit:4;stroke-dasharray:none;stroke-dashoffset:0;stroke-opacity:1;color-rendering:auto;image-rendering:auto;shape-rendering:auto;text-rendering:auto;enable-background:accumulate"
       d="m 67.422429,975.07796 c -17.441637,0.0192 -34.88975,0.12012 -52.311843,0.006 -0.257006,-0.002 -0.504221,0.0953 -0.703273,0.25786 -0.006,0.005 -0.01173,0.01 -0.01758,0.0147 C 14.081844,975.61282 14,976.0079 14,976.4085 l 0,34.6831 c 6.2e-5,0.6214 0.503812,1.1252 1.125238,1.1253 l 33.801091,0 c 0.586857,9.7104 8.643143,17.4324 18.49903,17.4324 10.236196,0 18.569433,-8.3215 18.560564,-18.5577 -0.0099,-11.41928 0,-23.18198 0,-34.69189 0.108903,-0.68861 -0.428123,-1.30955 -1.125238,-1.30106 -5.811227,-0.0247 -11.624378,-0.0269 -17.438256,-0.0205 z m -51.171953,2.27098 67.484971,0 0,24.88706 c -3.148794,-5.77618 -9.278806,-9.70218 -16.310088,-9.70218 -9.856474,0 -17.913032,7.72128 -18.49903,17.43238 l -32.675853,0 z m 4.688491,3.56033 c -1.52167,-0.0215 -1.52167,2.27195 0,2.25045 l 58.107989,0 c 1.521671,0.021 1.521671,-2.27196 0,-2.25045 z m 0,5.81075 c -1.521685,-0.021 -1.521685,2.272 0,2.2505 l 34.864794,0 c 1.521684,0.022 1.521684,-2.272 0,-2.2505 z m 0,5.8138 c -1.521685,-0.022 -1.521685,2.272 0,2.2505 l 23.243195,0 c 1.521685,0.022 1.521685,-2.272 0,-2.2505 z m 46.486392,2.2505 c 9.019955,0 16.310088,7.28718 16.310088,16.30708 0,9.0199 -7.290133,16.3072 -16.310088,16.3072 -8.975387,0 -16.241481,-7.2171 -16.301299,-16.1753 -6.09e-4,-0.091 -6.56e-4,-0.1814 0,-0.2725 0.06436,-8.9543 7.328793,-16.16648 16.301299,-16.16648 z m -0.0117,6.45248 c -0.369837,10e-5 -0.716,0.182 -0.925976,0.4864 l -8.574079,8.5712 c -1.104572,1.0605 0.53061,2.6957 1.591157,1.5911 l 6.795383,-6.7924 0,14.713 c -0.02152,1.5217 2.271996,1.5217 2.250475,0 l 0,-14.716 6.795383,6.7954 c 1.060545,1.1046 2.695779,-0.5306 1.591155,-1.5911 l -8.650266,-8.6474 c -0.0123,-0.014 -0.02506,-0.028 -0.03809,-0.041 l -0.02638,-0.026 c -0.01425,-0.015 -0.0289,-0.03 -0.04396,-0.044 -0.01713,-0.015 -0.03472,-0.03 -0.05275,-0.044 -0.02455,-0.021 -0.04998,-0.04 -0.07619,-0.059 l -0.0147,-0.01 c -0.184168,-0.1222 -0.400227,-0.1874 -0.621226,-0.1876 z m -46.474689,2.9186 c -1.521685,-0.021 -1.521685,2.272 0,2.2504 l 11.621597,0 c 1.521685,0.022 1.521685,-2.2719 0,-2.2504 z"
       id="path6"
       inkscape:connector-curvature="0" />
  </g>
</svg>
