<?xml version="1.0" encoding="UTF-8" standalone="no"?>
<svg
   xmlns:dc="http://purl.org/dc/elements/1.1/"
   xmlns:cc="http://creativecommons.org/ns#"
   xmlns:rdf="http://www.w3.org/1999/02/22-rdf-syntax-ns#"
   xmlns:svg="http://www.w3.org/2000/svg"
   xmlns="http://www.w3.org/2000/svg"
   xmlns:sodipodi="http://sodipodi.sourceforge.net/DTD/sodipodi-0.dtd"
   xmlns:inkscape="http://www.inkscape.org/namespaces/inkscape"
   version="1.1"
   id="Layer_1"
   x="0px"
   y="0px"
   width="100px"
   height="100px"
   viewBox="5.0 -10.0 100.0 135.0"
   enable-background="new 0 0 100 100"
   xml:space="preserve"
   inkscape:version="0.48.5 r10040"
   sodipodi:docname="noun_29542_cc.svg"><metadata
     id="metadata23"><rdf:RDF><cc:Work
         rdf:about=""><dc:format>image/svg+xml</dc:format><dc:type
           rdf:resource="http://purl.org/dc/dcmitype/StillImage" /></cc:Work></rdf:RDF></metadata><defs
     id="defs21" /><sodipodi:namedview
     pagecolor="#ffffff"
     bordercolor="#666666"
     borderopacity="1"
     objecttolerance="10"
     gridtolerance="10"
     guidetolerance="10"
     inkscape:pageopacity="0"
     inkscape:pageshadow="2"
     inkscape:window-width="640"
     inkscape:window-height="480"
     id="namedview19"
     showgrid="false"
     inkscape:zoom="2.36"
     inkscape:cx="50"
     inkscape:cy="42.264259"
     inkscape:window-x="0"
     inkscape:window-y="27"
     inkscape:window-maximized="0"
     inkscape:current-layer="Layer_1" /><path
     d="m 110.19137,37.058657 h -6.41627 l -6.916674,4.850558 h 11.279734 c 0.53481,0 1.06389,0.06739 1.56715,0.189262 3.09988,0.722636 5.40543,3.52859 5.40543,6.87222 V 110.7576 c 2.94074,-1.72486 4.92799,-4.94088 4.92799,-8.6315 V 47.039365 c -0.001,-5.515843 -4.41181,-9.980708 -9.84736,-9.980708 z"
     id="path3"
     inkscape:connector-curvature="0" /><path
     d="M 108.41345,46.058643 H -1.4703948 c -1.1484767,0 -2.0732801,-0.93054 -2.0732801,-2.07328 0,-1.148478 0.9262372,-2.081883 2.0732801,-2.081883 H 6.9933481 L 9.7993019,39.876081 13.699247,37.058657 H -0.22872085 c -5.49003415,0 -9.93912615,4.464865 -9.93912615,9.967803 v 1.937068 63.904632 c 0,5.5101 4.449092,9.97353 9.93912615,9.97353 H 101.37204 c 5.48716,0 9.94056,-4.46343 9.94056,-9.97353 V 48.963528 c -0.007,-1.604426 -1.30476,-2.904885 -2.89915,-2.904885 z"
     id="path5"
     inkscape:connector-curvature="0" /><g
     id="g7"
     transform="matrix(1.4338036,0,0,1.4338036,-16.093758,-12.27996)"><path
       d="m 49.752,26.299 c -5.534,-0.29 -10.249,3.943 -10.524,9.453 -0.036,0.745 0.016,1.472 0.137,2.177 h 19.797 c 0.062,-0.368 0.106,-0.741 0.126,-1.122 0.273,-5.515 -3.998,-10.219 -9.536,-10.508 z"
       id="path9"
       inkscape:connector-curvature="0"
       style="fill:none" /><path
       d="m 39.228,35.752 c 0.275,-5.509 4.991,-9.742 10.524,-9.453 5.538,0.289 9.808,4.992 9.536,10.507 -0.02,0.381 -0.064,0.754 -0.126,1.122 H 74.739 L 84.561,30.636 64.814,4.572 19.895,37.929 h 19.47 c -0.121,-0.705 -0.173,-1.432 -0.137,-2.177 z"
       id="path11"
       inkscape:connector-curvature="0" /></g><polygon
     points="40.884,5.019 22.209,33.399 51.353,11.92 "
     id="polygon13"
     transform="matrix(1.4338036,0,0,1.4338036,-16.093758,-12.27996)" /></svg>