<?xml version="1.0" encoding="UTF-8" standalone="no"?>
<svg
   xmlns:dc="http://purl.org/dc/elements/1.1/"
   xmlns:cc="http://creativecommons.org/ns#"
   xmlns:rdf="http://www.w3.org/1999/02/22-rdf-syntax-ns#"
   xmlns:svg="http://www.w3.org/2000/svg"
   xmlns="http://www.w3.org/2000/svg"
   xmlns:sodipodi="http://sodipodi.sourceforge.net/DTD/sodipodi-0.dtd"
   xmlns:inkscape="http://www.inkscape.org/namespaces/inkscape"
   version="1.1"
   x="0px"
   y="0px"
   viewBox="0 0 100 125"
   enable-background="new 0 0 100 100"
   xml:space="preserve"
   id="svg2"
   inkscape:version="0.91 r13725"
   sodipodi:docname="noun_62146_cc.svg"><metadata
     id="metadata26"><rdf:RDF><cc:Work
         rdf:about=""><dc:format>image/svg+xml</dc:format><dc:type
           rdf:resource="http://purl.org/dc/dcmitype/StillImage" /></cc:Work></rdf:RDF></metadata><defs
     id="defs24" /><sodipodi:namedview
     pagecolor="#ffffff"
     bordercolor="#666666"
     borderopacity="1"
     objecttolerance="10"
     gridtolerance="10"
     guidetolerance="10"
     inkscape:pageopacity="0"
     inkscape:pageshadow="2"
     inkscape:window-width="1366"
     inkscape:window-height="709"
     id="namedview22"
     showgrid="false"
     inkscape:zoom="1.888"
     inkscape:cx="50"
     inkscape:cy="39.907766"
     inkscape:window-x="-2"
     inkscape:window-y="0"
     inkscape:window-maximized="1"
     inkscape:current-layer="svg2" /><g
     id="g4"
     transform="matrix(1.1447278,0,0,1.1447278,-8.4204046,3.5272159)"><rect
       x="31"
       y="32.5"
       width="41"
       height="4"
       id="rect6" /></g><g
     id="g8"
     transform="matrix(1.1447278,0,0,1.1447278,-8.4204046,3.5272159)"><rect
       x="48"
       y="82.5"
       width="9"
       height="17.5"
       id="rect10" /></g><path
     d="m 37.368709,4.8871525 0,33.5542625 4.578911,0 0,-33.5542625 -4.578911,0 z m 3.451355,7.0824315 -2.324943,0 0,-5.5805485 2.324943,0 0,5.5805485 z"
     id="path12"
     inkscape:connector-curvature="0" /><path
     d="m 60.263266,4.8871525 0,33.5542625 4.578911,0 0,-33.5542625 -4.578911,0 z m 3.451354,7.0824315 -2.324942,0 0,-5.5805485 2.324942,0 0,5.5805485 z"
     id="path14"
     inkscape:connector-curvature="0" /><path
     d="m 27.066159,43.020326 0,30.907652 12.019642,21.749829 24.039285,0 L 74,73.927978 l 0,-30.907652 -46.933841,0 z m 40.065474,32.05238 -34.341835,0 0,-2.289456 34.341835,0 0,2.289456 z"
     id="path16"
     inkscape:connector-curvature="0" /></svg>