<?xml version="1.0" encoding="UTF-8" standalone="no"?>
<svg
   xmlns:dc="http://purl.org/dc/elements/1.1/"
   xmlns:cc="http://creativecommons.org/ns#"
   xmlns:rdf="http://www.w3.org/1999/02/22-rdf-syntax-ns#"
   xmlns:svg="http://www.w3.org/2000/svg"
   xmlns="http://www.w3.org/2000/svg"
   xmlns:sodipodi="http://sodipodi.sourceforge.net/DTD/sodipodi-0.dtd"
   xmlns:inkscape="http://www.inkscape.org/namespaces/inkscape"
   version="1.1"
   x="0px"
   y="0px"
   viewBox="0 0 184.25197 131.10236"
   enable-background="new 0 0 100 100"
   xml:space="preserve"
   id="svg2"
   inkscape:version="0.91 r13725"
   sodipodi:docname="noun_269793_cc.svg"
   width="52mm"
   height="37mm"><metadata
     id="metadata22"><rdf:RDF><cc:Work
         rdf:about=""><dc:format>image/svg+xml</dc:format><dc:type
           rdf:resource="http://purl.org/dc/dcmitype/StillImage" /><dc:title /></cc:Work></rdf:RDF></metadata><defs
     id="defs20" /><sodipodi:namedview
     pagecolor="#ffffff"
     bordercolor="#666666"
     borderopacity="1"
     objecttolerance="10"
     gridtolerance="10"
     guidetolerance="10"
     inkscape:pageopacity="0"
     inkscape:pageshadow="2"
     inkscape:window-width="1366"
     inkscape:window-height="712"
     id="namedview18"
     showgrid="false"
     inkscape:zoom="0.118"
     inkscape:cx="-2954.4935"
     inkscape:cy="962.76781"
     inkscape:window-x="0"
     inkscape:window-y="0"
     inkscape:window-maximized="1"
     inkscape:current-layer="svg2"
     units="mm" /><path
     d="m 28.934386,129.85912 -25.8157419,0 0,-25.81766 25.8157419,0 0,25.81766 z m -21.9637959,-3.85193 18.1118499,0 0,-18.11185 -18.1118499,0 0,18.11185 z"
     id="path4"
     inkscape:connector-curvature="0"
     style="fill:#d40000" /><path
     d="m 65.814843,129.85912 -25.815743,0 0,-51.633399 25.815743,0 0,51.633399 z m -21.963796,-3.85193 18.111849,0 0,-43.929529 -18.111849,0 0,43.929529 z"
     id="path6"
     inkscape:connector-curvature="0"
     style="fill:#d40000" /><path
     d="m 102.6953,129.85912 -25.815743,0 0,-77.449138 25.815743,0 0,77.449138 z m -21.963796,-3.85193 18.111849,0 0,-69.745263 -18.111849,0 0,69.745263 z"
     id="path8"
     inkscape:connector-curvature="0"
     style="fill:#d40000" /><path
     d="m 139.57576,129.85912 -25.81575,0 0,-103.26488 25.81382,0 0,103.26488 z m -21.9638,-3.85193 18.10992,0 0,-95.561003 -18.10992,0 0,95.561003 z"
     id="path10"
     inkscape:connector-curvature="0"
     style="fill:#d40000" /><path
     d="m 176.45621,129.85912 -25.81574,0 0,-129.08254796 25.81574,0 0,129.08254796 z m -21.96379,-3.85193 18.11185,0 0,-121.3786714 -18.11185,0 0,121.3786714 z"
     id="path12"
     inkscape:connector-curvature="0"
     style="fill:#d40000" /></svg>