<?xml version="1.0" encoding="UTF-8" standalone="no"?>
<svg
   xmlns:dc="http://purl.org/dc/elements/1.1/"
   xmlns:cc="http://creativecommons.org/ns#"
   xmlns:rdf="http://www.w3.org/1999/02/22-rdf-syntax-ns#"
   xmlns:svg="http://www.w3.org/2000/svg"
   xmlns="http://www.w3.org/2000/svg"
   xmlns:sodipodi="http://sodipodi.sourceforge.net/DTD/sodipodi-0.dtd"
   xmlns:inkscape="http://www.inkscape.org/namespaces/inkscape"
   version="1.1"
   viewBox="0 0 100.00001 125"
   xml:space="preserve"
   x="0px"
   y="0px"
   id="svg2"
   inkscape:version="0.91 r13725"
   sodipodi:docname="noun_139613_cc.svg"><metadata
     id="metadata14"><rdf:RDF><cc:Work
         rdf:about=""><dc:format>image/svg+xml</dc:format><dc:type
           rdf:resource="http://purl.org/dc/dcmitype/StillImage" /></cc:Work></rdf:RDF></metadata><defs
     id="defs12" /><sodipodi:namedview
     pagecolor="#ffffff"
     bordercolor="#666666"
     borderopacity="1"
     objecttolerance="10"
     gridtolerance="10"
     guidetolerance="10"
     inkscape:pageopacity="0"
     inkscape:pageshadow="2"
     inkscape:window-width="1366"
     inkscape:window-height="712"
     id="namedview10"
     showgrid="false"
     inkscape:zoom="1.888"
     inkscape:cx="-42.425844"
     inkscape:cy="62.5"
     inkscape:window-x="0"
     inkscape:window-y="0"
     inkscape:window-maximized="1"
     inkscape:current-layer="svg2" /><path
     d="m 25.78125,24.656245 c -1.19804,0.03338 -2.390296,0.356511 -3.5,1 -3.551054,2.059166 -4.777916,6.605196 -2.71875,10.15625 2.059166,3.551054 6.605196,4.777916 10.15625,2.71875 0.456937,-0.264966 0.872582,-0.566293 1.25,-0.90625 l 11.90625,8.84375 c -0.102601,-0.265069 -0.210456,-0.53323 -0.28125,-0.8125 -0.377046,-0.995022 -0.216682,-1.991187 0.03125,-2.96875 l -9.9375,-7.34375 c 1.040295,-2.147247 1.036979,-4.749341 -0.25,-6.96875 -1.415677,-2.441349 -4.020561,-3.792192 -6.65625,-3.71875 z m 53.90625,3.09375 c -1.19804,0.03338 -2.421546,0.356511 -3.53125,1 -3.09834,1.796649 -4.395139,5.479306 -3.3125,8.75 l -11.125,6.65625 c -0.01921,1.463022 -0.639159,2.857354 -1.375,4.1875 L 74.25,39.999995 c 2.284876,2.676533 6.222001,3.422095 9.375,1.59375 3.551054,-2.059166 4.746666,-6.605196 2.6875,-10.15625 -1.415677,-2.441349 -3.989311,-3.760942 -6.625,-3.6875 z m -27.625,6.0625 c -6.491611,0 -6.40625,5.65625 -6.40625,5.65625 l -0.0625,3.03125 c -0.530352,-0.0072 -0.65625,0.514594 -0.65625,1.5625 0,1.570663 0.973035,3.213529 1.84375,4.0625 0.295074,1.234764 0.866408,2.327458 1.625,3.15625 -0.02641,0.0162 -0.06722,0.01506 -0.09375,0.03125 -2.587069,1.578079 -5.672508,2.649945 -7.6875,3.71875 -0.555696,0.29448 -1.144777,0.811066 -1.625,1.46875 -0.32697,0.452412 -0.598878,0.935264 -0.84375,1.4375 -0.009,0.01782 -0.0225,0.04466 -0.03125,0.0625 -0.0335,0.0697 -0.06169,0.148406 -0.09375,0.21875 -0.48672,1.041571 -0.840864,2.134504 -1.03125,3.25 -0.004,0.02072 0.0038,0.04182 0,0.0625 -0.0086,0.05238 -0.02313,0.10387 -0.03125,0.15625 -0.03411,0.193194 -0.06636,0.403903 -0.09375,0.59375 -0.02338,0.156384 -0.04306,0.493278 -0.03125,0.65625 -0.0018,0.0099 9e-4,0.02135 0,0.03125 -0.07182,1.018098 1.84375,1.34375 1.84375,1.34375 0.715321,0.211536 2.029012,0.44187 3.625,0.65625 2.847115,0.46989 5.761037,0.630802 8.625,0.71875 0.277992,0.0086 0.572546,-0.0011 0.875,0 l 0.03125,0 c 0.150498,0 0.31314,0.0018 0.46875,0 0.302454,-0.0018 0.59699,0.0086 0.875,0 2.862703,-0.08791 5.779109,-0.249346 8.625,-0.71875 1.598346,-0.21456 2.908924,-0.444498 3.625,-0.65625 0,0 1.915552,-0.325652 1.84375,-1.34375 -0.0018,-0.0099 9e-4,-0.02133 0,-0.03125 0.01188,-0.162972 -0.0079,-0.499866 -0.03125,-0.65625 -0.03917,-0.271261 -0.103166,-0.566172 -0.15625,-0.84375 -0.210852,-1.219968 -0.58763,-2.440343 -1.15625,-3.5625 -0.0063,-0.0126 0.0065,-0.01868 0,-0.03125 -0.23436,-0.469476 -0.505438,-0.918878 -0.8125,-1.34375 -0.480222,-0.657684 -1.069304,-1.17427 -1.625,-1.46875 -2.014992,-1.068805 -5.100449,-2.140671 -7.6875,-3.71875 -0.02651,-0.0162 -0.06734,-0.01497 -0.09375,-0.03125 0.75861,-0.828792 1.329925,-1.921486 1.625,-3.15625 0.870714,-0.848971 1.8125,-2.491837 1.8125,-4.0625 0,-1.047906 -0.12588,-1.569664 -0.65625,-1.5625 l -0.03125,-3.03125 c 0,0 0.08537,-5.65625 -6.40625,-5.65625 z m -13.46875,19.65625 -19.375,4.84375 C 19.115362,58.083617 19.003698,57.846936 18.875,57.624995 16.815834,54.073941 12.269804,52.878329 8.71875,54.937495 5.1676963,56.996661 3.9408337,61.542691 6,65.093745 c 2.059166,3.551054 6.605196,4.746666 10.15625,2.6875 2.450927,-1.42123 3.803575,-4.041145 3.71875,-6.6875 l 15.84375,-3.9375 c 0.07438,-0.159517 0.172762,-0.313302 0.25,-0.46875 0.603648,-1.339254 1.514598,-2.380579 2.625,-3.21875 z m 31.125,7.78125 c 0.20349,1.074546 0.137248,2.244139 -0.3125,3.21875 l 11.3125,7.34375 c -0.855939,2.066285 -0.802327,4.478297 0.40625,6.5625 2.059166,3.551054 6.605196,4.777916 10.15625,2.71875 3.551054,-2.059166 4.777916,-6.605196 2.71875,-10.15625 -2.059166,-3.551054 -6.605196,-4.777916 -10.15625,-2.71875 -0.574435,0.3331 -1.08329,0.738901 -1.53125,1.1875 l -12.59375,-8.15625 z m -25.3125,6.5 -7.96875,20.84375 c -1.689316,-0.317982 -3.52127,-0.05496 -5.125,0.875 -3.551054,2.059166 -4.746666,6.605196 -2.6875,10.15625 2.059166,3.551055 6.605196,4.777915 10.15625,2.718755 3.551054,-2.05917 4.777916,-6.605201 2.71875,-10.156255 -0.607794,-1.048147 -1.45443,-1.883708 -2.40625,-2.5 l 8.3125,-21.65625 c -0.996859,-0.07277 -2.0091,-0.172782 -3,-0.28125 z"
     style="fill:#000000;fill-opacity:1;fill-rule:nonzero;stroke:none"
     id="path4"
     inkscape:connector-curvature="0" /></svg>