<?xml version="1.0" encoding="UTF-8" standalone="no"?>
<svg
   xmlns:dc="http://purl.org/dc/elements/1.1/"
   xmlns:cc="http://creativecommons.org/ns#"
   xmlns:rdf="http://www.w3.org/1999/02/22-rdf-syntax-ns#"
   xmlns:svg="http://www.w3.org/2000/svg"
   xmlns="http://www.w3.org/2000/svg"
   xmlns:sodipodi="http://sodipodi.sourceforge.net/DTD/sodipodi-0.dtd"
   xmlns:inkscape="http://www.inkscape.org/namespaces/inkscape"
   version="1.1"
   id="Layer_1"
   x="0px"
   y="0px"
   width="90px"
   height="90px"
   viewBox="4.5 -9.0 90.0 121.5"
   enable-background="new 0 0 90 90"
   xml:space="preserve"
   inkscape:version="0.91 r13725"
   sodipodi:docname="noun_62479_cc.svg"><metadata
     id="metadata15"><rdf:RDF><cc:Work
         rdf:about=""><dc:format>image/svg+xml</dc:format><dc:type
           rdf:resource="http://purl.org/dc/dcmitype/StillImage" /></cc:Work></rdf:RDF></metadata><defs
     id="defs13" /><sodipodi:namedview
     pagecolor="#ffffff"
     bordercolor="#666666"
     borderopacity="1"
     objecttolerance="10"
     gridtolerance="10"
     guidetolerance="10"
     inkscape:pageopacity="0"
     inkscape:pageshadow="2"
     inkscape:window-width="640"
     inkscape:window-height="480"
     id="namedview11"
     showgrid="false"
     inkscape:zoom="2.6222222"
     inkscape:cx="45"
     inkscape:cy="32.792066"
     inkscape:window-x="203"
     inkscape:window-y="59"
     inkscape:window-maximized="0"
     inkscape:current-layer="Layer_1"
     showguides="true"
     inkscape:guide-bbox="true" /><polygon
     points="49.943,48.187 9.812,8.054 6.458,11.407 46.646,51.596 33.531,51.596 33.531,56.338 54.686,56.338 54.686,35.182 49.943,35.182 "
     id="polygon3"
     transform="matrix(1.1588059,0,0,1.1062012,-2.1696365,-0.96975123)" /><path
     d="m 57.957326,23.712917 c -3.156588,0 -6.285364,0.381639 -9.299418,1.133856 l 1.390567,5.075252 c 2.559803,-0.639385 5.22158,-0.963501 7.908851,-0.963501 17.195521,0 31.185786,13.354062 31.185786,29.768982 0,16.413814 -13.990265,29.766767 -31.185786,29.766767 -17.194363,0 -31.182309,-13.352953 -31.182309,-29.766767 0,-2.632758 0.35923,-5.241182 1.068419,-7.753365 l -5.306172,-1.365052 c -0.83434,2.956876 -1.257304,6.024372 -1.257304,9.118417 0,19.305421 16.453884,35.01238 36.677366,35.01238 20.225798,0 36.680842,-15.706959 36.680842,-35.01238 C 94.638963,39.420975 78.183124,23.712917 57.957326,23.712917 Z"
     id="path5"
     inkscape:connector-curvature="0" /></svg>