<?xml version="1.0" encoding="UTF-8" standalone="no"?>
<svg
   xmlns:ns="http://ns.adobe.com/SaveForWeb/1.0/"
   xmlns:dc="http://purl.org/dc/elements/1.1/"
   xmlns:cc="http://creativecommons.org/ns#"
   xmlns:rdf="http://www.w3.org/1999/02/22-rdf-syntax-ns#"
   xmlns:svg="http://www.w3.org/2000/svg"
   xmlns="http://www.w3.org/2000/svg"
   xmlns:sodipodi="http://sodipodi.sourceforge.net/DTD/sodipodi-0.dtd"
   xmlns:inkscape="http://www.inkscape.org/namespaces/inkscape"
   version="1.1"
   id="Layer_1"
   x="0px"
   y="0px"
   width="100px"
   height="100px"
   viewBox="5.0 -10.0 100.0 135.0"
   enable-background="new 0 0 100 100"
   xml:space="preserve"
   inkscape:version="0.91 r13725"
   sodipodi:docname="noun_7440_cc.svg"><defs
     id="defs21" /><sodipodi:namedview
     pagecolor="#ffffff"
     bordercolor="#666666"
     borderopacity="1"
     objecttolerance="10"
     gridtolerance="10"
     guidetolerance="10"
     inkscape:pageopacity="0"
     inkscape:pageshadow="2"
     inkscape:window-width="1366"
     inkscape:window-height="725"
     id="namedview19"
     showgrid="false"
     inkscape:zoom="2.36"
     inkscape:cx="50"
     inkscape:cy="50"
     inkscape:window-x="-7"
     inkscape:window-y="17"
     inkscape:window-maximized="1"
     inkscape:current-layer="Layer_1" /><metadata
     id="metadata3"><ns:sfw><ns:slices /><ns:sliceSourceBounds
         x="0.083"
         y="-99.397"
         width="99.612"
         height="99.046"
         bottomLeftOrigin="true" /></ns:sfw><rdf:RDF><cc:Work
         rdf:about=""><dc:format>image/svg+xml</dc:format><dc:type
           rdf:resource="http://purl.org/dc/dcmitype/StillImage" /></cc:Work></rdf:RDF></metadata><path
     d="m 71.372641,27.779879 c 0,12.356901 -9.478133,31.438128 -21.170194,31.438128 -11.692062,0 -21.17118,-19.081227 -21.17118,-31.438128 0,-12.35586 9.479118,-22.3720988 21.17118,-22.3720988 11.692061,0 21.170194,10.0162388 21.170194,22.3720988 z"
     id="path5"
     inkscape:connector-curvature="0"
     style="fill:#000000" /><g
     id="g7"
     transform="matrix(0.9848434,0,0,1.0407563,7.9181924,5.0424745)"><rect
       x="84.732002"
       y="17.913"
       width="7.165"
       height="22.761"
       id="rect9"
       style="fill:#000000" /><rect
       x="76.935997"
       y="25.711"
       width="22.76"
       height="7.1659999"
       id="rect11"
       style="fill:#000000" /></g><path
     d="m 84.100755,56.862776 c 0,0 -9.356994,-2.315683 -20.685648,-3.582284 -3.693163,4.737523 -8.264807,7.997172 -13.213645,7.997172 -4.949824,0 -9.520482,-3.259649 -13.215615,-7.997172 -11.327669,1.266601 -20.684667,3.582284 -20.684667,3.582284 -4.584446,0 -8.3022302,3.927815 -8.3022302,8.773576 l 0,34.081646 c 0,4.845762 3.7177842,8.773582 8.3022302,8.773582 l 67.799575,0 c 4.583464,0 8.302236,-3.92678 8.302236,-8.773582 l 0,-34.081646 c 0,-4.845761 -3.717785,-8.773576 -8.302236,-8.773576 z"
     id="path13"
     inkscape:connector-curvature="0"
     style="fill:#000000" /></svg>