<?xml version="1.0" encoding="UTF-8" standalone="no"?>
<svg
   xmlns:dc="http://purl.org/dc/elements/1.1/"
   xmlns:cc="http://creativecommons.org/ns#"
   xmlns:rdf="http://www.w3.org/1999/02/22-rdf-syntax-ns#"
   xmlns:svg="http://www.w3.org/2000/svg"
   xmlns="http://www.w3.org/2000/svg"
   xmlns:sodipodi="http://sodipodi.sourceforge.net/DTD/sodipodi-0.dtd"
   xmlns:inkscape="http://www.inkscape.org/namespaces/inkscape"
   version="1.1"
   id="Layer_1"
   x="0px"
   y="0px"
   width="90px"
   height="90px"
   viewBox="4.5 -9.0 90.0 121.5"
   enable-background="new 0 0 90 90"
   xml:space="preserve"
   inkscape:version="0.91 r13725"
   sodipodi:docname="noun_62479_cc.svg"><metadata
     id="metadata15"><rdf:RDF><cc:Work
         rdf:about=""><dc:format>image/svg+xml</dc:format><dc:type
           rdf:resource="http://purl.org/dc/dcmitype/StillImage" /></cc:Work></rdf:RDF></metadata><defs
     id="defs13" /><sodipodi:namedview
     pagecolor="#ffffff"
     bordercolor="#666666"
     borderopacity="1"
     objecttolerance="10"
     gridtolerance="10"
     guidetolerance="10"
     inkscape:pageopacity="0"
     inkscape:pageshadow="2"
     inkscape:window-width="640"
     inkscape:window-height="480"
     id="namedview11"
     showgrid="false"
     inkscape:zoom="2.6222222"
     inkscape:cx="45"
     inkscape:cy="31.338977"
     inkscape:window-x="0"
     inkscape:window-y="27"
     inkscape:window-maximized="0"
     inkscape:current-layer="Layer_1" /><polygon
     points="54.686,56.338 54.686,35.182 49.943,35.182 49.943,48.187 9.812,8.054 6.458,11.407 46.646,51.596 33.531,51.596 33.531,56.338 "
     id="polygon3"
     transform="matrix(1.4579929,0,0,1.4579929,-16.457719,-17.188675)" /><path
     d="m 59.193161,15.343521 c -3.971573,0 -7.908154,0.503008 -11.700393,1.494443 l 1.749591,6.689272 c 3.220707,-0.84272 6.569717,-1.269912 9.950802,-1.269912 21.635157,0 39.237509,17.600891 39.237509,39.236048 0,21.633699 -17.602352,39.233128 -39.237509,39.233128 -21.633699,0 -39.233132,-17.599429 -39.233132,-39.233128 0,-3.470023 0.451978,-6.907971 1.34427,-10.219073 l -6.67615,-1.799163 c -1.049755,3.897215 -1.581922,7.94023 -1.581922,12.018236 0,25.444888 20.702041,46.146938 46.146934,46.146938 25.447809,0 46.151309,-20.70205 46.151309,-46.146938 0.001,-25.446351 -20.7035,-46.149851 -46.151309,-46.149851 z"
     id="path5"
     inkscape:connector-curvature="0" /></svg>