<?xml version="1.0" encoding="UTF-8" standalone="no"?>
<svg
   xmlns:dc="http://purl.org/dc/elements/1.1/"
   xmlns:cc="http://creativecommons.org/ns#"
   xmlns:rdf="http://www.w3.org/1999/02/22-rdf-syntax-ns#"
   xmlns:svg="http://www.w3.org/2000/svg"
   xmlns="http://www.w3.org/2000/svg"
   xmlns:sodipodi="http://sodipodi.sourceforge.net/DTD/sodipodi-0.dtd"
   xmlns:inkscape="http://www.inkscape.org/namespaces/inkscape"
   version="1.1"
   id="Layer_1"
   x="0px"
   y="0px"
   width="100px"
   height="100px"
   viewBox="5.0 -10.0 100.0 135.0"
   enable-background="new 0 0 100 100"
   xml:space="preserve"
   inkscape:version="0.48.5 r10040"
   sodipodi:docname="noun_29542_cc.svg"><metadata
     id="metadata23"><rdf:RDF><cc:Work
         rdf:about=""><dc:format>image/svg+xml</dc:format><dc:type
           rdf:resource="http://purl.org/dc/dcmitype/StillImage" /></cc:Work></rdf:RDF></metadata><defs
     id="defs21" /><sodipodi:namedview
     pagecolor="#ffffff"
     bordercolor="#666666"
     borderopacity="1"
     objecttolerance="10"
     gridtolerance="10"
     guidetolerance="10"
     inkscape:pageopacity="0"
     inkscape:pageshadow="2"
     inkscape:window-width="640"
     inkscape:window-height="480"
     id="namedview19"
     showgrid="false"
     inkscape:zoom="2.36"
     inkscape:cx="50"
     inkscape:cy="42.264259"
     inkscape:window-x="0"
     inkscape:window-y="27"
     inkscape:window-maximized="0"
     inkscape:current-layer="Layer_1" /><path
     d="M 98.625666,40.817494 H 93.61882 l -5.39733,3.785065 h 8.801983 c 0.417331,0 0.830191,0.05259 1.222903,0.147688 2.418944,0.563899 4.218054,2.753486 4.218054,5.362641 v 48.214546 c 2.29476,-1.34597 3.84549,-3.855546 3.84549,-6.73547 V 48.6058 c -7.8e-4,-4.304211 -3.4427,-7.788306 -7.684254,-7.788306 z"
     id="path3"
     inkscape:connector-curvature="0" /><path
     d="M 97.238291,47.840508 H 11.49197 c -0.896198,0 -1.6178555,-0.726134 -1.6178555,-1.617855 0,-0.896199 0.7227765,-1.624569 1.6178555,-1.624569 h 6.604563 l 2.189587,-1.582052 3.043267,-2.198538 H 12.460892 c -4.2840709,0 -7.7558576,3.484095 -7.7558576,7.778236 v 1.511564 49.867086 c 0,4.29973 3.4717867,7.7827 7.7558576,7.7827 h 79.282734 c 4.281828,0 7.756977,-3.48297 7.756977,-7.7827 V 50.107294 c -0.0055,-1.251991 -1.018152,-2.266786 -2.262312,-2.266786 z"
     id="path5"
     inkscape:connector-curvature="0" /><g
     id="g7"
     transform="matrix(1.1188486,0,0,1.1188486,0.08083236,2.3167937)"><path
       d="m 49.752,26.299 c -5.534,-0.29 -10.249,3.943 -10.524,9.453 -0.036,0.745 0.016,1.472 0.137,2.177 h 19.797 c 0.062,-0.368 0.106,-0.741 0.126,-1.122 0.273,-5.515 -3.998,-10.219 -9.536,-10.508 z"
       id="path9"
       inkscape:connector-curvature="0"
       style="fill:none" /><path
       d="m 39.228,35.752 c 0.275,-5.509 4.991,-9.742 10.524,-9.453 5.538,0.289 9.808,4.992 9.536,10.507 -0.02,0.381 -0.064,0.754 -0.126,1.122 H 74.739 L 84.561,30.636 64.814,4.572 19.895,37.929 h 19.47 c -0.121,-0.705 -0.173,-1.432 -0.137,-2.177 z"
       id="path11"
       inkscape:connector-curvature="0" /></g><polygon
     points="51.353,11.92 40.884,5.019 22.209,33.399 "
     id="polygon13"
     transform="matrix(1.1188486,0,0,1.1188486,0.08083236,2.3167937)" /></svg>