<?xml version="1.0" encoding="UTF-8" standalone="no"?>
<svg
   xmlns:dc="http://purl.org/dc/elements/1.1/"
   xmlns:cc="http://creativecommons.org/ns#"
   xmlns:rdf="http://www.w3.org/1999/02/22-rdf-syntax-ns#"
   xmlns:svg="http://www.w3.org/2000/svg"
   xmlns="http://www.w3.org/2000/svg"
   xmlns:sodipodi="http://sodipodi.sourceforge.net/DTD/sodipodi-0.dtd"
   xmlns:inkscape="http://www.inkscape.org/namespaces/inkscape"
   version="1.1"
   id="Layer_1"
   x="0px"
   y="0px"
   width="100px"
   height="100px"
   viewBox="5.0 -10.0 100.0 135.0"
   enable-background="new 0 0 100 100"
   xml:space="preserve"
   inkscape:version="0.91 r13725"
   sodipodi:docname="noun_29542_cc.svg"><metadata
     id="metadata23"><rdf:RDF><cc:Work
         rdf:about=""><dc:format>image/svg+xml</dc:format><dc:type
           rdf:resource="http://purl.org/dc/dcmitype/StillImage" /></cc:Work></rdf:RDF></metadata><defs
     id="defs21" /><sodipodi:namedview
     pagecolor="#ffffff"
     bordercolor="#666666"
     borderopacity="1"
     objecttolerance="10"
     gridtolerance="10"
     guidetolerance="10"
     inkscape:pageopacity="0"
     inkscape:pageshadow="2"
     inkscape:window-width="640"
     inkscape:window-height="480"
     id="namedview19"
     showgrid="false"
     inkscape:zoom="2.36"
     inkscape:cx="50"
     inkscape:cy="42.264259"
     inkscape:window-x="0"
     inkscape:window-y="27"
     inkscape:window-maximized="0"
     inkscape:current-layer="Layer_1" /><path
     d="m 95.087689,41.454786 -4.330323,0 -4.668045,3.273629 7.612662,0 c 0.360942,0 0.718016,0.04548 1.057665,0.127732 2.092101,0.487706 3.648111,2.381436 3.648111,4.638043 l 0,41.699815 c 1.984691,-1.164103 3.325891,-3.334586 3.325891,-5.825376 l 0,-37.17789 c -6.7e-4,-3.722627 -2.977521,-6.735953 -6.645961,-6.735953 z"
     id="path3"
     inkscape:connector-curvature="0" /><path
     d="m 93.887775,47.528853 -74.16031,0 c -0.775104,0 -1.399252,-0.628019 -1.399252,-1.399251 0,-0.775104 0.625116,-1.405057 1.399252,-1.405057 l 5.712157,0 1.893731,-1.368286 2.632061,-1.901473 -9.399948,0 c -3.705208,0 -6.707889,3.013326 -6.707889,6.727244 l 0,1.307322 0,43.129064 c 0,3.718752 3.002681,6.731105 6.707889,6.731105 l 68.570081,0 c 3.703269,0 6.708862,-3.012353 6.708862,-6.731105 l 0,-43.129064 c -0.005,-1.082822 -0.880584,-1.960499 -1.956634,-1.960499 z"
     id="path5"
     inkscape:connector-curvature="0" /><g
     id="g7"
     transform="matrix(0.9676702,0,0,0.9676702,9.8581957,8.1562867)"><path
       d="m 49.752,26.299 c -5.534,-0.29 -10.249,3.943 -10.524,9.453 -0.036,0.745 0.016,1.472 0.137,2.177 l 19.797,0 c 0.062,-0.368 0.106,-0.741 0.126,-1.122 0.273,-5.515 -3.998,-10.219 -9.536,-10.508 z"
       id="path9"
       inkscape:connector-curvature="0"
       style="fill:none" /><path
       d="m 39.228,35.752 c 0.275,-5.509 4.991,-9.742 10.524,-9.453 5.538,0.289 9.808,4.992 9.536,10.507 -0.02,0.381 -0.064,0.754 -0.126,1.122 l 15.577,0 9.822,-7.292 -19.747,-26.064 -44.919,33.357 19.47,0 c -0.121,-0.705 -0.173,-1.432 -0.137,-2.177 z"
       id="path11"
       inkscape:connector-curvature="0" /></g><polygon
     points="22.209,33.399 51.353,11.92 40.884,5.019 "
     id="polygon13"
     transform="matrix(0.9676702,0,0,0.9676702,9.8581957,8.1562867)" /></svg>