<?xml version="1.0" encoding="UTF-8" standalone="no"?>
<svg
   xmlns:dc="http://purl.org/dc/elements/1.1/"
   xmlns:cc="http://creativecommons.org/ns#"
   xmlns:rdf="http://www.w3.org/1999/02/22-rdf-syntax-ns#"
   xmlns:svg="http://www.w3.org/2000/svg"
   xmlns="http://www.w3.org/2000/svg"
   xmlns:sodipodi="http://sodipodi.sourceforge.net/DTD/sodipodi-0.dtd"
   xmlns:inkscape="http://www.inkscape.org/namespaces/inkscape"
   version="1.1"
   id="Your_Icon"
   x="0px"
   y="0px"
   width="100px"
   height="100px"
   viewBox="5.0 -10.0 100.0 135.0"
   enable-background="new 0 0 100 100"
   xml:space="preserve"
   inkscape:version="0.91 r13725"
   sodipodi:docname="noun_76373_cc.svg"><metadata
     id="metadata71"><rdf:RDF><cc:Work
         rdf:about=""><dc:format>image/svg+xml</dc:format><dc:type
           rdf:resource="http://purl.org/dc/dcmitype/StillImage" /></cc:Work></rdf:RDF></metadata><defs
     id="defs69" /><sodipodi:namedview
     pagecolor="#ffffff"
     bordercolor="#666666"
     borderopacity="1"
     objecttolerance="10"
     gridtolerance="10"
     guidetolerance="10"
     inkscape:pageopacity="0"
     inkscape:pageshadow="2"
     inkscape:window-width="640"
     inkscape:window-height="480"
     id="namedview67"
     showgrid="false"
     inkscape:zoom="2.36"
     inkscape:cx="39.201211"
     inkscape:cy="50"
     inkscape:window-x="0"
     inkscape:window-y="27"
     inkscape:window-maximized="0"
     inkscape:current-layer="Your_Icon" /><g
     id="g3"
     transform="matrix(1.130573,0,0,1.130573,-2.4337687,1.1022845)"><path
       d="m 79.978,96 -55.52,0 c -7.72,0 -14,-6.279 -14,-14 l 0,-64 c 0,-7.72 6.28,-14 14,-14 l 55.52,0 c 7.72,0 14,6.28 14,14 l 0,64 c 0,7.721 -6.281,14 -14,14 z M 24.458,8 c -5.514,0 -10,4.486 -10,10 l 0,64 c 0,5.514 4.486,10 10,10 l 55.52,0 c 5.514,0 10,-4.486 10,-10 l 0,-64 c 0,-5.514 -4.486,-10 -10,-10 l -55.52,0 z"
       id="path5"
       inkscape:connector-curvature="0" /></g><g
     id="g7"
     transform="matrix(1.130573,0,0,1.130573,-2.4337687,1.1022845)"><path
       d="m 52.218,77.5 c -15.164,0 -27.5,-12.336 -27.5,-27.5 0,-15.163 12.336,-27.5 27.5,-27.5 15.163,0 27.5,12.337 27.5,27.5 0,15.164 -12.337,27.5 -27.5,27.5 z m 0,-51 c -12.958,0 -23.5,10.542 -23.5,23.5 0,12.959 10.542,23.5 23.5,23.5 12.958,0 23.5,-10.541 23.5,-23.5 0,-12.958 -10.542,-23.5 -23.5,-23.5 z"
       id="path9"
       inkscape:connector-curvature="0" /></g><g
     id="g11"
     transform="matrix(1.130573,0,0,1.130573,-2.4337687,1.1022845)"><rect
       x="6.0219998"
       y="48"
       width="13"
       height="4"
       id="rect13" /></g><g
     id="g15"
     transform="matrix(1.130573,0,0,1.130573,-2.4337687,1.1022845)"><rect
       x="6.0219998"
       y="58"
       width="13"
       height="4"
       id="rect17" /></g><g
     id="g19"
     transform="matrix(1.130573,0,0,1.130573,-2.4337687,1.1022845)"><rect
       x="6.0219998"
       y="68"
       width="13"
       height="4"
       id="rect21" /></g><g
     id="g23"
     transform="matrix(1.130573,0,0,1.130573,-2.4337687,1.1022845)"><rect
       x="6.0219998"
       y="18"
       width="13"
       height="4"
       id="rect25" /></g><g
     id="g27"
     transform="matrix(1.130573,0,0,1.130573,-2.4337687,1.1022845)"><rect
       x="6.0949998"
       y="28"
       width="12.855"
       height="4"
       id="rect29" /></g><g
     id="g31"
     transform="matrix(1.130573,0,0,1.130573,-2.4337687,1.1022845)"><rect
       x="6.0219998"
       y="38"
       width="13"
       height="4"
       id="rect33" /></g><g
     id="g35"
     transform="matrix(1.130573,0,0,1.130573,-2.4337687,1.1022845)"><rect
       x="6.0219998"
       y="78"
       width="13"
       height="4"
       id="rect37" /></g><g
     id="g39"
     transform="matrix(1.130573,0,0,1.130573,-2.4337687,1.1022845)"><g
       id="g41"><circle
         cx="52.219002"
         cy="37.063"
         r="1"
         id="circle43" /><circle
         cx="52.219002"
         cy="37.063"
         r="2"
         id="circle45" /></g><g
       id="g47"><path
         d="m 52.218,39.063 -0.082,-0.002 c -1.102,-0.046 -1.961,-0.979 -1.916,-2.08 0.045,-1.076 0.922,-1.919 1.998,-1.919 1.182,0.047 2.041,0.979 1.998,2.081 -0.045,1.079 -0.924,1.92 -1.998,1.92 z m 0,-2 c 0,0 0,0 -0.002,0 l 0.002,1 0,-1 z"
         id="path49"
         inkscape:connector-curvature="0" /><path
         d="M 52.218,40.063 52.113,40.06 c -1.67,-0.069 -2.959,-1.469 -2.892,-3.12 0.067,-1.614 1.384,-2.878 2.997,-2.878 1.764,0.069 3.063,1.439 2.997,3.12 -0.068,1.617 -1.384,2.881 -2.997,2.881 z m -0.04,-2 0.04,1 -0.04,-1 z m 1.038,-1.001 0,0.056 c 0,-0.005 10e-4,-0.011 10e-4,-0.016 0.022,-0.567 -0.425,-1.016 -1.039,-1.04 -0.498,0.001 -0.937,0.423 -0.959,0.961 0,0.014 -10e-4,0.027 -10e-4,0.041 l 1.998,-0.002 z"
         id="path51"
         inkscape:connector-curvature="0" /></g></g><g
     id="g53"
     transform="matrix(1.130573,0,0,1.130573,-2.4337687,1.1022845)"><rect
       x="46.995998"
       y="42.063"
       width="7.2509999"
       height="3"
       id="rect55" /></g><g
     id="g57"
     transform="matrix(1.130573,0,0,1.130573,-2.4337687,1.1022845)"><rect
       x="46.997002"
       y="61.938"
       width="10.442"
       height="3"
       id="rect59" /></g><rect
     x="54.308556"
     y="51.90797"
     width="4.5878649"
     height="19.218609"
     id="rect61" /></svg>